<?xml version="1.0" encoding="utf-8" standalone="no"?>
<!DOCTYPE svg PUBLIC "-//W3C//DTD SVG 1.1//EN"
  "http://www.w3.org/Graphics/SVG/1.1/DTD/svg11.dtd">
<svg xmlns:xlink="http://www.w3.org/1999/xlink" width="536.325pt" height="363.718125pt" viewBox="0 0 536.325 363.718125" xmlns="http://www.w3.org/2000/svg" version="1.1">
 <metadata>
  <rdf:RDF xmlns:dc="http://purl.org/dc/elements/1.1/" xmlns:cc="http://creativecommons.org/ns#" xmlns:rdf="http://www.w3.org/1999/02/22-rdf-syntax-ns#">
   <cc:Work>
    <dc:type rdf:resource="http://purl.org/dc/dcmitype/StillImage"/>
    <dc:date>2024-06-09T21:26:41.618876</dc:date>
    <dc:format>image/svg+xml</dc:format>
    <dc:creator>
     <cc:Agent>
      <dc:title>Matplotlib v3.8.4, https://matplotlib.org/</dc:title>
     </cc:Agent>
    </dc:creator>
   </cc:Work>
  </rdf:RDF>
 </metadata>
 <defs>
  <style type="text/css">*{stroke-linejoin: round; stroke-linecap: butt}</style>
 </defs>
 <g id="figure_1">
  <g id="patch_1">
   <path d="M 0 363.718125 
L 536.325 363.718125 
L 536.325 0 
L 0 0 
z
" style="fill: #ffffff"/>
  </g>
  <g id="axes_1">
   <g id="patch_2">
    <path d="M 26.925 339.84 
L 529.125 339.84 
L 529.125 7.2 
L 26.925 7.2 
z
" style="fill: #ffffff"/>
   </g>
   <g id="matplotlib.axis_1">
    <g id="xtick_1">
     <g id="line2d_1">
      <defs>
       <path id="mc29a086e25" d="M 0 0 
L 0 3.5 
" style="stroke: #000000; stroke-width: 0.8"/>
      </defs>
      <g>
       <use xlink:href="#mc29a086e25" x="73.16486" y="339.84" style="stroke: #000000; stroke-width: 0.8"/>
      </g>
     </g>
     <g id="text_1">
      <!-- 1985 -->
      <g transform="translate(60.43986 354.438438) scale(0.1 -0.1)">
       <defs>
        <path id="DejaVuSans-31" d="M 794 531 
L 1825 531 
L 1825 4091 
L 703 3866 
L 703 4441 
L 1819 4666 
L 2450 4666 
L 2450 531 
L 3481 531 
L 3481 0 
L 794 0 
L 794 531 
z
" transform="scale(0.015625)"/>
        <path id="DejaVuSans-39" d="M 703 97 
L 703 672 
Q 941 559 1184 500 
Q 1428 441 1663 441 
Q 2288 441 2617 861 
Q 2947 1281 2994 2138 
Q 2813 1869 2534 1725 
Q 2256 1581 1919 1581 
Q 1219 1581 811 2004 
Q 403 2428 403 3163 
Q 403 3881 828 4315 
Q 1253 4750 1959 4750 
Q 2769 4750 3195 4129 
Q 3622 3509 3622 2328 
Q 3622 1225 3098 567 
Q 2575 -91 1691 -91 
Q 1453 -91 1209 -44 
Q 966 3 703 97 
z
M 1959 2075 
Q 2384 2075 2632 2365 
Q 2881 2656 2881 3163 
Q 2881 3666 2632 3958 
Q 2384 4250 1959 4250 
Q 1534 4250 1286 3958 
Q 1038 3666 1038 3163 
Q 1038 2656 1286 2365 
Q 1534 2075 1959 2075 
z
" transform="scale(0.015625)"/>
        <path id="DejaVuSans-38" d="M 2034 2216 
Q 1584 2216 1326 1975 
Q 1069 1734 1069 1313 
Q 1069 891 1326 650 
Q 1584 409 2034 409 
Q 2484 409 2743 651 
Q 3003 894 3003 1313 
Q 3003 1734 2745 1975 
Q 2488 2216 2034 2216 
z
M 1403 2484 
Q 997 2584 770 2862 
Q 544 3141 544 3541 
Q 544 4100 942 4425 
Q 1341 4750 2034 4750 
Q 2731 4750 3128 4425 
Q 3525 4100 3525 3541 
Q 3525 3141 3298 2862 
Q 3072 2584 2669 2484 
Q 3125 2378 3379 2068 
Q 3634 1759 3634 1313 
Q 3634 634 3220 271 
Q 2806 -91 2034 -91 
Q 1263 -91 848 271 
Q 434 634 434 1313 
Q 434 1759 690 2068 
Q 947 2378 1403 2484 
z
M 1172 3481 
Q 1172 3119 1398 2916 
Q 1625 2713 2034 2713 
Q 2441 2713 2670 2916 
Q 2900 3119 2900 3481 
Q 2900 3844 2670 4047 
Q 2441 4250 2034 4250 
Q 1625 4250 1398 4047 
Q 1172 3844 1172 3481 
z
" transform="scale(0.015625)"/>
        <path id="DejaVuSans-35" d="M 691 4666 
L 3169 4666 
L 3169 4134 
L 1269 4134 
L 1269 2991 
Q 1406 3038 1543 3061 
Q 1681 3084 1819 3084 
Q 2600 3084 3056 2656 
Q 3513 2228 3513 1497 
Q 3513 744 3044 326 
Q 2575 -91 1722 -91 
Q 1428 -91 1123 -41 
Q 819 9 494 109 
L 494 744 
Q 775 591 1075 516 
Q 1375 441 1709 441 
Q 2250 441 2565 725 
Q 2881 1009 2881 1497 
Q 2881 1984 2565 2268 
Q 2250 2553 1709 2553 
Q 1456 2553 1204 2497 
Q 953 2441 691 2322 
L 691 4666 
z
" transform="scale(0.015625)"/>
       </defs>
       <use xlink:href="#DejaVuSans-31"/>
       <use xlink:href="#DejaVuSans-39" x="63.623047"/>
       <use xlink:href="#DejaVuSans-38" x="127.246094"/>
       <use xlink:href="#DejaVuSans-35" x="190.869141"/>
      </g>
     </g>
    </g>
    <g id="xtick_2">
     <g id="line2d_2">
      <g>
       <use xlink:href="#mc29a086e25" x="131.696329" y="339.84" style="stroke: #000000; stroke-width: 0.8"/>
      </g>
     </g>
     <g id="text_2">
      <!-- 1990 -->
      <g transform="translate(118.971329 354.438438) scale(0.1 -0.1)">
       <defs>
        <path id="DejaVuSans-30" d="M 2034 4250 
Q 1547 4250 1301 3770 
Q 1056 3291 1056 2328 
Q 1056 1369 1301 889 
Q 1547 409 2034 409 
Q 2525 409 2770 889 
Q 3016 1369 3016 2328 
Q 3016 3291 2770 3770 
Q 2525 4250 2034 4250 
z
M 2034 4750 
Q 2819 4750 3233 4129 
Q 3647 3509 3647 2328 
Q 3647 1150 3233 529 
Q 2819 -91 2034 -91 
Q 1250 -91 836 529 
Q 422 1150 422 2328 
Q 422 3509 836 4129 
Q 1250 4750 2034 4750 
z
" transform="scale(0.015625)"/>
       </defs>
       <use xlink:href="#DejaVuSans-31"/>
       <use xlink:href="#DejaVuSans-39" x="63.623047"/>
       <use xlink:href="#DejaVuSans-39" x="127.246094"/>
       <use xlink:href="#DejaVuSans-30" x="190.869141"/>
      </g>
     </g>
    </g>
    <g id="xtick_3">
     <g id="line2d_3">
      <g>
       <use xlink:href="#mc29a086e25" x="190.227797" y="339.84" style="stroke: #000000; stroke-width: 0.8"/>
      </g>
     </g>
     <g id="text_3">
      <!-- 1995 -->
      <g transform="translate(177.502797 354.438438) scale(0.1 -0.1)">
       <use xlink:href="#DejaVuSans-31"/>
       <use xlink:href="#DejaVuSans-39" x="63.623047"/>
       <use xlink:href="#DejaVuSans-39" x="127.246094"/>
       <use xlink:href="#DejaVuSans-35" x="190.869141"/>
      </g>
     </g>
    </g>
    <g id="xtick_4">
     <g id="line2d_4">
      <g>
       <use xlink:href="#mc29a086e25" x="248.759266" y="339.84" style="stroke: #000000; stroke-width: 0.8"/>
      </g>
     </g>
     <g id="text_4">
      <!-- 2000 -->
      <g transform="translate(236.034266 354.438438) scale(0.1 -0.1)">
       <defs>
        <path id="DejaVuSans-32" d="M 1228 531 
L 3431 531 
L 3431 0 
L 469 0 
L 469 531 
Q 828 903 1448 1529 
Q 2069 2156 2228 2338 
Q 2531 2678 2651 2914 
Q 2772 3150 2772 3378 
Q 2772 3750 2511 3984 
Q 2250 4219 1831 4219 
Q 1534 4219 1204 4116 
Q 875 4013 500 3803 
L 500 4441 
Q 881 4594 1212 4672 
Q 1544 4750 1819 4750 
Q 2544 4750 2975 4387 
Q 3406 4025 3406 3419 
Q 3406 3131 3298 2873 
Q 3191 2616 2906 2266 
Q 2828 2175 2409 1742 
Q 1991 1309 1228 531 
z
" transform="scale(0.015625)"/>
       </defs>
       <use xlink:href="#DejaVuSans-32"/>
       <use xlink:href="#DejaVuSans-30" x="63.623047"/>
       <use xlink:href="#DejaVuSans-30" x="127.246094"/>
       <use xlink:href="#DejaVuSans-30" x="190.869141"/>
      </g>
     </g>
    </g>
    <g id="xtick_5">
     <g id="line2d_5">
      <g>
       <use xlink:href="#mc29a086e25" x="307.290734" y="339.84" style="stroke: #000000; stroke-width: 0.8"/>
      </g>
     </g>
     <g id="text_5">
      <!-- 2005 -->
      <g transform="translate(294.565734 354.438438) scale(0.1 -0.1)">
       <use xlink:href="#DejaVuSans-32"/>
       <use xlink:href="#DejaVuSans-30" x="63.623047"/>
       <use xlink:href="#DejaVuSans-30" x="127.246094"/>
       <use xlink:href="#DejaVuSans-35" x="190.869141"/>
      </g>
     </g>
    </g>
    <g id="xtick_6">
     <g id="line2d_6">
      <g>
       <use xlink:href="#mc29a086e25" x="365.822203" y="339.84" style="stroke: #000000; stroke-width: 0.8"/>
      </g>
     </g>
     <g id="text_6">
      <!-- 2010 -->
      <g transform="translate(353.097203 354.438438) scale(0.1 -0.1)">
       <use xlink:href="#DejaVuSans-32"/>
       <use xlink:href="#DejaVuSans-30" x="63.623047"/>
       <use xlink:href="#DejaVuSans-31" x="127.246094"/>
       <use xlink:href="#DejaVuSans-30" x="190.869141"/>
      </g>
     </g>
    </g>
    <g id="xtick_7">
     <g id="line2d_7">
      <g>
       <use xlink:href="#mc29a086e25" x="424.353671" y="339.84" style="stroke: #000000; stroke-width: 0.8"/>
      </g>
     </g>
     <g id="text_7">
      <!-- 2015 -->
      <g transform="translate(411.628671 354.438438) scale(0.1 -0.1)">
       <use xlink:href="#DejaVuSans-32"/>
       <use xlink:href="#DejaVuSans-30" x="63.623047"/>
       <use xlink:href="#DejaVuSans-31" x="127.246094"/>
       <use xlink:href="#DejaVuSans-35" x="190.869141"/>
      </g>
     </g>
    </g>
    <g id="xtick_8">
     <g id="line2d_8">
      <g>
       <use xlink:href="#mc29a086e25" x="482.88514" y="339.84" style="stroke: #000000; stroke-width: 0.8"/>
      </g>
     </g>
     <g id="text_8">
      <!-- 2020 -->
      <g transform="translate(470.16014 354.438438) scale(0.1 -0.1)">
       <use xlink:href="#DejaVuSans-32"/>
       <use xlink:href="#DejaVuSans-30" x="63.623047"/>
       <use xlink:href="#DejaVuSans-32" x="127.246094"/>
       <use xlink:href="#DejaVuSans-30" x="190.869141"/>
      </g>
     </g>
    </g>
   </g>
   <g id="matplotlib.axis_2">
    <g id="ytick_1">
     <g id="line2d_9">
      <defs>
       <path id="m60c7ffee27" d="M 0 0 
L -3.5 0 
" style="stroke: #000000; stroke-width: 0.8"/>
      </defs>
      <g>
       <use xlink:href="#m60c7ffee27" x="26.925" y="324.72" style="stroke: #000000; stroke-width: 0.8"/>
      </g>
     </g>
     <g id="text_9">
      <!-- 0 -->
      <g transform="translate(13.5625 328.519219) scale(0.1 -0.1)">
       <use xlink:href="#DejaVuSans-30"/>
      </g>
     </g>
    </g>
    <g id="ytick_2">
     <g id="line2d_10">
      <g>
       <use xlink:href="#m60c7ffee27" x="26.925" y="265.391617" style="stroke: #000000; stroke-width: 0.8"/>
      </g>
     </g>
     <g id="text_10">
      <!-- 10 -->
      <g transform="translate(7.2 269.190835) scale(0.1 -0.1)">
       <use xlink:href="#DejaVuSans-31"/>
       <use xlink:href="#DejaVuSans-30" x="63.623047"/>
      </g>
     </g>
    </g>
    <g id="ytick_3">
     <g id="line2d_11">
      <g>
       <use xlink:href="#m60c7ffee27" x="26.925" y="206.063233" style="stroke: #000000; stroke-width: 0.8"/>
      </g>
     </g>
     <g id="text_11">
      <!-- 20 -->
      <g transform="translate(7.2 209.862452) scale(0.1 -0.1)">
       <use xlink:href="#DejaVuSans-32"/>
       <use xlink:href="#DejaVuSans-30" x="63.623047"/>
      </g>
     </g>
    </g>
    <g id="ytick_4">
     <g id="line2d_12">
      <g>
       <use xlink:href="#m60c7ffee27" x="26.925" y="146.73485" style="stroke: #000000; stroke-width: 0.8"/>
      </g>
     </g>
     <g id="text_12">
      <!-- 30 -->
      <g transform="translate(7.2 150.534068) scale(0.1 -0.1)">
       <defs>
        <path id="DejaVuSans-33" d="M 2597 2516 
Q 3050 2419 3304 2112 
Q 3559 1806 3559 1356 
Q 3559 666 3084 287 
Q 2609 -91 1734 -91 
Q 1441 -91 1130 -33 
Q 819 25 488 141 
L 488 750 
Q 750 597 1062 519 
Q 1375 441 1716 441 
Q 2309 441 2620 675 
Q 2931 909 2931 1356 
Q 2931 1769 2642 2001 
Q 2353 2234 1838 2234 
L 1294 2234 
L 1294 2753 
L 1863 2753 
Q 2328 2753 2575 2939 
Q 2822 3125 2822 3475 
Q 2822 3834 2567 4026 
Q 2313 4219 1838 4219 
Q 1578 4219 1281 4162 
Q 984 4106 628 3988 
L 628 4550 
Q 988 4650 1302 4700 
Q 1616 4750 1894 4750 
Q 2613 4750 3031 4423 
Q 3450 4097 3450 3541 
Q 3450 3153 3228 2886 
Q 3006 2619 2597 2516 
z
" transform="scale(0.015625)"/>
       </defs>
       <use xlink:href="#DejaVuSans-33"/>
       <use xlink:href="#DejaVuSans-30" x="63.623047"/>
      </g>
     </g>
    </g>
    <g id="ytick_5">
     <g id="line2d_13">
      <g>
       <use xlink:href="#m60c7ffee27" x="26.925" y="87.406466" style="stroke: #000000; stroke-width: 0.8"/>
      </g>
     </g>
     <g id="text_13">
      <!-- 40 -->
      <g transform="translate(7.2 91.205685) scale(0.1 -0.1)">
       <defs>
        <path id="DejaVuSans-34" d="M 2419 4116 
L 825 1625 
L 2419 1625 
L 2419 4116 
z
M 2253 4666 
L 3047 4666 
L 3047 1625 
L 3713 1625 
L 3713 1100 
L 3047 1100 
L 3047 0 
L 2419 0 
L 2419 1100 
L 313 1100 
L 313 1709 
L 2253 4666 
z
" transform="scale(0.015625)"/>
       </defs>
       <use xlink:href="#DejaVuSans-34"/>
       <use xlink:href="#DejaVuSans-30" x="63.623047"/>
      </g>
     </g>
    </g>
    <g id="ytick_6">
     <g id="line2d_14">
      <g>
       <use xlink:href="#m60c7ffee27" x="26.925" y="28.078083" style="stroke: #000000; stroke-width: 0.8"/>
      </g>
     </g>
     <g id="text_14">
      <!-- 50 -->
      <g transform="translate(7.2 31.877301) scale(0.1 -0.1)">
       <use xlink:href="#DejaVuSans-35"/>
       <use xlink:href="#DejaVuSans-30" x="63.623047"/>
      </g>
     </g>
    </g>
   </g>
   <g id="line2d_15">
    <path d="M 49.752273 324.650679 
L 61.458566 324.690296 
L 73.16486 324.72 
L 84.871154 324.72 
L 96.577448 324.688163 
L 108.283741 324.690009 
L 119.990035 324.68801 
L 131.696329 324.72 
L 143.402622 324.660627 
L 155.108916 324.607128 
L 166.81521 324.662656 
L 178.521503 324.632076 
L 190.227797 324.604536 
L 201.934091 324.511674 
L 213.640385 324.636439 
L 225.346678 324.657454 
L 237.052972 324.554901 
L 248.759266 324.368187 
L 260.465559 324.622629 
L 272.171853 324.565956 
L 283.878147 324.523233 
L 295.584441 324.490439 
L 307.290734 324.283808 
L 318.997028 324.449793 
L 330.703322 324.480929 
L 342.409615 324.312625 
L 354.115909 324.370377 
L 365.822203 324.368077 
L 377.528497 324.252438 
L 389.23479 324.48919 
L 400.941084 324.439885 
L 412.647378 324.356707 
L 424.353671 324.062082 
L 436.059965 324.342747 
L 447.766259 324.425526 
L 459.472552 324.469411 
L 471.178846 324.332213 
L 482.88514 324.408183 
L 494.591434 324.290493 
L 506.297727 324.288595 
" clip-path="url(#pc4c7c5cccd)" style="fill: none; stroke: #1f77b4; stroke-width: 1.5; stroke-linecap: square"/>
   </g>
   <g id="line2d_16">
    <path d="M 49.752273 324.269413 
L 61.458566 324.51207 
L 73.16486 324.335063 
L 84.871154 324.295537 
L 96.577448 324.115096 
L 108.283741 324.090187 
L 119.990035 324.304132 
L 131.696329 324.070791 
L 143.402622 324.30439 
L 155.108916 324.212076 
L 166.81521 323.945852 
L 178.521503 324.075222 
L 190.227797 324.200411 
L 201.934091 323.73789 
L 213.640385 324.107219 
L 225.346678 323.813077 
L 237.052972 323.922021 
L 248.759266 323.824477 
L 260.465559 323.616458 
L 272.171853 323.764929 
L 283.878147 323.867345 
L 295.584441 323.801756 
L 307.290734 323.504893 
L 318.997028 323.489058 
L 330.703322 323.644182 
L 342.409615 323.847053 
L 354.115909 323.160142 
L 365.822203 323.048365 
L 377.528497 323.213412 
L 389.23479 323.412078 
L 400.941084 323.403459 
L 412.647378 323.059231 
L 424.353671 323.140998 
L 436.059965 323.184042 
L 447.766259 323.408254 
L 459.472552 323.160778 
L 471.178846 323.079364 
L 482.88514 323.160915 
L 494.591434 323.458322 
L 506.297727 323.121263 
" clip-path="url(#pc4c7c5cccd)" style="fill: none; stroke: #ff7f0e; stroke-width: 1.5; stroke-linecap: square"/>
   </g>
   <g id="line2d_17">
    <path d="M 49.752273 322.085802 
L 61.458566 322.076318 
L 73.16486 322.217911 
L 84.871154 321.748757 
L 96.577448 321.504456 
L 108.283741 321.271024 
L 119.990035 321.712954 
L 131.696329 320.824749 
L 143.402622 321.246685 
L 155.108916 320.317989 
L 166.81521 320.390507 
L 178.521503 320.528942 
L 190.227797 320.505557 
L 201.934091 320.434428 
L 213.640385 319.650626 
L 225.346678 319.778835 
L 237.052972 320.317356 
L 248.759266 319.538761 
L 260.465559 319.948802 
L 272.171853 320.714864 
L 283.878147 319.997604 
L 295.584441 319.341715 
L 307.290734 318.924874 
L 318.997028 318.865522 
L 330.703322 318.683465 
L 342.409615 319.395024 
L 354.115909 318.023369 
L 365.822203 318.180094 
L 377.528497 317.239013 
L 389.23479 317.128921 
L 400.941084 317.296949 
L 412.647378 317.402236 
L 424.353671 318.32504 
L 436.059965 317.552198 
L 447.766259 317.384932 
L 459.472552 317.5086 
L 471.178846 317.411712 
L 482.88514 318.449013 
L 494.591434 319.109561 
L 506.297727 317.563747 
" clip-path="url(#pc4c7c5cccd)" style="fill: none; stroke: #2ca02c; stroke-width: 1.5; stroke-linecap: square"/>
   </g>
   <g id="line2d_18">
    <path d="M 49.752273 299.20987 
L 61.458566 298.045545 
L 73.16486 298.35183 
L 84.871154 295.972263 
L 96.577448 295.270708 
L 108.283741 295.95854 
L 119.990035 291.83443 
L 131.696329 292.69238 
L 143.402622 291.411796 
L 155.108916 291.817791 
L 166.81521 291.861732 
L 178.521503 291.924238 
L 190.227797 290.686932 
L 201.934091 288.828337 
L 213.640385 288.90014 
L 225.346678 287.06707 
L 237.052972 290.461924 
L 248.759266 289.538748 
L 260.465559 287.394303 
L 272.171853 290.152598 
L 283.878147 289.367616 
L 295.584441 285.727436 
L 307.290734 289.326111 
L 318.997028 286.770971 
L 330.703322 286.438804 
L 342.409615 284.797227 
L 354.115909 286.126967 
L 365.822203 283.04643 
L 377.528497 284.405792 
L 389.23479 281.891955 
L 400.941084 281.162098 
L 412.647378 281.851396 
L 424.353671 282.692219 
L 436.059965 282.791052 
L 447.766259 281.191459 
L 459.472552 280.644145 
L 471.178846 279.766572 
L 482.88514 279.645119 
L 494.591434 280.641811 
L 506.297727 280.259874 
" clip-path="url(#pc4c7c5cccd)" style="fill: none; stroke: #d62728; stroke-width: 1.5; stroke-linecap: square"/>
   </g>
   <g id="line2d_19">
    <path d="M 49.752273 74.575148 
L 61.458566 74.193997 
L 73.16486 69.410671 
L 84.871154 75.482908 
L 96.577448 73.270806 
L 108.283741 71.655143 
L 119.990035 74.175462 
L 131.696329 79.164609 
L 143.402622 75.324078 
L 155.108916 88.450533 
L 166.81521 85.680403 
L 178.521503 88.320879 
L 190.227797 81.841092 
L 201.934091 84.192287 
L 213.640385 70.332147 
L 225.346678 82.446537 
L 237.052972 70.192127 
L 248.759266 75.380875 
L 260.465559 82.265257 
L 272.171853 73.351521 
L 283.878147 70.923991 
L 295.584441 84.140142 
L 307.290734 94.254685 
L 318.997028 85.106707 
L 330.703322 84.961968 
L 342.409615 77.937902 
L 354.115909 79.418918 
L 365.822203 81.130503 
L 377.528497 77.224011 
L 389.23479 79.62561 
L 400.941084 74.241055 
L 412.647378 68.053315 
L 424.353671 65.97414 
L 436.059965 60.858651 
L 447.766259 48.637688 
L 459.472552 52.385234 
L 471.178846 51.777816 
L 482.88514 34.938057 
L 494.591434 22.32 
L 506.297727 22.355618 
" clip-path="url(#pc4c7c5cccd)" style="fill: none; stroke: #9467bd; stroke-width: 1.5; stroke-linecap: square"/>
   </g>
   <g id="line2d_20">
    <path d="M 49.752273 82.096477 
L 61.458566 79.629882 
L 73.16486 82.402288 
L 84.871154 86.248839 
L 96.577448 86.897073 
L 108.283741 87.790352 
L 119.990035 95.576675 
L 131.696329 94.745614 
L 143.402622 99.429481 
L 155.108916 93.727302 
L 166.81521 100.475226 
L 178.521503 104.440333 
L 190.227797 113.074154 
L 201.934091 112.554439 
L 213.640385 118.101245 
L 225.346678 119.505276 
L 237.052972 120.684954 
L 248.759266 127.033349 
L 260.465559 125.660437 
L 272.171853 126.003651 
L 283.878147 131.003367 
L 295.584441 134.315603 
L 307.290734 140.989574 
L 318.997028 143.74156 
L 330.703322 141.950447 
L 342.409615 147.628165 
L 354.115909 147.32652 
L 365.822203 150.430043 
L 377.528497 150.13766 
L 389.23479 148.176129 
L 400.941084 151.272715 
L 412.647378 146.161365 
L 424.353671 144.240026 
L 436.059965 147.276477 
L 447.766259 151.301866 
L 459.472552 146.022062 
L 471.178846 148.038409 
L 482.88514 146.499254 
L 494.591434 147.950892 
L 506.297727 155.253836 
" clip-path="url(#pc4c7c5cccd)" style="fill: none; stroke: #8c564b; stroke-width: 1.5; stroke-linecap: square"/>
   </g>
   <g id="line2d_21">
    <path d="M 49.752273 267.287546 
L 61.458566 269.321494 
L 73.16486 270.860927 
L 84.871154 265.217972 
L 96.577448 268.591242 
L 108.283741 269.206484 
L 119.990035 263.875297 
L 131.696329 262.550556 
L 143.402622 260.597254 
L 155.108916 257.702207 
L 166.81521 255.276087 
L 178.521503 252.915159 
L 190.227797 252.208493 
L 201.934091 254.186632 
L 213.640385 260.37795 
L 225.346678 256.919707 
L 237.052972 261.954802 
L 248.759266 256.948116 
L 260.465559 257.241632 
L 272.171853 259.282244 
L 283.878147 260.606911 
L 295.584441 256.605992 
L 307.290734 254.898076 
L 318.997028 255.577109 
L 330.703322 258.885905 
L 342.409615 257.183006 
L 354.115909 260.201055 
L 365.822203 258.969018 
L 377.528497 261.495269 
L 389.23479 259.45211 
L 400.941084 261.498016 
L 412.647378 266.100038 
L 424.353671 266.665345 
L 436.059965 266.865597 
L 447.766259 271.125819 
L 459.472552 272.569605 
L 471.178846 272.81624 
L 482.88514 279.471887 
L 494.591434 282.923569 
L 506.297727 283.381219 
" clip-path="url(#pc4c7c5cccd)" style="fill: none; stroke: #e377c2; stroke-width: 1.5; stroke-linecap: square"/>
   </g>
   <g id="line2d_22">
    <path d="M 49.752273 314.183207 
L 61.458566 315.363148 
L 73.16486 315.289049 
L 84.871154 314.378532 
L 96.577448 313.799884 
L 108.283741 313.383366 
L 119.990035 313.011713 
L 131.696329 310.437413 
L 143.402622 312.222002 
L 155.108916 309.171872 
L 166.81521 308.978997 
L 178.521503 305.376655 
L 190.227797 305.610678 
L 201.934091 304.065925 
L 213.640385 305.500946 
L 225.346678 301.609107 
L 237.052972 303.367175 
L 248.759266 300.317005 
L 260.465559 298.624469 
L 272.171853 301.028082 
L 283.878147 300.583308 
L 295.584441 296.484005 
L 307.290734 290.323122 
L 318.997028 291.484576 
L 330.703322 292.206384 
L 342.409615 295.214394 
L 354.115909 293.334586 
L 365.822203 294.337298 
L 377.528497 294.224587 
L 389.23479 296.535556 
L 400.941084 294.803705 
L 412.647378 298.043895 
L 424.353671 299.350695 
L 436.059965 301.222543 
L 447.766259 303.678528 
L 459.472552 303.308546 
L 471.178846 303.749688 
L 482.88514 308.74804 
L 494.591434 311.83478 
L 506.297727 308.78338 
" clip-path="url(#pc4c7c5cccd)" style="fill: none; stroke: #7f7f7f; stroke-width: 1.5; stroke-linecap: square"/>
   </g>
   <g id="line2d_23">
    <path d="M 49.752273 322.397746 
L 61.458566 322.670404 
L 73.16486 322.410379 
L 84.871154 322.366158 
L 96.577448 322.33222 
L 108.283741 322.110775 
L 119.990035 321.489025 
L 131.696329 321.504872 
L 143.402622 321.810727 
L 155.108916 321.051658 
L 166.81521 319.645032 
L 178.521503 319.268694 
L 190.227797 319.091121 
L 201.934091 318.797578 
L 213.640385 319.650626 
L 225.346678 317.214433 
L 237.052972 316.767724 
L 248.759266 316.340466 
L 260.465559 315.242519 
L 272.171853 314.768778 
L 283.878147 314.291375 
L 295.584441 312.258121 
L 307.290734 305.496382 
L 318.997028 310.278953 
L 330.703322 308.91145 
L 342.409615 309.472527 
L 354.115909 308.798693 
L 365.822203 308.883457 
L 377.528497 309.576196 
L 389.23479 309.871235 
L 400.941084 311.330497 
L 412.647378 312.056635 
L 424.353671 313.61435 
L 436.059965 312.998218 
L 447.766259 315.082685 
L 459.472552 315.559573 
L 471.178846 314.398908 
L 482.88514 318.241135 
L 494.591434 319.404847 
L 506.297727 318.147413 
" clip-path="url(#pc4c7c5cccd)" style="fill: none; stroke: #bcbd22; stroke-width: 1.5; stroke-linecap: square"/>
   </g>
   <g id="patch_3">
    <path d="M 26.925 339.84 
L 26.925 7.2 
" style="fill: none; stroke: #000000; stroke-width: 0.8; stroke-linejoin: miter; stroke-linecap: square"/>
   </g>
   <g id="patch_4">
    <path d="M 529.125 339.84 
L 529.125 7.2 
" style="fill: none; stroke: #000000; stroke-width: 0.8; stroke-linejoin: miter; stroke-linecap: square"/>
   </g>
   <g id="patch_5">
    <path d="M 26.925 339.84 
L 529.125 339.84 
" style="fill: none; stroke: #000000; stroke-width: 0.8; stroke-linejoin: miter; stroke-linecap: square"/>
   </g>
   <g id="patch_6">
    <path d="M 26.925 7.2 
L 529.125 7.2 
" style="fill: none; stroke: #000000; stroke-width: 0.8; stroke-linejoin: miter; stroke-linecap: square"/>
   </g>
   <g id="legend_1">
    <g id="patch_7">
     <path d="M 33.925 241.071563 
L 155.182813 241.071563 
Q 157.182813 241.071563 157.182813 239.071563 
L 157.182813 107.968438 
Q 157.182813 105.968438 155.182813 105.968438 
L 33.925 105.968438 
Q 31.925 105.968438 31.925 107.968438 
L 31.925 239.071563 
Q 31.925 241.071563 33.925 241.071563 
z
" style="fill: #ffffff; opacity: 0.8; stroke: #cccccc; stroke-linejoin: miter"/>
    </g>
    <g id="line2d_24">
     <path d="M 35.925 114.066875 
L 45.925 114.066875 
L 55.925 114.066875 
" style="fill: none; stroke: #1f77b4; stroke-width: 1.5; stroke-linecap: square"/>
    </g>
    <g id="text_15">
     <!-- Bride 20 Older -->
     <g transform="translate(63.925 117.566875) scale(0.1 -0.1)">
      <defs>
       <path id="DejaVuSans-42" d="M 1259 2228 
L 1259 519 
L 2272 519 
Q 2781 519 3026 730 
Q 3272 941 3272 1375 
Q 3272 1813 3026 2020 
Q 2781 2228 2272 2228 
L 1259 2228 
z
M 1259 4147 
L 1259 2741 
L 2194 2741 
Q 2656 2741 2882 2914 
Q 3109 3088 3109 3444 
Q 3109 3797 2882 3972 
Q 2656 4147 2194 4147 
L 1259 4147 
z
M 628 4666 
L 2241 4666 
Q 2963 4666 3353 4366 
Q 3744 4066 3744 3513 
Q 3744 3084 3544 2831 
Q 3344 2578 2956 2516 
Q 3422 2416 3680 2098 
Q 3938 1781 3938 1306 
Q 3938 681 3513 340 
Q 3088 0 2303 0 
L 628 0 
L 628 4666 
z
" transform="scale(0.015625)"/>
       <path id="DejaVuSans-72" d="M 2631 2963 
Q 2534 3019 2420 3045 
Q 2306 3072 2169 3072 
Q 1681 3072 1420 2755 
Q 1159 2438 1159 1844 
L 1159 0 
L 581 0 
L 581 3500 
L 1159 3500 
L 1159 2956 
Q 1341 3275 1631 3429 
Q 1922 3584 2338 3584 
Q 2397 3584 2469 3576 
Q 2541 3569 2628 3553 
L 2631 2963 
z
" transform="scale(0.015625)"/>
       <path id="DejaVuSans-69" d="M 603 3500 
L 1178 3500 
L 1178 0 
L 603 0 
L 603 3500 
z
M 603 4863 
L 1178 4863 
L 1178 4134 
L 603 4134 
L 603 4863 
z
" transform="scale(0.015625)"/>
       <path id="DejaVuSans-64" d="M 2906 2969 
L 2906 4863 
L 3481 4863 
L 3481 0 
L 2906 0 
L 2906 525 
Q 2725 213 2448 61 
Q 2172 -91 1784 -91 
Q 1150 -91 751 415 
Q 353 922 353 1747 
Q 353 2572 751 3078 
Q 1150 3584 1784 3584 
Q 2172 3584 2448 3432 
Q 2725 3281 2906 2969 
z
M 947 1747 
Q 947 1113 1208 752 
Q 1469 391 1925 391 
Q 2381 391 2643 752 
Q 2906 1113 2906 1747 
Q 2906 2381 2643 2742 
Q 2381 3103 1925 3103 
Q 1469 3103 1208 2742 
Q 947 2381 947 1747 
z
" transform="scale(0.015625)"/>
       <path id="DejaVuSans-65" d="M 3597 1894 
L 3597 1613 
L 953 1613 
Q 991 1019 1311 708 
Q 1631 397 2203 397 
Q 2534 397 2845 478 
Q 3156 559 3463 722 
L 3463 178 
Q 3153 47 2828 -22 
Q 2503 -91 2169 -91 
Q 1331 -91 842 396 
Q 353 884 353 1716 
Q 353 2575 817 3079 
Q 1281 3584 2069 3584 
Q 2775 3584 3186 3129 
Q 3597 2675 3597 1894 
z
M 3022 2063 
Q 3016 2534 2758 2815 
Q 2500 3097 2075 3097 
Q 1594 3097 1305 2825 
Q 1016 2553 972 2059 
L 3022 2063 
z
" transform="scale(0.015625)"/>
       <path id="DejaVuSans-20" transform="scale(0.015625)"/>
       <path id="DejaVuSans-4f" d="M 2522 4238 
Q 1834 4238 1429 3725 
Q 1025 3213 1025 2328 
Q 1025 1447 1429 934 
Q 1834 422 2522 422 
Q 3209 422 3611 934 
Q 4013 1447 4013 2328 
Q 4013 3213 3611 3725 
Q 3209 4238 2522 4238 
z
M 2522 4750 
Q 3503 4750 4090 4092 
Q 4678 3434 4678 2328 
Q 4678 1225 4090 567 
Q 3503 -91 2522 -91 
Q 1538 -91 948 565 
Q 359 1222 359 2328 
Q 359 3434 948 4092 
Q 1538 4750 2522 4750 
z
" transform="scale(0.015625)"/>
       <path id="DejaVuSans-6c" d="M 603 4863 
L 1178 4863 
L 1178 0 
L 603 0 
L 603 4863 
z
" transform="scale(0.015625)"/>
      </defs>
      <use xlink:href="#DejaVuSans-42"/>
      <use xlink:href="#DejaVuSans-72" x="68.603516"/>
      <use xlink:href="#DejaVuSans-69" x="109.716797"/>
      <use xlink:href="#DejaVuSans-64" x="137.5"/>
      <use xlink:href="#DejaVuSans-65" x="200.976562"/>
      <use xlink:href="#DejaVuSans-20" x="262.5"/>
      <use xlink:href="#DejaVuSans-32" x="294.287109"/>
      <use xlink:href="#DejaVuSans-30" x="357.910156"/>
      <use xlink:href="#DejaVuSans-20" x="421.533203"/>
      <use xlink:href="#DejaVuSans-4f" x="453.320312"/>
      <use xlink:href="#DejaVuSans-6c" x="532.03125"/>
      <use xlink:href="#DejaVuSans-64" x="559.814453"/>
      <use xlink:href="#DejaVuSans-65" x="623.291016"/>
      <use xlink:href="#DejaVuSans-72" x="684.814453"/>
     </g>
    </g>
    <g id="line2d_25">
     <path d="M 35.925 128.745 
L 45.925 128.745 
L 55.925 128.745 
" style="fill: none; stroke: #ff7f0e; stroke-width: 1.5; stroke-linecap: square"/>
    </g>
    <g id="text_16">
     <!-- Bride 15 Older -->
     <g transform="translate(63.925 132.245) scale(0.1 -0.1)">
      <use xlink:href="#DejaVuSans-42"/>
      <use xlink:href="#DejaVuSans-72" x="68.603516"/>
      <use xlink:href="#DejaVuSans-69" x="109.716797"/>
      <use xlink:href="#DejaVuSans-64" x="137.5"/>
      <use xlink:href="#DejaVuSans-65" x="200.976562"/>
      <use xlink:href="#DejaVuSans-20" x="262.5"/>
      <use xlink:href="#DejaVuSans-31" x="294.287109"/>
      <use xlink:href="#DejaVuSans-35" x="357.910156"/>
      <use xlink:href="#DejaVuSans-20" x="421.533203"/>
      <use xlink:href="#DejaVuSans-4f" x="453.320312"/>
      <use xlink:href="#DejaVuSans-6c" x="532.03125"/>
      <use xlink:href="#DejaVuSans-64" x="559.814453"/>
      <use xlink:href="#DejaVuSans-65" x="623.291016"/>
      <use xlink:href="#DejaVuSans-72" x="684.814453"/>
     </g>
    </g>
    <g id="line2d_26">
     <path d="M 35.925 143.423125 
L 45.925 143.423125 
L 55.925 143.423125 
" style="fill: none; stroke: #2ca02c; stroke-width: 1.5; stroke-linecap: square"/>
    </g>
    <g id="text_17">
     <!-- Bride 10 Older -->
     <g transform="translate(63.925 146.923125) scale(0.1 -0.1)">
      <use xlink:href="#DejaVuSans-42"/>
      <use xlink:href="#DejaVuSans-72" x="68.603516"/>
      <use xlink:href="#DejaVuSans-69" x="109.716797"/>
      <use xlink:href="#DejaVuSans-64" x="137.5"/>
      <use xlink:href="#DejaVuSans-65" x="200.976562"/>
      <use xlink:href="#DejaVuSans-20" x="262.5"/>
      <use xlink:href="#DejaVuSans-31" x="294.287109"/>
      <use xlink:href="#DejaVuSans-30" x="357.910156"/>
      <use xlink:href="#DejaVuSans-20" x="421.533203"/>
      <use xlink:href="#DejaVuSans-4f" x="453.320312"/>
      <use xlink:href="#DejaVuSans-6c" x="532.03125"/>
      <use xlink:href="#DejaVuSans-64" x="559.814453"/>
      <use xlink:href="#DejaVuSans-65" x="623.291016"/>
      <use xlink:href="#DejaVuSans-72" x="684.814453"/>
     </g>
    </g>
    <g id="line2d_27">
     <path d="M 35.925 158.10125 
L 45.925 158.10125 
L 55.925 158.10125 
" style="fill: none; stroke: #d62728; stroke-width: 1.5; stroke-linecap: square"/>
    </g>
    <g id="text_18">
     <!-- Bride 5 Older -->
     <g transform="translate(63.925 161.60125) scale(0.1 -0.1)">
      <use xlink:href="#DejaVuSans-42"/>
      <use xlink:href="#DejaVuSans-72" x="68.603516"/>
      <use xlink:href="#DejaVuSans-69" x="109.716797"/>
      <use xlink:href="#DejaVuSans-64" x="137.5"/>
      <use xlink:href="#DejaVuSans-65" x="200.976562"/>
      <use xlink:href="#DejaVuSans-20" x="262.5"/>
      <use xlink:href="#DejaVuSans-35" x="294.287109"/>
      <use xlink:href="#DejaVuSans-20" x="357.910156"/>
      <use xlink:href="#DejaVuSans-4f" x="389.697266"/>
      <use xlink:href="#DejaVuSans-6c" x="468.408203"/>
      <use xlink:href="#DejaVuSans-64" x="496.191406"/>
      <use xlink:href="#DejaVuSans-65" x="559.667969"/>
      <use xlink:href="#DejaVuSans-72" x="621.191406"/>
     </g>
    </g>
    <g id="line2d_28">
     <path d="M 35.925 172.779375 
L 45.925 172.779375 
L 55.925 172.779375 
" style="fill: none; stroke: #9467bd; stroke-width: 1.5; stroke-linecap: square"/>
    </g>
    <g id="text_19">
     <!-- Equal Age Groups -->
     <g transform="translate(63.925 176.279375) scale(0.1 -0.1)">
      <defs>
       <path id="DejaVuSans-45" d="M 628 4666 
L 3578 4666 
L 3578 4134 
L 1259 4134 
L 1259 2753 
L 3481 2753 
L 3481 2222 
L 1259 2222 
L 1259 531 
L 3634 531 
L 3634 0 
L 628 0 
L 628 4666 
z
" transform="scale(0.015625)"/>
       <path id="DejaVuSans-71" d="M 947 1747 
Q 947 1113 1208 752 
Q 1469 391 1925 391 
Q 2381 391 2643 752 
Q 2906 1113 2906 1747 
Q 2906 2381 2643 2742 
Q 2381 3103 1925 3103 
Q 1469 3103 1208 2742 
Q 947 2381 947 1747 
z
M 2906 525 
Q 2725 213 2448 61 
Q 2172 -91 1784 -91 
Q 1150 -91 751 415 
Q 353 922 353 1747 
Q 353 2572 751 3078 
Q 1150 3584 1784 3584 
Q 2172 3584 2448 3432 
Q 2725 3281 2906 2969 
L 2906 3500 
L 3481 3500 
L 3481 -1331 
L 2906 -1331 
L 2906 525 
z
" transform="scale(0.015625)"/>
       <path id="DejaVuSans-75" d="M 544 1381 
L 544 3500 
L 1119 3500 
L 1119 1403 
Q 1119 906 1312 657 
Q 1506 409 1894 409 
Q 2359 409 2629 706 
Q 2900 1003 2900 1516 
L 2900 3500 
L 3475 3500 
L 3475 0 
L 2900 0 
L 2900 538 
Q 2691 219 2414 64 
Q 2138 -91 1772 -91 
Q 1169 -91 856 284 
Q 544 659 544 1381 
z
M 1991 3584 
L 1991 3584 
z
" transform="scale(0.015625)"/>
       <path id="DejaVuSans-61" d="M 2194 1759 
Q 1497 1759 1228 1600 
Q 959 1441 959 1056 
Q 959 750 1161 570 
Q 1363 391 1709 391 
Q 2188 391 2477 730 
Q 2766 1069 2766 1631 
L 2766 1759 
L 2194 1759 
z
M 3341 1997 
L 3341 0 
L 2766 0 
L 2766 531 
Q 2569 213 2275 61 
Q 1981 -91 1556 -91 
Q 1019 -91 701 211 
Q 384 513 384 1019 
Q 384 1609 779 1909 
Q 1175 2209 1959 2209 
L 2766 2209 
L 2766 2266 
Q 2766 2663 2505 2880 
Q 2244 3097 1772 3097 
Q 1472 3097 1187 3025 
Q 903 2953 641 2809 
L 641 3341 
Q 956 3463 1253 3523 
Q 1550 3584 1831 3584 
Q 2591 3584 2966 3190 
Q 3341 2797 3341 1997 
z
" transform="scale(0.015625)"/>
       <path id="DejaVuSans-41" d="M 2188 4044 
L 1331 1722 
L 3047 1722 
L 2188 4044 
z
M 1831 4666 
L 2547 4666 
L 4325 0 
L 3669 0 
L 3244 1197 
L 1141 1197 
L 716 0 
L 50 0 
L 1831 4666 
z
" transform="scale(0.015625)"/>
       <path id="DejaVuSans-67" d="M 2906 1791 
Q 2906 2416 2648 2759 
Q 2391 3103 1925 3103 
Q 1463 3103 1205 2759 
Q 947 2416 947 1791 
Q 947 1169 1205 825 
Q 1463 481 1925 481 
Q 2391 481 2648 825 
Q 2906 1169 2906 1791 
z
M 3481 434 
Q 3481 -459 3084 -895 
Q 2688 -1331 1869 -1331 
Q 1566 -1331 1297 -1286 
Q 1028 -1241 775 -1147 
L 775 -588 
Q 1028 -725 1275 -790 
Q 1522 -856 1778 -856 
Q 2344 -856 2625 -561 
Q 2906 -266 2906 331 
L 2906 616 
Q 2728 306 2450 153 
Q 2172 0 1784 0 
Q 1141 0 747 490 
Q 353 981 353 1791 
Q 353 2603 747 3093 
Q 1141 3584 1784 3584 
Q 2172 3584 2450 3431 
Q 2728 3278 2906 2969 
L 2906 3500 
L 3481 3500 
L 3481 434 
z
" transform="scale(0.015625)"/>
       <path id="DejaVuSans-47" d="M 3809 666 
L 3809 1919 
L 2778 1919 
L 2778 2438 
L 4434 2438 
L 4434 434 
Q 4069 175 3628 42 
Q 3188 -91 2688 -91 
Q 1594 -91 976 548 
Q 359 1188 359 2328 
Q 359 3472 976 4111 
Q 1594 4750 2688 4750 
Q 3144 4750 3555 4637 
Q 3966 4525 4313 4306 
L 4313 3634 
Q 3963 3931 3569 4081 
Q 3175 4231 2741 4231 
Q 1884 4231 1454 3753 
Q 1025 3275 1025 2328 
Q 1025 1384 1454 906 
Q 1884 428 2741 428 
Q 3075 428 3337 486 
Q 3600 544 3809 666 
z
" transform="scale(0.015625)"/>
       <path id="DejaVuSans-6f" d="M 1959 3097 
Q 1497 3097 1228 2736 
Q 959 2375 959 1747 
Q 959 1119 1226 758 
Q 1494 397 1959 397 
Q 2419 397 2687 759 
Q 2956 1122 2956 1747 
Q 2956 2369 2687 2733 
Q 2419 3097 1959 3097 
z
M 1959 3584 
Q 2709 3584 3137 3096 
Q 3566 2609 3566 1747 
Q 3566 888 3137 398 
Q 2709 -91 1959 -91 
Q 1206 -91 779 398 
Q 353 888 353 1747 
Q 353 2609 779 3096 
Q 1206 3584 1959 3584 
z
" transform="scale(0.015625)"/>
       <path id="DejaVuSans-70" d="M 1159 525 
L 1159 -1331 
L 581 -1331 
L 581 3500 
L 1159 3500 
L 1159 2969 
Q 1341 3281 1617 3432 
Q 1894 3584 2278 3584 
Q 2916 3584 3314 3078 
Q 3713 2572 3713 1747 
Q 3713 922 3314 415 
Q 2916 -91 2278 -91 
Q 1894 -91 1617 61 
Q 1341 213 1159 525 
z
M 3116 1747 
Q 3116 2381 2855 2742 
Q 2594 3103 2138 3103 
Q 1681 3103 1420 2742 
Q 1159 2381 1159 1747 
Q 1159 1113 1420 752 
Q 1681 391 2138 391 
Q 2594 391 2855 752 
Q 3116 1113 3116 1747 
z
" transform="scale(0.015625)"/>
       <path id="DejaVuSans-73" d="M 2834 3397 
L 2834 2853 
Q 2591 2978 2328 3040 
Q 2066 3103 1784 3103 
Q 1356 3103 1142 2972 
Q 928 2841 928 2578 
Q 928 2378 1081 2264 
Q 1234 2150 1697 2047 
L 1894 2003 
Q 2506 1872 2764 1633 
Q 3022 1394 3022 966 
Q 3022 478 2636 193 
Q 2250 -91 1575 -91 
Q 1294 -91 989 -36 
Q 684 19 347 128 
L 347 722 
Q 666 556 975 473 
Q 1284 391 1588 391 
Q 1994 391 2212 530 
Q 2431 669 2431 922 
Q 2431 1156 2273 1281 
Q 2116 1406 1581 1522 
L 1381 1569 
Q 847 1681 609 1914 
Q 372 2147 372 2553 
Q 372 3047 722 3315 
Q 1072 3584 1716 3584 
Q 2034 3584 2315 3537 
Q 2597 3491 2834 3397 
z
" transform="scale(0.015625)"/>
      </defs>
      <use xlink:href="#DejaVuSans-45"/>
      <use xlink:href="#DejaVuSans-71" x="63.183594"/>
      <use xlink:href="#DejaVuSans-75" x="126.660156"/>
      <use xlink:href="#DejaVuSans-61" x="190.039062"/>
      <use xlink:href="#DejaVuSans-6c" x="251.318359"/>
      <use xlink:href="#DejaVuSans-20" x="279.101562"/>
      <use xlink:href="#DejaVuSans-41" x="310.888672"/>
      <use xlink:href="#DejaVuSans-67" x="379.296875"/>
      <use xlink:href="#DejaVuSans-65" x="442.773438"/>
      <use xlink:href="#DejaVuSans-20" x="504.296875"/>
      <use xlink:href="#DejaVuSans-47" x="536.083984"/>
      <use xlink:href="#DejaVuSans-72" x="613.574219"/>
      <use xlink:href="#DejaVuSans-6f" x="652.4375"/>
      <use xlink:href="#DejaVuSans-75" x="713.619141"/>
      <use xlink:href="#DejaVuSans-70" x="776.998047"/>
      <use xlink:href="#DejaVuSans-73" x="840.474609"/>
     </g>
    </g>
    <g id="line2d_29">
     <path d="M 35.925 187.4575 
L 45.925 187.4575 
L 55.925 187.4575 
" style="fill: none; stroke: #8c564b; stroke-width: 1.5; stroke-linecap: square"/>
    </g>
    <g id="text_20">
     <!-- Bride 5 Younger -->
     <g transform="translate(63.925 190.9575) scale(0.1 -0.1)">
      <defs>
       <path id="DejaVuSans-59" d="M -13 4666 
L 666 4666 
L 1959 2747 
L 3244 4666 
L 3922 4666 
L 2272 2222 
L 2272 0 
L 1638 0 
L 1638 2222 
L -13 4666 
z
" transform="scale(0.015625)"/>
       <path id="DejaVuSans-6e" d="M 3513 2113 
L 3513 0 
L 2938 0 
L 2938 2094 
Q 2938 2591 2744 2837 
Q 2550 3084 2163 3084 
Q 1697 3084 1428 2787 
Q 1159 2491 1159 1978 
L 1159 0 
L 581 0 
L 581 3500 
L 1159 3500 
L 1159 2956 
Q 1366 3272 1645 3428 
Q 1925 3584 2291 3584 
Q 2894 3584 3203 3211 
Q 3513 2838 3513 2113 
z
" transform="scale(0.015625)"/>
      </defs>
      <use xlink:href="#DejaVuSans-42"/>
      <use xlink:href="#DejaVuSans-72" x="68.603516"/>
      <use xlink:href="#DejaVuSans-69" x="109.716797"/>
      <use xlink:href="#DejaVuSans-64" x="137.5"/>
      <use xlink:href="#DejaVuSans-65" x="200.976562"/>
      <use xlink:href="#DejaVuSans-20" x="262.5"/>
      <use xlink:href="#DejaVuSans-35" x="294.287109"/>
      <use xlink:href="#DejaVuSans-20" x="357.910156"/>
      <use xlink:href="#DejaVuSans-59" x="389.697266"/>
      <use xlink:href="#DejaVuSans-6f" x="437.53125"/>
      <use xlink:href="#DejaVuSans-75" x="498.712891"/>
      <use xlink:href="#DejaVuSans-6e" x="562.091797"/>
      <use xlink:href="#DejaVuSans-67" x="625.470703"/>
      <use xlink:href="#DejaVuSans-65" x="688.947266"/>
      <use xlink:href="#DejaVuSans-72" x="750.470703"/>
     </g>
    </g>
    <g id="line2d_30">
     <path d="M 35.925 202.135625 
L 45.925 202.135625 
L 55.925 202.135625 
" style="fill: none; stroke: #e377c2; stroke-width: 1.5; stroke-linecap: square"/>
    </g>
    <g id="text_21">
     <!-- Bride 10 Younger -->
     <g transform="translate(63.925 205.635625) scale(0.1 -0.1)">
      <use xlink:href="#DejaVuSans-42"/>
      <use xlink:href="#DejaVuSans-72" x="68.603516"/>
      <use xlink:href="#DejaVuSans-69" x="109.716797"/>
      <use xlink:href="#DejaVuSans-64" x="137.5"/>
      <use xlink:href="#DejaVuSans-65" x="200.976562"/>
      <use xlink:href="#DejaVuSans-20" x="262.5"/>
      <use xlink:href="#DejaVuSans-31" x="294.287109"/>
      <use xlink:href="#DejaVuSans-30" x="357.910156"/>
      <use xlink:href="#DejaVuSans-20" x="421.533203"/>
      <use xlink:href="#DejaVuSans-59" x="453.320312"/>
      <use xlink:href="#DejaVuSans-6f" x="501.154297"/>
      <use xlink:href="#DejaVuSans-75" x="562.335938"/>
      <use xlink:href="#DejaVuSans-6e" x="625.714844"/>
      <use xlink:href="#DejaVuSans-67" x="689.09375"/>
      <use xlink:href="#DejaVuSans-65" x="752.570312"/>
      <use xlink:href="#DejaVuSans-72" x="814.09375"/>
     </g>
    </g>
    <g id="line2d_31">
     <path d="M 35.925 216.81375 
L 45.925 216.81375 
L 55.925 216.81375 
" style="fill: none; stroke: #7f7f7f; stroke-width: 1.5; stroke-linecap: square"/>
    </g>
    <g id="text_22">
     <!-- Bride 15 Younger -->
     <g transform="translate(63.925 220.31375) scale(0.1 -0.1)">
      <use xlink:href="#DejaVuSans-42"/>
      <use xlink:href="#DejaVuSans-72" x="68.603516"/>
      <use xlink:href="#DejaVuSans-69" x="109.716797"/>
      <use xlink:href="#DejaVuSans-64" x="137.5"/>
      <use xlink:href="#DejaVuSans-65" x="200.976562"/>
      <use xlink:href="#DejaVuSans-20" x="262.5"/>
      <use xlink:href="#DejaVuSans-31" x="294.287109"/>
      <use xlink:href="#DejaVuSans-35" x="357.910156"/>
      <use xlink:href="#DejaVuSans-20" x="421.533203"/>
      <use xlink:href="#DejaVuSans-59" x="453.320312"/>
      <use xlink:href="#DejaVuSans-6f" x="501.154297"/>
      <use xlink:href="#DejaVuSans-75" x="562.335938"/>
      <use xlink:href="#DejaVuSans-6e" x="625.714844"/>
      <use xlink:href="#DejaVuSans-67" x="689.09375"/>
      <use xlink:href="#DejaVuSans-65" x="752.570312"/>
      <use xlink:href="#DejaVuSans-72" x="814.09375"/>
     </g>
    </g>
    <g id="line2d_32">
     <path d="M 35.925 231.491875 
L 45.925 231.491875 
L 55.925 231.491875 
" style="fill: none; stroke: #bcbd22; stroke-width: 1.5; stroke-linecap: square"/>
    </g>
    <g id="text_23">
     <!-- Bride 20 Younger -->
     <g transform="translate(63.925 234.991875) scale(0.1 -0.1)">
      <use xlink:href="#DejaVuSans-42"/>
      <use xlink:href="#DejaVuSans-72" x="68.603516"/>
      <use xlink:href="#DejaVuSans-69" x="109.716797"/>
      <use xlink:href="#DejaVuSans-64" x="137.5"/>
      <use xlink:href="#DejaVuSans-65" x="200.976562"/>
      <use xlink:href="#DejaVuSans-20" x="262.5"/>
      <use xlink:href="#DejaVuSans-32" x="294.287109"/>
      <use xlink:href="#DejaVuSans-30" x="357.910156"/>
      <use xlink:href="#DejaVuSans-20" x="421.533203"/>
      <use xlink:href="#DejaVuSans-59" x="453.320312"/>
      <use xlink:href="#DejaVuSans-6f" x="501.154297"/>
      <use xlink:href="#DejaVuSans-75" x="562.335938"/>
      <use xlink:href="#DejaVuSans-6e" x="625.714844"/>
      <use xlink:href="#DejaVuSans-67" x="689.09375"/>
      <use xlink:href="#DejaVuSans-65" x="752.570312"/>
      <use xlink:href="#DejaVuSans-72" x="814.09375"/>
     </g>
    </g>
   </g>
  </g>
 </g>
 <defs>
  <clipPath id="pc4c7c5cccd">
   <rect x="26.925" y="7.2" width="502.2" height="332.64"/>
  </clipPath>
 </defs>
</svg>
