<?xml version="1.0" encoding="utf-8" standalone="no"?>
<!DOCTYPE svg PUBLIC "-//W3C//DTD SVG 1.1//EN"
  "http://www.w3.org/Graphics/SVG/1.1/DTD/svg11.dtd">
<svg xmlns:xlink="http://www.w3.org/1999/xlink" width="566.492973pt" height="285.145339pt" viewBox="0 0 566.492973 285.145339" xmlns="http://www.w3.org/2000/svg" version="1.1">
 <metadata>
  <rdf:RDF xmlns:dc="http://purl.org/dc/elements/1.1/" xmlns:cc="http://creativecommons.org/ns#" xmlns:rdf="http://www.w3.org/1999/02/22-rdf-syntax-ns#">
   <cc:Work>
    <dc:type rdf:resource="http://purl.org/dc/dcmitype/StillImage"/>
    <dc:date>2024-06-09T21:26:49.751270</dc:date>
    <dc:format>image/svg+xml</dc:format>
    <dc:creator>
     <cc:Agent>
      <dc:title>Matplotlib v3.8.4, https://matplotlib.org/</dc:title>
     </cc:Agent>
    </dc:creator>
   </cc:Work>
  </rdf:RDF>
 </metadata>
 <defs>
  <style type="text/css">*{stroke-linejoin: round; stroke-linecap: butt}</style>
 </defs>
 <g id="figure_1">
  <g id="patch_1">
   <path d="M 0 285.145339 
L 566.492973 285.145339 
L 566.492973 0 
L 0 0 
z
" style="fill: #ffffff"/>
  </g>
  <g id="axes_1">
   <g id="patch_2">
    <path d="M 40.603125 229.87677 
L 291.313736 229.87677 
L 291.313736 48.48 
L 40.603125 48.48 
z
" style="fill: #ffffff"/>
   </g>
   <g id="PolyCollection_1"/>
   <g id="PolyCollection_2"/>
   <g id="PolyCollection_3"/>
   <g id="PolyCollection_4"/>
   <g id="PolyCollection_5"/>
   <g id="PolyCollection_6"/>
   <g id="PolyCollection_7"/>
   <g id="PolyCollection_8"/>
   <g id="PolyCollection_9"/>
   <g id="PolyCollection_10"/>
   <g id="PolyCollection_11"/>
   <g id="PolyCollection_12"/>
   <g id="PolyCollection_13"/>
   <g id="PolyCollection_14"/>
   <g id="PolyCollection_15"/>
   <g id="PolyCollection_16"/>
   <g id="PolyCollection_17"/>
   <g id="PolyCollection_18"/>
   <g id="PolyCollection_19"/>
   <g id="PolyCollection_20"/>
   <g id="PolyCollection_21"/>
   <g id="PolyCollection_22"/>
   <g id="PolyCollection_23"/>
   <g id="PolyCollection_24"/>
   <g id="PolyCollection_25"/>
   <g id="PolyCollection_26"/>
   <g id="PolyCollection_27"/>
   <g id="PolyCollection_28"/>
   <g id="PolyCollection_29"/>
   <g id="PolyCollection_30"/>
   <g id="matplotlib.axis_1">
    <g id="xtick_1">
     <g id="line2d_1">
      <defs>
       <path id="md059487a06" d="M 0 0 
L 0 3.5 
" style="stroke: #000000; stroke-width: 0.8"/>
      </defs>
      <g>
       <use xlink:href="#md059487a06" x="51.999062" y="229.87677" style="stroke: #000000; stroke-width: 0.8"/>
      </g>
     </g>
     <g id="text_1">
      <!-- 15-19 -->
      <g transform="translate(43.676747 262.796652) rotate(-45) scale(0.1 -0.1)">
       <defs>
        <path id="DejaVuSans-31" d="M 794 531 
L 1825 531 
L 1825 4091 
L 703 3866 
L 703 4441 
L 1819 4666 
L 2450 4666 
L 2450 531 
L 3481 531 
L 3481 0 
L 794 0 
L 794 531 
z
" transform="scale(0.015625)"/>
        <path id="DejaVuSans-35" d="M 691 4666 
L 3169 4666 
L 3169 4134 
L 1269 4134 
L 1269 2991 
Q 1406 3038 1543 3061 
Q 1681 3084 1819 3084 
Q 2600 3084 3056 2656 
Q 3513 2228 3513 1497 
Q 3513 744 3044 326 
Q 2575 -91 1722 -91 
Q 1428 -91 1123 -41 
Q 819 9 494 109 
L 494 744 
Q 775 591 1075 516 
Q 1375 441 1709 441 
Q 2250 441 2565 725 
Q 2881 1009 2881 1497 
Q 2881 1984 2565 2268 
Q 2250 2553 1709 2553 
Q 1456 2553 1204 2497 
Q 953 2441 691 2322 
L 691 4666 
z
" transform="scale(0.015625)"/>
        <path id="DejaVuSans-2d" d="M 313 2009 
L 1997 2009 
L 1997 1497 
L 313 1497 
L 313 2009 
z
" transform="scale(0.015625)"/>
        <path id="DejaVuSans-39" d="M 703 97 
L 703 672 
Q 941 559 1184 500 
Q 1428 441 1663 441 
Q 2288 441 2617 861 
Q 2947 1281 2994 2138 
Q 2813 1869 2534 1725 
Q 2256 1581 1919 1581 
Q 1219 1581 811 2004 
Q 403 2428 403 3163 
Q 403 3881 828 4315 
Q 1253 4750 1959 4750 
Q 2769 4750 3195 4129 
Q 3622 3509 3622 2328 
Q 3622 1225 3098 567 
Q 2575 -91 1691 -91 
Q 1453 -91 1209 -44 
Q 966 3 703 97 
z
M 1959 2075 
Q 2384 2075 2632 2365 
Q 2881 2656 2881 3163 
Q 2881 3666 2632 3958 
Q 2384 4250 1959 4250 
Q 1534 4250 1286 3958 
Q 1038 3666 1038 3163 
Q 1038 2656 1286 2365 
Q 1534 2075 1959 2075 
z
" transform="scale(0.015625)"/>
       </defs>
       <use xlink:href="#DejaVuSans-31"/>
       <use xlink:href="#DejaVuSans-35" x="63.623047"/>
       <use xlink:href="#DejaVuSans-2d" x="127.246094"/>
       <use xlink:href="#DejaVuSans-31" x="163.330078"/>
       <use xlink:href="#DejaVuSans-39" x="226.953125"/>
      </g>
     </g>
    </g>
    <g id="xtick_2">
     <g id="line2d_2">
      <g>
       <use xlink:href="#md059487a06" x="72.718947" y="229.87677" style="stroke: #000000; stroke-width: 0.8"/>
      </g>
     </g>
     <g id="text_2">
      <!-- 20-24 -->
      <g transform="translate(64.396632 262.796652) rotate(-45) scale(0.1 -0.1)">
       <defs>
        <path id="DejaVuSans-32" d="M 1228 531 
L 3431 531 
L 3431 0 
L 469 0 
L 469 531 
Q 828 903 1448 1529 
Q 2069 2156 2228 2338 
Q 2531 2678 2651 2914 
Q 2772 3150 2772 3378 
Q 2772 3750 2511 3984 
Q 2250 4219 1831 4219 
Q 1534 4219 1204 4116 
Q 875 4013 500 3803 
L 500 4441 
Q 881 4594 1212 4672 
Q 1544 4750 1819 4750 
Q 2544 4750 2975 4387 
Q 3406 4025 3406 3419 
Q 3406 3131 3298 2873 
Q 3191 2616 2906 2266 
Q 2828 2175 2409 1742 
Q 1991 1309 1228 531 
z
" transform="scale(0.015625)"/>
        <path id="DejaVuSans-30" d="M 2034 4250 
Q 1547 4250 1301 3770 
Q 1056 3291 1056 2328 
Q 1056 1369 1301 889 
Q 1547 409 2034 409 
Q 2525 409 2770 889 
Q 3016 1369 3016 2328 
Q 3016 3291 2770 3770 
Q 2525 4250 2034 4250 
z
M 2034 4750 
Q 2819 4750 3233 4129 
Q 3647 3509 3647 2328 
Q 3647 1150 3233 529 
Q 2819 -91 2034 -91 
Q 1250 -91 836 529 
Q 422 1150 422 2328 
Q 422 3509 836 4129 
Q 1250 4750 2034 4750 
z
" transform="scale(0.015625)"/>
        <path id="DejaVuSans-34" d="M 2419 4116 
L 825 1625 
L 2419 1625 
L 2419 4116 
z
M 2253 4666 
L 3047 4666 
L 3047 1625 
L 3713 1625 
L 3713 1100 
L 3047 1100 
L 3047 0 
L 2419 0 
L 2419 1100 
L 313 1100 
L 313 1709 
L 2253 4666 
z
" transform="scale(0.015625)"/>
       </defs>
       <use xlink:href="#DejaVuSans-32"/>
       <use xlink:href="#DejaVuSans-30" x="63.623047"/>
       <use xlink:href="#DejaVuSans-2d" x="127.246094"/>
       <use xlink:href="#DejaVuSans-32" x="163.330078"/>
       <use xlink:href="#DejaVuSans-34" x="226.953125"/>
      </g>
     </g>
    </g>
    <g id="xtick_3">
     <g id="line2d_3">
      <g>
       <use xlink:href="#md059487a06" x="93.438832" y="229.87677" style="stroke: #000000; stroke-width: 0.8"/>
      </g>
     </g>
     <g id="text_3">
      <!-- 25-29 -->
      <g transform="translate(85.116517 262.796652) rotate(-45) scale(0.1 -0.1)">
       <use xlink:href="#DejaVuSans-32"/>
       <use xlink:href="#DejaVuSans-35" x="63.623047"/>
       <use xlink:href="#DejaVuSans-2d" x="127.246094"/>
       <use xlink:href="#DejaVuSans-32" x="163.330078"/>
       <use xlink:href="#DejaVuSans-39" x="226.953125"/>
      </g>
     </g>
    </g>
    <g id="xtick_4">
     <g id="line2d_4">
      <g>
       <use xlink:href="#md059487a06" x="114.158717" y="229.87677" style="stroke: #000000; stroke-width: 0.8"/>
      </g>
     </g>
     <g id="text_4">
      <!-- 30-34 -->
      <g transform="translate(105.836402 262.796652) rotate(-45) scale(0.1 -0.1)">
       <defs>
        <path id="DejaVuSans-33" d="M 2597 2516 
Q 3050 2419 3304 2112 
Q 3559 1806 3559 1356 
Q 3559 666 3084 287 
Q 2609 -91 1734 -91 
Q 1441 -91 1130 -33 
Q 819 25 488 141 
L 488 750 
Q 750 597 1062 519 
Q 1375 441 1716 441 
Q 2309 441 2620 675 
Q 2931 909 2931 1356 
Q 2931 1769 2642 2001 
Q 2353 2234 1838 2234 
L 1294 2234 
L 1294 2753 
L 1863 2753 
Q 2328 2753 2575 2939 
Q 2822 3125 2822 3475 
Q 2822 3834 2567 4026 
Q 2313 4219 1838 4219 
Q 1578 4219 1281 4162 
Q 984 4106 628 3988 
L 628 4550 
Q 988 4650 1302 4700 
Q 1616 4750 1894 4750 
Q 2613 4750 3031 4423 
Q 3450 4097 3450 3541 
Q 3450 3153 3228 2886 
Q 3006 2619 2597 2516 
z
" transform="scale(0.015625)"/>
       </defs>
       <use xlink:href="#DejaVuSans-33"/>
       <use xlink:href="#DejaVuSans-30" x="63.623047"/>
       <use xlink:href="#DejaVuSans-2d" x="127.246094"/>
       <use xlink:href="#DejaVuSans-33" x="163.330078"/>
       <use xlink:href="#DejaVuSans-34" x="226.953125"/>
      </g>
     </g>
    </g>
    <g id="xtick_5">
     <g id="line2d_5">
      <g>
       <use xlink:href="#md059487a06" x="134.878603" y="229.87677" style="stroke: #000000; stroke-width: 0.8"/>
      </g>
     </g>
     <g id="text_5">
      <!-- 35-39 -->
      <g transform="translate(126.556287 262.796652) rotate(-45) scale(0.1 -0.1)">
       <use xlink:href="#DejaVuSans-33"/>
       <use xlink:href="#DejaVuSans-35" x="63.623047"/>
       <use xlink:href="#DejaVuSans-2d" x="127.246094"/>
       <use xlink:href="#DejaVuSans-33" x="163.330078"/>
       <use xlink:href="#DejaVuSans-39" x="226.953125"/>
      </g>
     </g>
    </g>
    <g id="xtick_6">
     <g id="line2d_6">
      <g>
       <use xlink:href="#md059487a06" x="155.598488" y="229.87677" style="stroke: #000000; stroke-width: 0.8"/>
      </g>
     </g>
     <g id="text_6">
      <!-- 40-44 -->
      <g transform="translate(147.276173 262.796652) rotate(-45) scale(0.1 -0.1)">
       <use xlink:href="#DejaVuSans-34"/>
       <use xlink:href="#DejaVuSans-30" x="63.623047"/>
       <use xlink:href="#DejaVuSans-2d" x="127.246094"/>
       <use xlink:href="#DejaVuSans-34" x="163.330078"/>
       <use xlink:href="#DejaVuSans-34" x="226.953125"/>
      </g>
     </g>
    </g>
    <g id="xtick_7">
     <g id="line2d_7">
      <g>
       <use xlink:href="#md059487a06" x="176.318373" y="229.87677" style="stroke: #000000; stroke-width: 0.8"/>
      </g>
     </g>
     <g id="text_7">
      <!-- 45-49 -->
      <g transform="translate(167.996058 262.796652) rotate(-45) scale(0.1 -0.1)">
       <use xlink:href="#DejaVuSans-34"/>
       <use xlink:href="#DejaVuSans-35" x="63.623047"/>
       <use xlink:href="#DejaVuSans-2d" x="127.246094"/>
       <use xlink:href="#DejaVuSans-34" x="163.330078"/>
       <use xlink:href="#DejaVuSans-39" x="226.953125"/>
      </g>
     </g>
    </g>
    <g id="xtick_8">
     <g id="line2d_8">
      <g>
       <use xlink:href="#md059487a06" x="197.038258" y="229.87677" style="stroke: #000000; stroke-width: 0.8"/>
      </g>
     </g>
     <g id="text_8">
      <!-- 50-54 -->
      <g transform="translate(188.715943 262.796652) rotate(-45) scale(0.1 -0.1)">
       <use xlink:href="#DejaVuSans-35"/>
       <use xlink:href="#DejaVuSans-30" x="63.623047"/>
       <use xlink:href="#DejaVuSans-2d" x="127.246094"/>
       <use xlink:href="#DejaVuSans-35" x="163.330078"/>
       <use xlink:href="#DejaVuSans-34" x="226.953125"/>
      </g>
     </g>
    </g>
    <g id="xtick_9">
     <g id="line2d_9">
      <g>
       <use xlink:href="#md059487a06" x="217.758143" y="229.87677" style="stroke: #000000; stroke-width: 0.8"/>
      </g>
     </g>
     <g id="text_9">
      <!-- 55-59 -->
      <g transform="translate(209.435828 262.796652) rotate(-45) scale(0.1 -0.1)">
       <use xlink:href="#DejaVuSans-35"/>
       <use xlink:href="#DejaVuSans-35" x="63.623047"/>
       <use xlink:href="#DejaVuSans-2d" x="127.246094"/>
       <use xlink:href="#DejaVuSans-35" x="163.330078"/>
       <use xlink:href="#DejaVuSans-39" x="226.953125"/>
      </g>
     </g>
    </g>
    <g id="xtick_10">
     <g id="line2d_10">
      <g>
       <use xlink:href="#md059487a06" x="238.478029" y="229.87677" style="stroke: #000000; stroke-width: 0.8"/>
      </g>
     </g>
     <g id="text_10">
      <!-- 60-64 -->
      <g transform="translate(230.155713 262.796652) rotate(-45) scale(0.1 -0.1)">
       <defs>
        <path id="DejaVuSans-36" d="M 2113 2584 
Q 1688 2584 1439 2293 
Q 1191 2003 1191 1497 
Q 1191 994 1439 701 
Q 1688 409 2113 409 
Q 2538 409 2786 701 
Q 3034 994 3034 1497 
Q 3034 2003 2786 2293 
Q 2538 2584 2113 2584 
z
M 3366 4563 
L 3366 3988 
Q 3128 4100 2886 4159 
Q 2644 4219 2406 4219 
Q 1781 4219 1451 3797 
Q 1122 3375 1075 2522 
Q 1259 2794 1537 2939 
Q 1816 3084 2150 3084 
Q 2853 3084 3261 2657 
Q 3669 2231 3669 1497 
Q 3669 778 3244 343 
Q 2819 -91 2113 -91 
Q 1303 -91 875 529 
Q 447 1150 447 2328 
Q 447 3434 972 4092 
Q 1497 4750 2381 4750 
Q 2619 4750 2861 4703 
Q 3103 4656 3366 4563 
z
" transform="scale(0.015625)"/>
       </defs>
       <use xlink:href="#DejaVuSans-36"/>
       <use xlink:href="#DejaVuSans-30" x="63.623047"/>
       <use xlink:href="#DejaVuSans-2d" x="127.246094"/>
       <use xlink:href="#DejaVuSans-36" x="163.330078"/>
       <use xlink:href="#DejaVuSans-34" x="226.953125"/>
      </g>
     </g>
    </g>
    <g id="xtick_11">
     <g id="line2d_11">
      <g>
       <use xlink:href="#md059487a06" x="259.197914" y="229.87677" style="stroke: #000000; stroke-width: 0.8"/>
      </g>
     </g>
     <g id="text_11">
      <!-- 65-69 -->
      <g transform="translate(250.875599 262.796652) rotate(-45) scale(0.1 -0.1)">
       <use xlink:href="#DejaVuSans-36"/>
       <use xlink:href="#DejaVuSans-35" x="63.623047"/>
       <use xlink:href="#DejaVuSans-2d" x="127.246094"/>
       <use xlink:href="#DejaVuSans-36" x="163.330078"/>
       <use xlink:href="#DejaVuSans-39" x="226.953125"/>
      </g>
     </g>
    </g>
    <g id="xtick_12">
     <g id="line2d_12">
      <g>
       <use xlink:href="#md059487a06" x="279.917799" y="229.87677" style="stroke: #000000; stroke-width: 0.8"/>
      </g>
     </g>
     <g id="text_12">
      <!-- 70+ -->
      <g transform="translate(274.407338 257.172944) rotate(-45) scale(0.1 -0.1)">
       <defs>
        <path id="DejaVuSans-37" d="M 525 4666 
L 3525 4666 
L 3525 4397 
L 1831 0 
L 1172 0 
L 2766 4134 
L 525 4134 
L 525 4666 
z
" transform="scale(0.015625)"/>
        <path id="DejaVuSans-2b" d="M 2944 4013 
L 2944 2272 
L 4684 2272 
L 4684 1741 
L 2944 1741 
L 2944 0 
L 2419 0 
L 2419 1741 
L 678 1741 
L 678 2272 
L 2419 2272 
L 2419 4013 
L 2944 4013 
z
" transform="scale(0.015625)"/>
       </defs>
       <use xlink:href="#DejaVuSans-37"/>
       <use xlink:href="#DejaVuSans-30" x="63.623047"/>
       <use xlink:href="#DejaVuSans-2b" x="127.246094"/>
      </g>
     </g>
    </g>
    <g id="text_13">
     <!-- Age -->
     <g transform="translate(156.287337 275.865651) scale(0.1 -0.1)">
      <defs>
       <path id="DejaVuSans-41" d="M 2188 4044 
L 1331 1722 
L 3047 1722 
L 2188 4044 
z
M 1831 4666 
L 2547 4666 
L 4325 0 
L 3669 0 
L 3244 1197 
L 1141 1197 
L 716 0 
L 50 0 
L 1831 4666 
z
" transform="scale(0.015625)"/>
       <path id="DejaVuSans-67" d="M 2906 1791 
Q 2906 2416 2648 2759 
Q 2391 3103 1925 3103 
Q 1463 3103 1205 2759 
Q 947 2416 947 1791 
Q 947 1169 1205 825 
Q 1463 481 1925 481 
Q 2391 481 2648 825 
Q 2906 1169 2906 1791 
z
M 3481 434 
Q 3481 -459 3084 -895 
Q 2688 -1331 1869 -1331 
Q 1566 -1331 1297 -1286 
Q 1028 -1241 775 -1147 
L 775 -588 
Q 1028 -725 1275 -790 
Q 1522 -856 1778 -856 
Q 2344 -856 2625 -561 
Q 2906 -266 2906 331 
L 2906 616 
Q 2728 306 2450 153 
Q 2172 0 1784 0 
Q 1141 0 747 490 
Q 353 981 353 1791 
Q 353 2603 747 3093 
Q 1141 3584 1784 3584 
Q 2172 3584 2450 3431 
Q 2728 3278 2906 2969 
L 2906 3500 
L 3481 3500 
L 3481 434 
z
" transform="scale(0.015625)"/>
       <path id="DejaVuSans-65" d="M 3597 1894 
L 3597 1613 
L 953 1613 
Q 991 1019 1311 708 
Q 1631 397 2203 397 
Q 2534 397 2845 478 
Q 3156 559 3463 722 
L 3463 178 
Q 3153 47 2828 -22 
Q 2503 -91 2169 -91 
Q 1331 -91 842 396 
Q 353 884 353 1716 
Q 353 2575 817 3079 
Q 1281 3584 2069 3584 
Q 2775 3584 3186 3129 
Q 3597 2675 3597 1894 
z
M 3022 2063 
Q 3016 2534 2758 2815 
Q 2500 3097 2075 3097 
Q 1594 3097 1305 2825 
Q 1016 2553 972 2059 
L 3022 2063 
z
" transform="scale(0.015625)"/>
      </defs>
      <use xlink:href="#DejaVuSans-41"/>
      <use xlink:href="#DejaVuSans-67" x="68.408203"/>
      <use xlink:href="#DejaVuSans-65" x="131.884766"/>
     </g>
    </g>
   </g>
   <g id="matplotlib.axis_2">
    <g id="ytick_1">
     <g id="line2d_13">
      <defs>
       <path id="m34407b2d32" d="M 0 0 
L -3.5 0 
" style="stroke: #000000; stroke-width: 0.8"/>
      </defs>
      <g>
       <use xlink:href="#m34407b2d32" x="40.603125" y="221.631462" style="stroke: #000000; stroke-width: 0.8"/>
      </g>
     </g>
     <g id="text_14">
      <!-- 0 -->
      <g transform="translate(27.240625 225.430681) scale(0.1 -0.1)">
       <use xlink:href="#DejaVuSans-30"/>
      </g>
     </g>
    </g>
    <g id="ytick_2">
     <g id="line2d_14">
      <g>
       <use xlink:href="#m34407b2d32" x="40.603125" y="185.511103" style="stroke: #000000; stroke-width: 0.8"/>
      </g>
     </g>
     <g id="text_15">
      <!-- 20 -->
      <g transform="translate(20.878125 189.310321) scale(0.1 -0.1)">
       <use xlink:href="#DejaVuSans-32"/>
       <use xlink:href="#DejaVuSans-30" x="63.623047"/>
      </g>
     </g>
    </g>
    <g id="ytick_3">
     <g id="line2d_15">
      <g>
       <use xlink:href="#m34407b2d32" x="40.603125" y="149.390744" style="stroke: #000000; stroke-width: 0.8"/>
      </g>
     </g>
     <g id="text_16">
      <!-- 40 -->
      <g transform="translate(20.878125 153.189962) scale(0.1 -0.1)">
       <use xlink:href="#DejaVuSans-34"/>
       <use xlink:href="#DejaVuSans-30" x="63.623047"/>
      </g>
     </g>
    </g>
    <g id="ytick_4">
     <g id="line2d_16">
      <g>
       <use xlink:href="#m34407b2d32" x="40.603125" y="113.270385" style="stroke: #000000; stroke-width: 0.8"/>
      </g>
     </g>
     <g id="text_17">
      <!-- 60 -->
      <g transform="translate(20.878125 117.069603) scale(0.1 -0.1)">
       <use xlink:href="#DejaVuSans-36"/>
       <use xlink:href="#DejaVuSans-30" x="63.623047"/>
      </g>
     </g>
    </g>
    <g id="ytick_5">
     <g id="line2d_17">
      <g>
       <use xlink:href="#m34407b2d32" x="40.603125" y="77.150025" style="stroke: #000000; stroke-width: 0.8"/>
      </g>
     </g>
     <g id="text_18">
      <!-- 80 -->
      <g transform="translate(20.878125 80.949244) scale(0.1 -0.1)">
       <defs>
        <path id="DejaVuSans-38" d="M 2034 2216 
Q 1584 2216 1326 1975 
Q 1069 1734 1069 1313 
Q 1069 891 1326 650 
Q 1584 409 2034 409 
Q 2484 409 2743 651 
Q 3003 894 3003 1313 
Q 3003 1734 2745 1975 
Q 2488 2216 2034 2216 
z
M 1403 2484 
Q 997 2584 770 2862 
Q 544 3141 544 3541 
Q 544 4100 942 4425 
Q 1341 4750 2034 4750 
Q 2731 4750 3128 4425 
Q 3525 4100 3525 3541 
Q 3525 3141 3298 2862 
Q 3072 2584 2669 2484 
Q 3125 2378 3379 2068 
Q 3634 1759 3634 1313 
Q 3634 634 3220 271 
Q 2806 -91 2034 -91 
Q 1263 -91 848 271 
Q 434 634 434 1313 
Q 434 1759 690 2068 
Q 947 2378 1403 2484 
z
M 1172 3481 
Q 1172 3119 1398 2916 
Q 1625 2713 2034 2713 
Q 2441 2713 2670 2916 
Q 2900 3119 2900 3481 
Q 2900 3844 2670 4047 
Q 2441 4250 2034 4250 
Q 1625 4250 1398 4047 
Q 1172 3844 1172 3481 
z
" transform="scale(0.015625)"/>
       </defs>
       <use xlink:href="#DejaVuSans-38"/>
       <use xlink:href="#DejaVuSans-30" x="63.623047"/>
      </g>
     </g>
    </g>
    <g id="text_19">
     <!-- Rate -->
     <g transform="translate(14.798438 150.640885) rotate(-90) scale(0.1 -0.1)">
      <defs>
       <path id="DejaVuSans-52" d="M 2841 2188 
Q 3044 2119 3236 1894 
Q 3428 1669 3622 1275 
L 4263 0 
L 3584 0 
L 2988 1197 
Q 2756 1666 2539 1819 
Q 2322 1972 1947 1972 
L 1259 1972 
L 1259 0 
L 628 0 
L 628 4666 
L 2053 4666 
Q 2853 4666 3247 4331 
Q 3641 3997 3641 3322 
Q 3641 2881 3436 2590 
Q 3231 2300 2841 2188 
z
M 1259 4147 
L 1259 2491 
L 2053 2491 
Q 2509 2491 2742 2702 
Q 2975 2913 2975 3322 
Q 2975 3731 2742 3939 
Q 2509 4147 2053 4147 
L 1259 4147 
z
" transform="scale(0.015625)"/>
       <path id="DejaVuSans-61" d="M 2194 1759 
Q 1497 1759 1228 1600 
Q 959 1441 959 1056 
Q 959 750 1161 570 
Q 1363 391 1709 391 
Q 2188 391 2477 730 
Q 2766 1069 2766 1631 
L 2766 1759 
L 2194 1759 
z
M 3341 1997 
L 3341 0 
L 2766 0 
L 2766 531 
Q 2569 213 2275 61 
Q 1981 -91 1556 -91 
Q 1019 -91 701 211 
Q 384 513 384 1019 
Q 384 1609 779 1909 
Q 1175 2209 1959 2209 
L 2766 2209 
L 2766 2266 
Q 2766 2663 2505 2880 
Q 2244 3097 1772 3097 
Q 1472 3097 1187 3025 
Q 903 2953 641 2809 
L 641 3341 
Q 956 3463 1253 3523 
Q 1550 3584 1831 3584 
Q 2591 3584 2966 3190 
Q 3341 2797 3341 1997 
z
" transform="scale(0.015625)"/>
       <path id="DejaVuSans-74" d="M 1172 4494 
L 1172 3500 
L 2356 3500 
L 2356 3053 
L 1172 3053 
L 1172 1153 
Q 1172 725 1289 603 
Q 1406 481 1766 481 
L 2356 481 
L 2356 0 
L 1766 0 
Q 1100 0 847 248 
Q 594 497 594 1153 
L 594 3053 
L 172 3053 
L 172 3500 
L 594 3500 
L 594 4494 
L 1172 4494 
z
" transform="scale(0.015625)"/>
      </defs>
      <use xlink:href="#DejaVuSans-52"/>
      <use xlink:href="#DejaVuSans-61" x="67.232422"/>
      <use xlink:href="#DejaVuSans-74" x="128.511719"/>
      <use xlink:href="#DejaVuSans-65" x="167.720703"/>
     </g>
    </g>
   </g>
   <g id="line2d_18">
    <path d="M 51.999062 221.19097 
L 72.718947 213.714262 
L 93.438832 162.168191 
L 114.158717 101.645155 
L 134.878603 72.997004 
L 155.598488 61.347368 
L 176.318373 58.165078 
L 197.038258 58.746094 
L 217.758143 61.096533 
L 238.478029 63.604891 
L 259.197914 68.912049 
L 279.917799 87.230126 
" clip-path="url(#p9a26f91d9a)" style="fill: none; stroke: #fde725; stroke-width: 1.5; stroke-linecap: square"/>
   </g>
   <g id="line2d_19">
    <path d="M 51.999062 221.328693 
L 72.718947 213.746869 
L 93.438832 162.619033 
L 114.158717 105.192426 
L 134.878603 76.54893 
L 155.598488 63.702619 
L 176.318373 58.689555 
L 197.038258 58.253961 
L 217.758143 60.214472 
L 238.478029 66.549485 
L 259.197914 73.341809 
L 279.917799 90.58254 
" clip-path="url(#p9a26f91d9a)" style="fill: none; stroke: #eae51a; stroke-width: 1.5; stroke-linecap: square"/>
   </g>
   <g id="line2d_20">
    <path d="M 51.999062 221.476172 
L 72.718947 214.03472 
L 93.438832 165.649032 
L 114.158717 107.23305 
L 134.878603 76.760237 
L 155.598488 63.425437 
L 176.318373 56.725308 
L 197.038258 58.144688 
L 217.758143 57.418214 
L 238.478029 62.074367 
L 259.197914 62.971941 
L 279.917799 87.648422 
" clip-path="url(#p9a26f91d9a)" style="fill: none; stroke: #d5e21a; stroke-width: 1.5; stroke-linecap: square"/>
   </g>
   <g id="line2d_21">
    <path d="M 51.999062 221.470641 
L 72.718947 214.47747 
L 93.438832 162.408599 
L 114.158717 102.067547 
L 134.878603 78.038231 
L 155.598488 64.705681 
L 176.318373 58.09588 
L 197.038258 58.340568 
L 217.758143 60.748753 
L 238.478029 63.32152 
L 259.197914 71.929089 
L 279.917799 88.813891 
" clip-path="url(#p9a26f91d9a)" style="fill: none; stroke: #c0df25; stroke-width: 1.5; stroke-linecap: square"/>
   </g>
   <g id="line2d_22">
    <path d="M 51.999062 221.149429 
L 72.718947 213.977463 
L 93.438832 161.063787 
L 114.158717 98.035609 
L 134.878603 78.674586 
L 155.598488 66.885052 
L 176.318373 60.961288 
L 197.038258 62.03622 
L 217.758143 62.043083 
L 238.478029 65.953481 
L 259.197914 72.333978 
L 279.917799 87.926265 
" clip-path="url(#p9a26f91d9a)" style="fill: none; stroke: #95d840; stroke-width: 1.5; stroke-linecap: square"/>
   </g>
   <g id="line2d_23">
    <path d="M 51.999062 219.682522 
L 72.718947 214.275929 
L 93.438832 163.691457 
L 114.158717 100.017049 
L 134.878603 78.358778 
L 155.598488 69.770327 
L 176.318373 61.632298 
L 197.038258 59.411528 
L 217.758143 60.040382 
L 238.478029 59.865436 
L 259.197914 67.714892 
L 279.917799 85.750111 
" clip-path="url(#p9a26f91d9a)" style="fill: none; stroke: #81d34d; stroke-width: 1.5; stroke-linecap: square"/>
   </g>
   <g id="line2d_24">
    <path d="M 51.999062 220.826641 
L 72.718947 215.509367 
L 93.438832 167.880927 
L 114.158717 97.86421 
L 134.878603 79.9141 
L 155.598488 68.059331 
L 176.318373 61.890317 
L 197.038258 59.068624 
L 217.758143 60.821644 
L 238.478029 61.953045 
L 259.197914 68.005631 
L 279.917799 86.63313 
" clip-path="url(#p9a26f91d9a)" style="fill: none; stroke: #6ece58; stroke-width: 1.5; stroke-linecap: square"/>
   </g>
   <g id="line2d_25">
    <path d="M 51.999062 221.469777 
L 72.718947 216.511763 
L 93.438832 162.81365 
L 114.158717 99.27624 
L 134.878603 80.743749 
L 155.598488 70.808467 
L 176.318373 63.874285 
L 197.038258 59.244869 
L 217.758143 59.616948 
L 238.478029 63.354981 
L 259.197914 69.403515 
L 279.917799 88.768357 
" clip-path="url(#p9a26f91d9a)" style="fill: none; stroke: #5cc863; stroke-width: 1.5; stroke-linecap: square"/>
   </g>
   <g id="line2d_26">
    <path d="M 51.999062 220.838653 
L 72.718947 215.976946 
L 93.438832 162.726057 
L 114.158717 98.729485 
L 134.878603 75.958993 
L 155.598488 71.687023 
L 176.318373 66.982025 
L 197.038258 61.783031 
L 217.758143 62.115155 
L 238.478029 62.367892 
L 259.197914 66.322792 
L 279.917799 85.402877 
" clip-path="url(#p9a26f91d9a)" style="fill: none; stroke: #3dbc74; stroke-width: 1.5; stroke-linecap: square"/>
   </g>
   <g id="line2d_27">
    <path d="M 51.999062 221.300386 
L 72.718947 217.675422 
L 93.438832 168.81547 
L 114.158717 103.334541 
L 134.878603 78.777476 
L 155.598488 72.15224 
L 176.318373 66.646029 
L 197.038258 65.139856 
L 217.758143 60.169531 
L 238.478029 61.525594 
L 259.197914 68.66054 
L 279.917799 86.114963 
" clip-path="url(#p9a26f91d9a)" style="fill: none; stroke: #31b57b; stroke-width: 1.5; stroke-linecap: square"/>
   </g>
   <g id="line2d_28">
    <path d="M 51.999062 221.169171 
L 72.718947 217.125083 
L 93.438832 168.579684 
L 114.158717 102.386259 
L 134.878603 81.413412 
L 155.598488 73.442457 
L 176.318373 67.961513 
L 197.038258 64.785295 
L 217.758143 60.697075 
L 238.478029 63.3227 
L 259.197914 66.561729 
L 279.917799 86.721199 
" clip-path="url(#p9a26f91d9a)" style="fill: none; stroke: #27ad81; stroke-width: 1.5; stroke-linecap: square"/>
   </g>
   <g id="line2d_29">
    <path d="M 51.999062 221.48245 
L 72.718947 217.996293 
L 93.438832 174.054425 
L 114.158717 102.938721 
L 134.878603 76.666384 
L 155.598488 72.144997 
L 176.318373 69.707904 
L 197.038258 64.438383 
L 217.758143 61.582874 
L 238.478029 62.598352 
L 259.197914 64.55495 
L 279.917799 83.842626 
" clip-path="url(#p9a26f91d9a)" style="fill: none; stroke: #21a685; stroke-width: 1.5; stroke-linecap: square"/>
   </g>
   <g id="line2d_30">
    <path d="M 51.999062 221.367038 
L 72.718947 217.132485 
L 93.438832 176.966502 
L 114.158717 108.275016 
L 134.878603 79.169176 
L 155.598488 74.998656 
L 176.318373 70.479249 
L 197.038258 67.449858 
L 217.758143 65.237314 
L 238.478029 62.010095 
L 259.197914 66.281953 
L 279.917799 80.55602 
" clip-path="url(#p9a26f91d9a)" style="fill: none; stroke: #1f978b; stroke-width: 1.5; stroke-linecap: square"/>
   </g>
   <g id="line2d_31">
    <path d="M 51.999062 221.249101 
L 72.718947 216.975062 
L 93.438832 177.903394 
L 114.158717 106.516616 
L 134.878603 80.551943 
L 155.598488 73.157651 
L 176.318373 69.787914 
L 197.038258 69.140394 
L 217.758143 63.291346 
L 238.478029 62.523639 
L 259.197914 71.563063 
L 279.917799 83.084694 
" clip-path="url(#p9a26f91d9a)" style="fill: none; stroke: #21908d; stroke-width: 1.5; stroke-linecap: square"/>
   </g>
   <g id="line2d_32">
    <path d="M 51.999062 221.240549 
L 72.718947 217.061259 
L 93.438832 176.561209 
L 114.158717 107.61229 
L 134.878603 81.271795 
L 155.598488 72.03376 
L 176.318373 70.115349 
L 197.038258 68.948784 
L 217.758143 64.817771 
L 238.478029 64.685317 
L 259.197914 64.976866 
L 279.917799 80.22066 
" clip-path="url(#p9a26f91d9a)" style="fill: none; stroke: #23888e; stroke-width: 1.5; stroke-linecap: square"/>
   </g>
   <g id="line2d_33">
    <path d="M 51.999062 221.631462 
L 72.718947 217.601504 
L 93.438832 180.475961 
L 114.158717 109.693841 
L 134.878603 79.578075 
L 155.598488 74.153651 
L 176.318373 69.497793 
L 197.038258 70.398784 
L 217.758143 65.691998 
L 238.478029 64.836267 
L 259.197914 66.192879 
L 279.917799 79.939809 
" clip-path="url(#p9a26f91d9a)" style="fill: none; stroke: #26818e; stroke-width: 1.5; stroke-linecap: square"/>
   </g>
   <g id="line2d_34">
    <path d="M 51.999062 221.36972 
L 72.718947 217.015441 
L 93.438832 177.408508 
L 114.158717 111.286044 
L 134.878603 80.783295 
L 155.598488 72.218918 
L 176.318373 72.370053 
L 197.038258 70.072388 
L 217.758143 66.889188 
L 238.478029 65.953481 
L 259.197914 64.333124 
L 279.917799 81.493378 
" clip-path="url(#p9a26f91d9a)" style="fill: none; stroke: #29798e; stroke-width: 1.5; stroke-linecap: square"/>
   </g>
   <g id="line2d_35">
    <path d="M 51.999062 221.631462 
L 72.718947 219.429001 
L 93.438832 181.497729 
L 114.158717 113.242875 
L 134.878603 82.226003 
L 155.598488 73.351854 
L 176.318373 69.984539 
L 197.038258 69.157136 
L 217.758143 66.556904 
L 238.478029 62.134474 
L 259.197914 65.806442 
L 279.917799 79.839477 
" clip-path="url(#p9a26f91d9a)" style="fill: none; stroke: #2c718e; stroke-width: 1.5; stroke-linecap: square"/>
   </g>
   <g id="line2d_36">
    <path d="M 51.999062 221.631462 
L 72.718947 218.670777 
L 93.438832 189.21975 
L 114.158717 114.150676 
L 134.878603 80.082119 
L 155.598488 71.048613 
L 176.318373 70.081507 
L 197.038258 70.448963 
L 217.758143 64.977597 
L 238.478029 65.186594 
L 259.197914 65.949914 
L 279.917799 80.404112 
" clip-path="url(#p9a26f91d9a)" style="fill: none; stroke: #306a8e; stroke-width: 1.5; stroke-linecap: square"/>
   </g>
   <g id="line2d_37">
    <path d="M 51.999062 221.631462 
L 72.718947 219.057243 
L 93.438832 187.866778 
L 114.158717 115.583648 
L 134.878603 83.216818 
L 155.598488 73.677384 
L 176.318373 70.394868 
L 197.038258 68.841189 
L 217.758143 70.003911 
L 238.478029 66.404767 
L 259.197914 65.746172 
L 279.917799 76.707993 
" clip-path="url(#p9a26f91d9a)" style="fill: none; stroke: #33628d; stroke-width: 1.5; stroke-linecap: square"/>
   </g>
   <g id="line2d_38">
    <path d="M 51.999062 221.631462 
L 72.718947 219.73751 
L 93.438832 190.692302 
L 114.158717 114.047764 
L 134.878603 84.690215 
L 155.598488 73.754515 
L 176.318373 71.879351 
L 197.038258 69.814528 
L 217.758143 70.103352 
L 238.478029 66.0112 
L 259.197914 65.714725 
L 279.917799 76.377244 
" clip-path="url(#p9a26f91d9a)" style="fill: none; stroke: #375a8c; stroke-width: 1.5; stroke-linecap: square"/>
   </g>
   <g id="line2d_39">
    <path d="M 51.999062 221.631462 
L 72.718947 219.569797 
L 93.438832 186.818489 
L 114.158717 111.477175 
L 134.878603 83.15291 
L 155.598488 76.242839 
L 176.318373 71.665265 
L 197.038258 72.171826 
L 217.758143 70.46107 
L 238.478029 68.273733 
L 259.197914 66.010867 
L 279.917799 80.67764 
" clip-path="url(#p9a26f91d9a)" style="fill: none; stroke: #3b518b; stroke-width: 1.5; stroke-linecap: square"/>
   </g>
   <g id="line2d_40">
    <path d="M 51.999062 221.489813 
L 72.718947 218.826256 
L 93.438832 184.161066 
L 114.158717 111.786768 
L 134.878603 84.290702 
L 155.598488 73.683677 
L 176.318373 72.232464 
L 197.038258 73.462881 
L 217.758143 72.449264 
L 238.478029 70.552446 
L 259.197914 67.378864 
L 279.917799 77.646024 
" clip-path="url(#p9a26f91d9a)" style="fill: none; stroke: #3f4889; stroke-width: 1.5; stroke-linecap: square"/>
   </g>
   <g id="line2d_41">
    <path d="M 51.999062 221.490035 
L 72.718947 218.846546 
L 93.438832 184.368957 
L 114.158717 111.922829 
L 134.878603 82.428 
L 155.598488 72.859421 
L 176.318373 70.552263 
L 197.038258 69.502392 
L 217.758143 71.762325 
L 238.478029 70.544357 
L 259.197914 68.458341 
L 279.917799 77.718266 
" clip-path="url(#p9a26f91d9a)" style="fill: none; stroke: #423f85; stroke-width: 1.5; stroke-linecap: square"/>
   </g>
   <g id="line2d_42">
    <path d="M 51.999062 221.492537 
L 72.718947 219.097688 
L 93.438832 186.178453 
L 114.158717 116.004595 
L 134.878603 80.754446 
L 155.598488 75.838725 
L 176.318373 74.877553 
L 197.038258 73.02922 
L 217.758143 70.648361 
L 238.478029 70.79176 
L 259.197914 68.651117 
L 279.917799 75.639767 
" clip-path="url(#p9a26f91d9a)" style="fill: none; stroke: #453581; stroke-width: 1.5; stroke-linecap: square"/>
   </g>
   <g id="line2d_43">
    <path d="M 51.999062 221.631462 
L 72.718947 218.386273 
L 93.438832 187.395412 
L 114.158717 117.640229 
L 134.878603 80.153469 
L 155.598488 72.750095 
L 176.318373 72.534005 
L 197.038258 73.81217 
L 217.758143 72.632054 
L 238.478029 72.955575 
L 259.197914 68.458667 
L 279.917799 77.267299 
" clip-path="url(#p9a26f91d9a)" style="fill: none; stroke: #472c7a; stroke-width: 1.5; stroke-linecap: square"/>
   </g>
   <g id="line2d_44">
    <path d="M 51.999062 221.631462 
L 72.718947 218.713824 
L 93.438832 189.925813 
L 114.158717 119.575418 
L 134.878603 85.7964 
L 155.598488 78.893767 
L 176.318373 74.899679 
L 197.038258 76.930226 
L 217.758143 74.78263 
L 238.478029 72.140633 
L 259.197914 68.979944 
L 279.917799 77.52869 
" clip-path="url(#p9a26f91d9a)" style="fill: none; stroke: #482173; stroke-width: 1.5; stroke-linecap: square"/>
   </g>
   <g id="line2d_45">
    <path d="M 51.999062 221.631462 
L 72.718947 218.673329 
L 93.438832 192.459366 
L 114.158717 125.889356 
L 134.878603 87.892408 
L 155.598488 75.807715 
L 176.318373 73.921936 
L 197.038258 76.746768 
L 217.758143 75.466998 
L 238.478029 72.783828 
L 259.197914 71.642623 
L 279.917799 76.369387 
" clip-path="url(#p9a26f91d9a)" style="fill: none; stroke: #481769; stroke-width: 1.5; stroke-linecap: square"/>
   </g>
   <g id="line2d_46">
    <path d="M 51.999062 221.431016 
L 72.718947 219.630334 
L 93.438832 189.861822 
L 114.158717 117.761413 
L 134.878603 87.628628 
L 155.598488 77.33803 
L 176.318373 74.26656 
L 197.038258 73.087709 
L 217.758143 75.228486 
L 238.478029 73.426277 
L 259.197914 73.638324 
L 279.917799 74.542406 
" clip-path="url(#p9a26f91d9a)" style="fill: none; stroke: #460b5e; stroke-width: 1.5; stroke-linecap: square"/>
   </g>
   <g id="line2d_47">
    <path d="M 51.999062 221.631462 
L 72.718947 219.329825 
L 93.438832 193.360968 
L 114.158717 124.781796 
L 134.878603 86.788957 
L 155.598488 76.858536 
L 176.318373 74.769812 
L 197.038258 72.506321 
L 217.758143 73.573752 
L 238.478029 73.54307 
L 259.197914 69.204673 
L 279.917799 74.943374 
" clip-path="url(#p9a26f91d9a)" style="fill: none; stroke: #440154; stroke-width: 1.5; stroke-linecap: square"/>
   </g>
   <g id="line2d_48"/>
   <g id="line2d_49"/>
   <g id="line2d_50"/>
   <g id="line2d_51"/>
   <g id="line2d_52"/>
   <g id="line2d_53"/>
   <g id="patch_3">
    <path d="M 40.603125 229.87677 
L 40.603125 48.48 
" style="fill: none; stroke: #000000; stroke-width: 0.8; stroke-linejoin: miter; stroke-linecap: square"/>
   </g>
   <g id="patch_4">
    <path d="M 291.313736 229.87677 
L 291.313736 48.48 
" style="fill: none; stroke: #000000; stroke-width: 0.8; stroke-linejoin: miter; stroke-linecap: square"/>
   </g>
   <g id="patch_5">
    <path d="M 40.603125 229.87677 
L 291.313736 229.87677 
" style="fill: none; stroke: #000000; stroke-width: 0.8; stroke-linejoin: miter; stroke-linecap: square"/>
   </g>
   <g id="patch_6">
    <path d="M 40.603125 48.48 
L 291.313736 48.48 
" style="fill: none; stroke: #000000; stroke-width: 0.8; stroke-linejoin: miter; stroke-linecap: square"/>
   </g>
   <g id="text_20">
    <!-- Male -->
    <g transform="translate(151.74593 42.48) scale(0.12 -0.12)">
     <defs>
      <path id="DejaVuSans-4d" d="M 628 4666 
L 1569 4666 
L 2759 1491 
L 3956 4666 
L 4897 4666 
L 4897 0 
L 4281 0 
L 4281 4097 
L 3078 897 
L 2444 897 
L 1241 4097 
L 1241 0 
L 628 0 
L 628 4666 
z
" transform="scale(0.015625)"/>
      <path id="DejaVuSans-6c" d="M 603 4863 
L 1178 4863 
L 1178 0 
L 603 0 
L 603 4863 
z
" transform="scale(0.015625)"/>
     </defs>
     <use xlink:href="#DejaVuSans-4d"/>
     <use xlink:href="#DejaVuSans-61" x="86.279297"/>
     <use xlink:href="#DejaVuSans-6c" x="147.558594"/>
     <use xlink:href="#DejaVuSans-65" x="175.341797"/>
    </g>
   </g>
   <g id="legend_1">
    <g id="patch_7">
     <path d="M 226.863736 224.87677 
L 284.313736 224.87677 
Q 286.313736 224.87677 286.313736 222.87677 
L 286.313736 121.129895 
Q 286.313736 119.129895 284.313736 119.129895 
L 226.863736 119.129895 
Q 224.863736 119.129895 224.863736 121.129895 
L 224.863736 222.87677 
Q 224.863736 224.87677 226.863736 224.87677 
z
" style="fill: #ffffff; opacity: 0.8; stroke: #cccccc; stroke-linejoin: miter"/>
    </g>
    <g id="text_21">
     <!-- Year -->
     <g transform="translate(245.001236 130.728332) scale(0.1 -0.1)">
      <defs>
       <path id="DejaVuSans-59" d="M -13 4666 
L 666 4666 
L 1959 2747 
L 3244 4666 
L 3922 4666 
L 2272 2222 
L 2272 0 
L 1638 0 
L 1638 2222 
L -13 4666 
z
" transform="scale(0.015625)"/>
       <path id="DejaVuSans-72" d="M 2631 2963 
Q 2534 3019 2420 3045 
Q 2306 3072 2169 3072 
Q 1681 3072 1420 2755 
Q 1159 2438 1159 1844 
L 1159 0 
L 581 0 
L 581 3500 
L 1159 3500 
L 1159 2956 
Q 1341 3275 1631 3429 
Q 1922 3584 2338 3584 
Q 2397 3584 2469 3576 
Q 2541 3569 2628 3553 
L 2631 2963 
z
" transform="scale(0.015625)"/>
      </defs>
      <use xlink:href="#DejaVuSans-59"/>
      <use xlink:href="#DejaVuSans-65" x="47.833984"/>
      <use xlink:href="#DejaVuSans-61" x="109.357422"/>
      <use xlink:href="#DejaVuSans-72" x="170.636719"/>
     </g>
    </g>
    <g id="line2d_54">
     <path d="M 228.863736 141.906457 
L 238.863736 141.906457 
L 248.863736 141.906457 
" style="fill: none; stroke: #eae51a; stroke-width: 1.5; stroke-linecap: square"/>
    </g>
    <g id="text_22">
     <!-- 1992 -->
     <g transform="translate(256.863736 145.406457) scale(0.1 -0.1)">
      <use xlink:href="#DejaVuSans-31"/>
      <use xlink:href="#DejaVuSans-39" x="63.623047"/>
      <use xlink:href="#DejaVuSans-39" x="127.246094"/>
      <use xlink:href="#DejaVuSans-32" x="190.869141"/>
     </g>
    </g>
    <g id="line2d_55">
     <path d="M 228.863736 156.584582 
L 238.863736 156.584582 
L 248.863736 156.584582 
" style="fill: none; stroke: #6ece58; stroke-width: 1.5; stroke-linecap: square"/>
    </g>
    <g id="text_23">
     <!-- 1998 -->
     <g transform="translate(256.863736 160.084582) scale(0.1 -0.1)">
      <use xlink:href="#DejaVuSans-31"/>
      <use xlink:href="#DejaVuSans-39" x="63.623047"/>
      <use xlink:href="#DejaVuSans-39" x="127.246094"/>
      <use xlink:href="#DejaVuSans-38" x="190.869141"/>
     </g>
    </g>
    <g id="line2d_56">
     <path d="M 228.863736 171.262707 
L 238.863736 171.262707 
L 248.863736 171.262707 
" style="fill: none; stroke: #21a685; stroke-width: 1.5; stroke-linecap: square"/>
    </g>
    <g id="text_24">
     <!-- 2004 -->
     <g transform="translate(256.863736 174.762707) scale(0.1 -0.1)">
      <use xlink:href="#DejaVuSans-32"/>
      <use xlink:href="#DejaVuSans-30" x="63.623047"/>
      <use xlink:href="#DejaVuSans-30" x="127.246094"/>
      <use xlink:href="#DejaVuSans-34" x="190.869141"/>
     </g>
    </g>
    <g id="line2d_57">
     <path d="M 228.863736 185.940832 
L 238.863736 185.940832 
L 248.863736 185.940832 
" style="fill: none; stroke: #29798e; stroke-width: 1.5; stroke-linecap: square"/>
    </g>
    <g id="text_25">
     <!-- 2010 -->
     <g transform="translate(256.863736 189.440832) scale(0.1 -0.1)">
      <use xlink:href="#DejaVuSans-32"/>
      <use xlink:href="#DejaVuSans-30" x="63.623047"/>
      <use xlink:href="#DejaVuSans-31" x="127.246094"/>
      <use xlink:href="#DejaVuSans-30" x="190.869141"/>
     </g>
    </g>
    <g id="line2d_58">
     <path d="M 228.863736 200.618957 
L 238.863736 200.618957 
L 248.863736 200.618957 
" style="fill: none; stroke: #3f4889; stroke-width: 1.5; stroke-linecap: square"/>
    </g>
    <g id="text_26">
     <!-- 2016 -->
     <g transform="translate(256.863736 204.118957) scale(0.1 -0.1)">
      <use xlink:href="#DejaVuSans-32"/>
      <use xlink:href="#DejaVuSans-30" x="63.623047"/>
      <use xlink:href="#DejaVuSans-31" x="127.246094"/>
      <use xlink:href="#DejaVuSans-36" x="190.869141"/>
     </g>
    </g>
    <g id="line2d_59">
     <path d="M 228.863736 215.297082 
L 238.863736 215.297082 
L 248.863736 215.297082 
" style="fill: none; stroke: #460b5e; stroke-width: 1.5; stroke-linecap: square"/>
    </g>
    <g id="text_27">
     <!-- 2022 -->
     <g transform="translate(256.863736 218.797082) scale(0.1 -0.1)">
      <use xlink:href="#DejaVuSans-32"/>
      <use xlink:href="#DejaVuSans-30" x="63.623047"/>
      <use xlink:href="#DejaVuSans-32" x="127.246094"/>
      <use xlink:href="#DejaVuSans-32" x="190.869141"/>
     </g>
    </g>
   </g>
  </g>
  <g id="axes_2">
   <g id="patch_8">
    <path d="M 308.582362 229.87677 
L 559.292973 229.87677 
L 559.292973 48.48 
L 308.582362 48.48 
z
" style="fill: #ffffff"/>
   </g>
   <g id="PolyCollection_31"/>
   <g id="PolyCollection_32"/>
   <g id="PolyCollection_33"/>
   <g id="PolyCollection_34"/>
   <g id="PolyCollection_35"/>
   <g id="PolyCollection_36"/>
   <g id="PolyCollection_37"/>
   <g id="PolyCollection_38"/>
   <g id="PolyCollection_39"/>
   <g id="PolyCollection_40"/>
   <g id="PolyCollection_41"/>
   <g id="PolyCollection_42"/>
   <g id="PolyCollection_43"/>
   <g id="PolyCollection_44"/>
   <g id="PolyCollection_45"/>
   <g id="PolyCollection_46"/>
   <g id="PolyCollection_47"/>
   <g id="PolyCollection_48"/>
   <g id="PolyCollection_49"/>
   <g id="PolyCollection_50"/>
   <g id="PolyCollection_51"/>
   <g id="PolyCollection_52"/>
   <g id="PolyCollection_53"/>
   <g id="PolyCollection_54"/>
   <g id="PolyCollection_55"/>
   <g id="PolyCollection_56"/>
   <g id="PolyCollection_57"/>
   <g id="PolyCollection_58"/>
   <g id="PolyCollection_59"/>
   <g id="PolyCollection_60"/>
   <g id="matplotlib.axis_3">
    <g id="xtick_13">
     <g id="line2d_60">
      <g>
       <use xlink:href="#md059487a06" x="319.978299" y="229.87677" style="stroke: #000000; stroke-width: 0.8"/>
      </g>
     </g>
     <g id="text_28">
      <!-- 15-19 -->
      <g transform="translate(311.655984 262.796652) rotate(-45) scale(0.1 -0.1)">
       <use xlink:href="#DejaVuSans-31"/>
       <use xlink:href="#DejaVuSans-35" x="63.623047"/>
       <use xlink:href="#DejaVuSans-2d" x="127.246094"/>
       <use xlink:href="#DejaVuSans-31" x="163.330078"/>
       <use xlink:href="#DejaVuSans-39" x="226.953125"/>
      </g>
     </g>
    </g>
    <g id="xtick_14">
     <g id="line2d_61">
      <g>
       <use xlink:href="#md059487a06" x="340.698184" y="229.87677" style="stroke: #000000; stroke-width: 0.8"/>
      </g>
     </g>
     <g id="text_29">
      <!-- 20-24 -->
      <g transform="translate(332.375869 262.796652) rotate(-45) scale(0.1 -0.1)">
       <use xlink:href="#DejaVuSans-32"/>
       <use xlink:href="#DejaVuSans-30" x="63.623047"/>
       <use xlink:href="#DejaVuSans-2d" x="127.246094"/>
       <use xlink:href="#DejaVuSans-32" x="163.330078"/>
       <use xlink:href="#DejaVuSans-34" x="226.953125"/>
      </g>
     </g>
    </g>
    <g id="xtick_15">
     <g id="line2d_62">
      <g>
       <use xlink:href="#md059487a06" x="361.41807" y="229.87677" style="stroke: #000000; stroke-width: 0.8"/>
      </g>
     </g>
     <g id="text_30">
      <!-- 25-29 -->
      <g transform="translate(353.095754 262.796652) rotate(-45) scale(0.1 -0.1)">
       <use xlink:href="#DejaVuSans-32"/>
       <use xlink:href="#DejaVuSans-35" x="63.623047"/>
       <use xlink:href="#DejaVuSans-2d" x="127.246094"/>
       <use xlink:href="#DejaVuSans-32" x="163.330078"/>
       <use xlink:href="#DejaVuSans-39" x="226.953125"/>
      </g>
     </g>
    </g>
    <g id="xtick_16">
     <g id="line2d_63">
      <g>
       <use xlink:href="#md059487a06" x="382.137955" y="229.87677" style="stroke: #000000; stroke-width: 0.8"/>
      </g>
     </g>
     <g id="text_31">
      <!-- 30-34 -->
      <g transform="translate(373.815639 262.796652) rotate(-45) scale(0.1 -0.1)">
       <use xlink:href="#DejaVuSans-33"/>
       <use xlink:href="#DejaVuSans-30" x="63.623047"/>
       <use xlink:href="#DejaVuSans-2d" x="127.246094"/>
       <use xlink:href="#DejaVuSans-33" x="163.330078"/>
       <use xlink:href="#DejaVuSans-34" x="226.953125"/>
      </g>
     </g>
    </g>
    <g id="xtick_17">
     <g id="line2d_64">
      <g>
       <use xlink:href="#md059487a06" x="402.85784" y="229.87677" style="stroke: #000000; stroke-width: 0.8"/>
      </g>
     </g>
     <g id="text_32">
      <!-- 35-39 -->
      <g transform="translate(394.535525 262.796652) rotate(-45) scale(0.1 -0.1)">
       <use xlink:href="#DejaVuSans-33"/>
       <use xlink:href="#DejaVuSans-35" x="63.623047"/>
       <use xlink:href="#DejaVuSans-2d" x="127.246094"/>
       <use xlink:href="#DejaVuSans-33" x="163.330078"/>
       <use xlink:href="#DejaVuSans-39" x="226.953125"/>
      </g>
     </g>
    </g>
    <g id="xtick_18">
     <g id="line2d_65">
      <g>
       <use xlink:href="#md059487a06" x="423.577725" y="229.87677" style="stroke: #000000; stroke-width: 0.8"/>
      </g>
     </g>
     <g id="text_33">
      <!-- 40-44 -->
      <g transform="translate(415.25541 262.796652) rotate(-45) scale(0.1 -0.1)">
       <use xlink:href="#DejaVuSans-34"/>
       <use xlink:href="#DejaVuSans-30" x="63.623047"/>
       <use xlink:href="#DejaVuSans-2d" x="127.246094"/>
       <use xlink:href="#DejaVuSans-34" x="163.330078"/>
       <use xlink:href="#DejaVuSans-34" x="226.953125"/>
      </g>
     </g>
    </g>
    <g id="xtick_19">
     <g id="line2d_66">
      <g>
       <use xlink:href="#md059487a06" x="444.29761" y="229.87677" style="stroke: #000000; stroke-width: 0.8"/>
      </g>
     </g>
     <g id="text_34">
      <!-- 45-49 -->
      <g transform="translate(435.975295 262.796652) rotate(-45) scale(0.1 -0.1)">
       <use xlink:href="#DejaVuSans-34"/>
       <use xlink:href="#DejaVuSans-35" x="63.623047"/>
       <use xlink:href="#DejaVuSans-2d" x="127.246094"/>
       <use xlink:href="#DejaVuSans-34" x="163.330078"/>
       <use xlink:href="#DejaVuSans-39" x="226.953125"/>
      </g>
     </g>
    </g>
    <g id="xtick_20">
     <g id="line2d_67">
      <g>
       <use xlink:href="#md059487a06" x="465.017496" y="229.87677" style="stroke: #000000; stroke-width: 0.8"/>
      </g>
     </g>
     <g id="text_35">
      <!-- 50-54 -->
      <g transform="translate(456.69518 262.796652) rotate(-45) scale(0.1 -0.1)">
       <use xlink:href="#DejaVuSans-35"/>
       <use xlink:href="#DejaVuSans-30" x="63.623047"/>
       <use xlink:href="#DejaVuSans-2d" x="127.246094"/>
       <use xlink:href="#DejaVuSans-35" x="163.330078"/>
       <use xlink:href="#DejaVuSans-34" x="226.953125"/>
      </g>
     </g>
    </g>
    <g id="xtick_21">
     <g id="line2d_68">
      <g>
       <use xlink:href="#md059487a06" x="485.737381" y="229.87677" style="stroke: #000000; stroke-width: 0.8"/>
      </g>
     </g>
     <g id="text_36">
      <!-- 55-59 -->
      <g transform="translate(477.415065 262.796652) rotate(-45) scale(0.1 -0.1)">
       <use xlink:href="#DejaVuSans-35"/>
       <use xlink:href="#DejaVuSans-35" x="63.623047"/>
       <use xlink:href="#DejaVuSans-2d" x="127.246094"/>
       <use xlink:href="#DejaVuSans-35" x="163.330078"/>
       <use xlink:href="#DejaVuSans-39" x="226.953125"/>
      </g>
     </g>
    </g>
    <g id="xtick_22">
     <g id="line2d_69">
      <g>
       <use xlink:href="#md059487a06" x="506.457266" y="229.87677" style="stroke: #000000; stroke-width: 0.8"/>
      </g>
     </g>
     <g id="text_37">
      <!-- 60-64 -->
      <g transform="translate(498.134951 262.796652) rotate(-45) scale(0.1 -0.1)">
       <use xlink:href="#DejaVuSans-36"/>
       <use xlink:href="#DejaVuSans-30" x="63.623047"/>
       <use xlink:href="#DejaVuSans-2d" x="127.246094"/>
       <use xlink:href="#DejaVuSans-36" x="163.330078"/>
       <use xlink:href="#DejaVuSans-34" x="226.953125"/>
      </g>
     </g>
    </g>
    <g id="xtick_23">
     <g id="line2d_70">
      <g>
       <use xlink:href="#md059487a06" x="527.177151" y="229.87677" style="stroke: #000000; stroke-width: 0.8"/>
      </g>
     </g>
     <g id="text_38">
      <!-- 65-69 -->
      <g transform="translate(518.854836 262.796652) rotate(-45) scale(0.1 -0.1)">
       <use xlink:href="#DejaVuSans-36"/>
       <use xlink:href="#DejaVuSans-35" x="63.623047"/>
       <use xlink:href="#DejaVuSans-2d" x="127.246094"/>
       <use xlink:href="#DejaVuSans-36" x="163.330078"/>
       <use xlink:href="#DejaVuSans-39" x="226.953125"/>
      </g>
     </g>
    </g>
    <g id="xtick_24">
     <g id="line2d_71">
      <g>
       <use xlink:href="#md059487a06" x="547.897036" y="229.87677" style="stroke: #000000; stroke-width: 0.8"/>
      </g>
     </g>
     <g id="text_39">
      <!-- 70+ -->
      <g transform="translate(542.386575 257.172944) rotate(-45) scale(0.1 -0.1)">
       <use xlink:href="#DejaVuSans-37"/>
       <use xlink:href="#DejaVuSans-30" x="63.623047"/>
       <use xlink:href="#DejaVuSans-2b" x="127.246094"/>
      </g>
     </g>
    </g>
    <g id="text_40">
     <!-- Age -->
     <g transform="translate(424.266574 275.865651) scale(0.1 -0.1)">
      <use xlink:href="#DejaVuSans-41"/>
      <use xlink:href="#DejaVuSans-67" x="68.408203"/>
      <use xlink:href="#DejaVuSans-65" x="131.884766"/>
     </g>
    </g>
   </g>
   <g id="matplotlib.axis_4">
    <g id="ytick_6">
     <g id="line2d_72">
      <g>
       <use xlink:href="#m34407b2d32" x="308.582362" y="221.631462" style="stroke: #000000; stroke-width: 0.8"/>
      </g>
     </g>
    </g>
    <g id="ytick_7">
     <g id="line2d_73">
      <g>
       <use xlink:href="#m34407b2d32" x="308.582362" y="185.511103" style="stroke: #000000; stroke-width: 0.8"/>
      </g>
     </g>
    </g>
    <g id="ytick_8">
     <g id="line2d_74">
      <g>
       <use xlink:href="#m34407b2d32" x="308.582362" y="149.390744" style="stroke: #000000; stroke-width: 0.8"/>
      </g>
     </g>
    </g>
    <g id="ytick_9">
     <g id="line2d_75">
      <g>
       <use xlink:href="#m34407b2d32" x="308.582362" y="113.270385" style="stroke: #000000; stroke-width: 0.8"/>
      </g>
     </g>
    </g>
    <g id="ytick_10">
     <g id="line2d_76">
      <g>
       <use xlink:href="#m34407b2d32" x="308.582362" y="77.150025" style="stroke: #000000; stroke-width: 0.8"/>
      </g>
     </g>
    </g>
   </g>
   <g id="line2d_77">
    <path d="M 319.978299 219.369901 
L 340.698184 188.951137 
L 361.41807 116.479315 
L 382.137955 82.939351 
L 402.85784 72.543125 
L 423.577725 73.937927 
L 444.29761 70.665585 
L 465.017496 78.42299 
L 485.737381 91.461866 
L 506.457266 115.154213 
L 527.177151 133.943773 
L 547.897036 177.477542 
" clip-path="url(#paed41cc04a)" style="fill: none; stroke: #fde725; stroke-width: 1.5; stroke-linecap: square"/>
   </g>
   <g id="line2d_78">
    <path d="M 319.978299 219.66305 
L 340.698184 190.143471 
L 361.41807 118.598333 
L 382.137955 84.01214 
L 402.85784 72.85318 
L 423.577725 74.485917 
L 444.29761 71.437111 
L 465.017496 78.277255 
L 485.737381 92.486044 
L 506.457266 115.866774 
L 527.177151 139.539737 
L 547.897036 175.643484 
" clip-path="url(#paed41cc04a)" style="fill: none; stroke: #eae51a; stroke-width: 1.5; stroke-linecap: square"/>
   </g>
   <g id="line2d_79">
    <path d="M 319.978299 219.322398 
L 340.698184 194.350684 
L 361.41807 118.997474 
L 382.137955 83.553635 
L 402.85784 73.78397 
L 423.577725 70.665379 
L 444.29761 71.960319 
L 465.017496 80.346068 
L 485.737381 90.425029 
L 506.457266 107.149571 
L 527.177151 134.374415 
L 547.897036 174.345519 
" clip-path="url(#paed41cc04a)" style="fill: none; stroke: #d5e21a; stroke-width: 1.5; stroke-linecap: square"/>
   </g>
   <g id="line2d_80">
    <path d="M 319.978299 220.205189 
L 340.698184 191.136405 
L 361.41807 115.590041 
L 382.137955 80.498124 
L 402.85784 72.768783 
L 423.577725 73.253831 
L 444.29761 71.770397 
L 465.017496 79.943865 
L 485.737381 92.588091 
L 506.457266 112.073851 
L 527.177151 138.755837 
L 547.897036 177.988421 
" clip-path="url(#paed41cc04a)" style="fill: none; stroke: #c0df25; stroke-width: 1.5; stroke-linecap: square"/>
   </g>
   <g id="line2d_81">
    <path d="M 319.978299 219.537528 
L 340.698184 191.367574 
L 361.41807 114.364091 
L 382.137955 82.508153 
L 402.85784 74.55811 
L 423.577725 72.109368 
L 444.29761 75.078832 
L 465.017496 82.278225 
L 485.737381 92.710429 
L 506.457266 106.940012 
L 527.177151 132.861088 
L 547.897036 176.228776 
" clip-path="url(#paed41cc04a)" style="fill: none; stroke: #95d840; stroke-width: 1.5; stroke-linecap: square"/>
   </g>
   <g id="line2d_82">
    <path d="M 319.978299 219.100506 
L 340.698184 194.2874 
L 361.41807 116.898914 
L 382.137955 80.091737 
L 402.85784 73.757769 
L 423.577725 72.40002 
L 444.29761 75.984853 
L 465.017496 76.344191 
L 485.737381 85.717373 
L 506.457266 102.549401 
L 527.177151 127.312491 
L 547.897036 167.426616 
" clip-path="url(#paed41cc04a)" style="fill: none; stroke: #81d34d; stroke-width: 1.5; stroke-linecap: square"/>
   </g>
   <g id="line2d_83">
    <path d="M 319.978299 219.869493 
L 340.698184 196.647024 
L 361.41807 117.837326 
L 382.137955 79.755664 
L 402.85784 73.674204 
L 423.577725 74.345724 
L 444.29761 78.643077 
L 465.017496 76.773772 
L 485.737381 88.35604 
L 506.457266 100.316404 
L 527.177151 125.77675 
L 547.897036 165.768298 
" clip-path="url(#paed41cc04a)" style="fill: none; stroke: #6ece58; stroke-width: 1.5; stroke-linecap: square"/>
   </g>
   <g id="line2d_84">
    <path d="M 319.978299 220.73473 
L 340.698184 195.805405 
L 361.41807 116.247191 
L 382.137955 77.174122 
L 402.85784 74.16761 
L 423.577725 76.046748 
L 444.29761 79.954934 
L 465.017496 81.076997 
L 485.737381 88.613373 
L 506.457266 110.280693 
L 527.177151 127.941789 
L 547.897036 177.653027 
" clip-path="url(#paed41cc04a)" style="fill: none; stroke: #5cc863; stroke-width: 1.5; stroke-linecap: square"/>
   </g>
   <g id="line2d_85">
    <path d="M 319.978299 219.71757 
L 340.698184 197.071095 
L 361.41807 117.840491 
L 382.137955 79.791774 
L 402.85784 73.815494 
L 423.577725 77.08025 
L 444.29761 79.691019 
L 465.017496 81.970476 
L 485.737381 89.833064 
L 506.457266 104.939306 
L 527.177151 123.691226 
L 547.897036 177.075098 
" clip-path="url(#paed41cc04a)" style="fill: none; stroke: #3dbc74; stroke-width: 1.5; stroke-linecap: square"/>
   </g>
   <g id="line2d_86">
    <path d="M 319.978299 220.748755 
L 340.698184 201.422995 
L 361.41807 125.842664 
L 382.137955 80.176066 
L 402.85784 72.556164 
L 423.577725 77.010295 
L 444.29761 77.764404 
L 465.017496 83.895014 
L 485.737381 87.77366 
L 506.457266 96.994594 
L 527.177151 118.001326 
L 547.897036 173.932585 
" clip-path="url(#paed41cc04a)" style="fill: none; stroke: #31b57b; stroke-width: 1.5; stroke-linecap: square"/>
   </g>
   <g id="line2d_87">
    <path d="M 319.978299 220.779567 
L 340.698184 201.605053 
L 361.41807 125.234899 
L 382.137955 81.768694 
L 402.85784 77.865966 
L 423.577725 76.040763 
L 444.29761 78.16506 
L 465.017496 83.532979 
L 485.737381 87.028011 
L 506.457266 101.582831 
L 527.177151 120.867893 
L 547.897036 171.693007 
" clip-path="url(#paed41cc04a)" style="fill: none; stroke: #27ad81; stroke-width: 1.5; stroke-linecap: square"/>
   </g>
   <g id="line2d_88">
    <path d="M 319.978299 221.158269 
L 340.698184 201.291842 
L 361.41807 131.330564 
L 382.137955 82.7349 
L 402.85784 74.138003 
L 423.577725 74.91368 
L 444.29761 78.615013 
L 465.017496 82.108872 
L 485.737381 87.551176 
L 506.457266 100.306943 
L 527.177151 120.481693 
L 547.897036 170.896729 
" clip-path="url(#paed41cc04a)" style="fill: none; stroke: #21a685; stroke-width: 1.5; stroke-linecap: square"/>
   </g>
   <g id="line2d_89">
    <path d="M 319.978299 221.188086 
L 340.698184 203.327226 
L 361.41807 137.435813 
L 382.137955 86.537507 
L 402.85784 76.611614 
L 423.577725 74.108545 
L 444.29761 78.856146 
L 465.017496 82.087727 
L 485.737381 89.320661 
L 506.457266 99.974217 
L 527.177151 108.250462 
L 547.897036 164.329602 
" clip-path="url(#paed41cc04a)" style="fill: none; stroke: #1f978b; stroke-width: 1.5; stroke-linecap: square"/>
   </g>
   <g id="line2d_90">
    <path d="M 319.978299 221.064868 
L 340.698184 202.444721 
L 361.41807 139.256894 
L 382.137955 86.85768 
L 402.85784 75.470009 
L 423.577725 74.76342 
L 444.29761 77.550868 
L 465.017496 83.448593 
L 485.737381 89.578536 
L 506.457266 96.883355 
L 527.177151 114.102103 
L 547.897036 164.263833 
" clip-path="url(#paed41cc04a)" style="fill: none; stroke: #21908d; stroke-width: 1.5; stroke-linecap: square"/>
   </g>
   <g id="line2d_91">
    <path d="M 319.978299 220.926537 
L 340.698184 206.694471 
L 361.41807 137.62382 
L 382.137955 90.829755 
L 402.85784 76.13414 
L 423.577725 74.192279 
L 444.29761 76.571174 
L 465.017496 83.290238 
L 485.737381 87.021428 
L 506.457266 96.461901 
L 527.177151 112.175828 
L 547.897036 161.841789 
" clip-path="url(#paed41cc04a)" style="fill: none; stroke: #23888e; stroke-width: 1.5; stroke-linecap: square"/>
   </g>
   <g id="line2d_92">
    <path d="M 319.978299 221.085012 
L 340.698184 208.719509 
L 361.41807 141.899954 
L 382.137955 89.028533 
L 402.85784 78.133765 
L 423.577725 75.228486 
L 444.29761 77.802261 
L 465.017496 82.004525 
L 485.737381 89.388379 
L 506.457266 93.09678 
L 527.177151 107.040766 
L 547.897036 156.68186 
" clip-path="url(#paed41cc04a)" style="fill: none; stroke: #26818e; stroke-width: 1.5; stroke-linecap: square"/>
   </g>
   <g id="line2d_93">
    <path d="M 319.978299 221.215009 
L 340.698184 208.551227 
L 361.41807 139.308673 
L 382.137955 90.924941 
L 402.85784 77.694007 
L 423.577725 77.708948 
L 444.29761 77.547195 
L 465.017496 86.120628 
L 485.737381 88.600124 
L 506.457266 98.502141 
L 527.177151 111.413451 
L 547.897036 160.498553 
" clip-path="url(#paed41cc04a)" style="fill: none; stroke: #29798e; stroke-width: 1.5; stroke-linecap: square"/>
   </g>
   <g id="line2d_94">
    <path d="M 319.978299 221.356782 
L 340.698184 210.664318 
L 361.41807 148.418499 
L 382.137955 91.444158 
L 402.85784 79.834799 
L 423.577725 78.285886 
L 444.29761 79.139327 
L 465.017496 82.349871 
L 485.737381 87.584796 
L 506.457266 92.974183 
L 527.177151 106.317639 
L 547.897036 157.978801 
" clip-path="url(#paed41cc04a)" style="fill: none; stroke: #2c718e; stroke-width: 1.5; stroke-linecap: square"/>
   </g>
   <g id="line2d_95">
    <path d="M 319.978299 221.223476 
L 340.698184 212.111367 
L 361.41807 151.701474 
L 382.137955 92.807136 
L 402.85784 79.980775 
L 423.577725 75.15565 
L 444.29761 80.033396 
L 465.017496 78.721466 
L 485.737381 85.913741 
L 506.457266 95.802342 
L 527.177151 105.122188 
L 547.897036 153.627082 
" clip-path="url(#paed41cc04a)" style="fill: none; stroke: #306a8e; stroke-width: 1.5; stroke-linecap: square"/>
   </g>
   <g id="line2d_96">
    <path d="M 319.978299 221.347273 
L 340.698184 212.705508 
L 361.41807 156.442955 
L 382.137955 94.321999 
L 402.85784 80.893786 
L 423.577725 77.792264 
L 444.29761 79.754315 
L 465.017496 83.066291 
L 485.737381 87.10546 
L 506.457266 96.636009 
L 527.177151 107.120285 
L 547.897036 151.640864 
" clip-path="url(#paed41cc04a)" style="fill: none; stroke: #33628d; stroke-width: 1.5; stroke-linecap: square"/>
   </g>
   <g id="line2d_97">
    <path d="M 319.978299 221.331459 
L 340.698184 215.540578 
L 361.41807 161.774867 
L 382.137955 93.344434 
L 402.85784 82.818814 
L 423.577725 81.112789 
L 444.29761 79.094247 
L 465.017496 84.737963 
L 485.737381 86.722644 
L 506.457266 94.259669 
L 527.177151 104.10609 
L 547.897036 149.893022 
" clip-path="url(#paed41cc04a)" style="fill: none; stroke: #375a8c; stroke-width: 1.5; stroke-linecap: square"/>
   </g>
   <g id="line2d_98">
    <path d="M 319.978299 221.335636 
L 340.698184 214.143095 
L 361.41807 157.504737 
L 382.137955 92.324105 
L 402.85784 80.823282 
L 423.577725 81.800053 
L 444.29761 83.880382 
L 465.017496 82.203717 
L 485.737381 89.206449 
L 506.457266 96.020598 
L 527.177151 103.887991 
L 547.897036 159.00342 
" clip-path="url(#paed41cc04a)" style="fill: none; stroke: #3b518b; stroke-width: 1.5; stroke-linecap: square"/>
   </g>
   <g id="line2d_99">
    <path d="M 319.978299 221.182947 
L 340.698184 213.284925 
L 361.41807 158.461327 
L 382.137955 92.341303 
L 402.85784 80.191992 
L 423.577725 80.462373 
L 444.29761 80.265839 
L 465.017496 85.931276 
L 485.737381 87.613463 
L 506.457266 94.536215 
L 527.177151 107.503559 
L 547.897036 151.025822 
" clip-path="url(#paed41cc04a)" style="fill: none; stroke: #3f4889; stroke-width: 1.5; stroke-linecap: square"/>
   </g>
   <g id="line2d_100">
    <path d="M 319.978299 221.478668 
L 340.698184 212.508597 
L 361.41807 159.686602 
L 382.137955 94.645824 
L 402.85784 79.69812 
L 423.577725 79.00515 
L 444.29761 82.186464 
L 465.017496 86.385211 
L 485.737381 89.638582 
L 506.457266 94.817298 
L 527.177151 105.856893 
L 547.897036 148.85591 
" clip-path="url(#paed41cc04a)" style="fill: none; stroke: #423f85; stroke-width: 1.5; stroke-linecap: square"/>
   </g>
   <g id="line2d_101">
    <path d="M 319.978299 221.176163 
L 340.698184 214.163539 
L 361.41807 161.973211 
L 382.137955 95.933646 
L 402.85784 80.208424 
L 423.577725 80.567722 
L 444.29761 83.366916 
L 465.017496 84.116256 
L 485.737381 89.42464 
L 506.457266 96.334177 
L 527.177151 103.472694 
L 547.897036 145.389951 
" clip-path="url(#paed41cc04a)" style="fill: none; stroke: #453581; stroke-width: 1.5; stroke-linecap: square"/>
   </g>
   <g id="line2d_102">
    <path d="M 319.978299 221.472621 
L 340.698184 214.79872 
L 361.41807 163.386335 
L 382.137955 99.062376 
L 402.85784 80.638284 
L 423.577725 80.401521 
L 444.29761 85.583891 
L 465.017496 84.80169 
L 485.737381 85.677823 
L 506.457266 95.251596 
L 527.177151 104.771477 
L 547.897036 141.725562 
" clip-path="url(#paed41cc04a)" style="fill: none; stroke: #472c7a; stroke-width: 1.5; stroke-linecap: square"/>
   </g>
   <g id="line2d_103">
    <path d="M 319.978299 221.631462 
L 340.698184 214.767373 
L 361.41807 169.882351 
L 382.137955 103.752182 
L 402.85784 84.126543 
L 423.577725 83.281072 
L 444.29761 85.955486 
L 465.017496 86.793017 
L 485.737381 90.874835 
L 506.457266 96.43441 
L 527.177151 100.444356 
L 547.897036 145.788622 
" clip-path="url(#paed41cc04a)" style="fill: none; stroke: #482173; stroke-width: 1.5; stroke-linecap: square"/>
   </g>
   <g id="line2d_104">
    <path d="M 319.978299 221.428081 
L 340.698184 213.176322 
L 361.41807 169.895869 
L 382.137955 109.584634 
L 402.85784 86.545365 
L 423.577725 86.152193 
L 444.29761 89.213479 
L 465.017496 84.011025 
L 485.737381 88.886682 
L 506.457266 92.482186 
L 527.177151 97.568428 
L 547.897036 136.642382 
" clip-path="url(#paed41cc04a)" style="fill: none; stroke: #481769; stroke-width: 1.5; stroke-linecap: square"/>
   </g>
   <g id="line2d_105">
    <path d="M 319.978299 221.432122 
L 340.698184 215.836752 
L 361.41807 168.503902 
L 382.137955 102.533142 
L 402.85784 83.654798 
L 423.577725 82.76115 
L 444.29761 87.81509 
L 465.017496 89.466929 
L 485.737381 90.134468 
L 506.457266 93.318645 
L 527.177151 102.922085 
L 547.897036 139.943641 
" clip-path="url(#paed41cc04a)" style="fill: none; stroke: #460b5e; stroke-width: 1.5; stroke-linecap: square"/>
   </g>
   <g id="line2d_106">
    <path d="M 319.978299 221.452648 
L 340.698184 217.142316 
L 361.41807 168.931742 
L 382.137955 105.829183 
L 402.85784 84.090082 
L 423.577725 81.479221 
L 444.29761 82.341637 
L 465.017496 83.880662 
L 485.737381 87.582303 
L 506.457266 88.221492 
L 527.177151 96.304761 
L 547.897036 130.103454 
" clip-path="url(#paed41cc04a)" style="fill: none; stroke: #440154; stroke-width: 1.5; stroke-linecap: square"/>
   </g>
   <g id="line2d_107"/>
   <g id="line2d_108"/>
   <g id="line2d_109"/>
   <g id="line2d_110"/>
   <g id="line2d_111"/>
   <g id="line2d_112"/>
   <g id="patch_9">
    <path d="M 308.582362 229.87677 
L 308.582362 48.48 
" style="fill: none; stroke: #000000; stroke-width: 0.8; stroke-linejoin: miter; stroke-linecap: square"/>
   </g>
   <g id="patch_10">
    <path d="M 559.292973 229.87677 
L 559.292973 48.48 
" style="fill: none; stroke: #000000; stroke-width: 0.8; stroke-linejoin: miter; stroke-linecap: square"/>
   </g>
   <g id="patch_11">
    <path d="M 308.582362 229.87677 
L 559.292973 229.87677 
" style="fill: none; stroke: #000000; stroke-width: 0.8; stroke-linejoin: miter; stroke-linecap: square"/>
   </g>
   <g id="patch_12">
    <path d="M 308.582362 48.48 
L 559.292973 48.48 
" style="fill: none; stroke: #000000; stroke-width: 0.8; stroke-linejoin: miter; stroke-linecap: square"/>
   </g>
   <g id="text_41">
    <!-- Female -->
    <g transform="translate(412.244855 42.48) scale(0.12 -0.12)">
     <defs>
      <path id="DejaVuSans-46" d="M 628 4666 
L 3309 4666 
L 3309 4134 
L 1259 4134 
L 1259 2759 
L 3109 2759 
L 3109 2228 
L 1259 2228 
L 1259 0 
L 628 0 
L 628 4666 
z
" transform="scale(0.015625)"/>
      <path id="DejaVuSans-6d" d="M 3328 2828 
Q 3544 3216 3844 3400 
Q 4144 3584 4550 3584 
Q 5097 3584 5394 3201 
Q 5691 2819 5691 2113 
L 5691 0 
L 5113 0 
L 5113 2094 
Q 5113 2597 4934 2840 
Q 4756 3084 4391 3084 
Q 3944 3084 3684 2787 
Q 3425 2491 3425 1978 
L 3425 0 
L 2847 0 
L 2847 2094 
Q 2847 2600 2669 2842 
Q 2491 3084 2119 3084 
Q 1678 3084 1418 2786 
Q 1159 2488 1159 1978 
L 1159 0 
L 581 0 
L 581 3500 
L 1159 3500 
L 1159 2956 
Q 1356 3278 1631 3431 
Q 1906 3584 2284 3584 
Q 2666 3584 2933 3390 
Q 3200 3197 3328 2828 
z
" transform="scale(0.015625)"/>
     </defs>
     <use xlink:href="#DejaVuSans-46"/>
     <use xlink:href="#DejaVuSans-65" x="52.019531"/>
     <use xlink:href="#DejaVuSans-6d" x="113.542969"/>
     <use xlink:href="#DejaVuSans-61" x="210.955078"/>
     <use xlink:href="#DejaVuSans-6c" x="272.234375"/>
     <use xlink:href="#DejaVuSans-65" x="300.017578"/>
    </g>
   </g>
   <g id="legend_2">
    <g id="patch_13">
     <path d="M 405.212668 224.87677 
L 462.662668 224.87677 
Q 464.662668 224.87677 464.662668 222.87677 
L 464.662668 121.129895 
Q 464.662668 119.129895 462.662668 119.129895 
L 405.212668 119.129895 
Q 403.212668 119.129895 403.212668 121.129895 
L 403.212668 222.87677 
Q 403.212668 224.87677 405.212668 224.87677 
z
" style="fill: #ffffff; opacity: 0.8; stroke: #cccccc; stroke-linejoin: miter"/>
    </g>
    <g id="text_42">
     <!-- Year -->
     <g transform="translate(423.350168 130.728332) scale(0.1 -0.1)">
      <use xlink:href="#DejaVuSans-59"/>
      <use xlink:href="#DejaVuSans-65" x="47.833984"/>
      <use xlink:href="#DejaVuSans-61" x="109.357422"/>
      <use xlink:href="#DejaVuSans-72" x="170.636719"/>
     </g>
    </g>
    <g id="line2d_113">
     <path d="M 407.212668 141.906457 
L 417.212668 141.906457 
L 427.212668 141.906457 
" style="fill: none; stroke: #eae51a; stroke-width: 1.5; stroke-linecap: square"/>
    </g>
    <g id="text_43">
     <!-- 1992 -->
     <g transform="translate(435.212668 145.406457) scale(0.1 -0.1)">
      <use xlink:href="#DejaVuSans-31"/>
      <use xlink:href="#DejaVuSans-39" x="63.623047"/>
      <use xlink:href="#DejaVuSans-39" x="127.246094"/>
      <use xlink:href="#DejaVuSans-32" x="190.869141"/>
     </g>
    </g>
    <g id="line2d_114">
     <path d="M 407.212668 156.584582 
L 417.212668 156.584582 
L 427.212668 156.584582 
" style="fill: none; stroke: #6ece58; stroke-width: 1.5; stroke-linecap: square"/>
    </g>
    <g id="text_44">
     <!-- 1998 -->
     <g transform="translate(435.212668 160.084582) scale(0.1 -0.1)">
      <use xlink:href="#DejaVuSans-31"/>
      <use xlink:href="#DejaVuSans-39" x="63.623047"/>
      <use xlink:href="#DejaVuSans-39" x="127.246094"/>
      <use xlink:href="#DejaVuSans-38" x="190.869141"/>
     </g>
    </g>
    <g id="line2d_115">
     <path d="M 407.212668 171.262707 
L 417.212668 171.262707 
L 427.212668 171.262707 
" style="fill: none; stroke: #21a685; stroke-width: 1.5; stroke-linecap: square"/>
    </g>
    <g id="text_45">
     <!-- 2004 -->
     <g transform="translate(435.212668 174.762707) scale(0.1 -0.1)">
      <use xlink:href="#DejaVuSans-32"/>
      <use xlink:href="#DejaVuSans-30" x="63.623047"/>
      <use xlink:href="#DejaVuSans-30" x="127.246094"/>
      <use xlink:href="#DejaVuSans-34" x="190.869141"/>
     </g>
    </g>
    <g id="line2d_116">
     <path d="M 407.212668 185.940832 
L 417.212668 185.940832 
L 427.212668 185.940832 
" style="fill: none; stroke: #29798e; stroke-width: 1.5; stroke-linecap: square"/>
    </g>
    <g id="text_46">
     <!-- 2010 -->
     <g transform="translate(435.212668 189.440832) scale(0.1 -0.1)">
      <use xlink:href="#DejaVuSans-32"/>
      <use xlink:href="#DejaVuSans-30" x="63.623047"/>
      <use xlink:href="#DejaVuSans-31" x="127.246094"/>
      <use xlink:href="#DejaVuSans-30" x="190.869141"/>
     </g>
    </g>
    <g id="line2d_117">
     <path d="M 407.212668 200.618957 
L 417.212668 200.618957 
L 427.212668 200.618957 
" style="fill: none; stroke: #3f4889; stroke-width: 1.5; stroke-linecap: square"/>
    </g>
    <g id="text_47">
     <!-- 2016 -->
     <g transform="translate(435.212668 204.118957) scale(0.1 -0.1)">
      <use xlink:href="#DejaVuSans-32"/>
      <use xlink:href="#DejaVuSans-30" x="63.623047"/>
      <use xlink:href="#DejaVuSans-31" x="127.246094"/>
      <use xlink:href="#DejaVuSans-36" x="190.869141"/>
     </g>
    </g>
    <g id="line2d_118">
     <path d="M 407.212668 215.297082 
L 417.212668 215.297082 
L 427.212668 215.297082 
" style="fill: none; stroke: #460b5e; stroke-width: 1.5; stroke-linecap: square"/>
    </g>
    <g id="text_48">
     <!-- 2022 -->
     <g transform="translate(435.212668 218.797082) scale(0.1 -0.1)">
      <use xlink:href="#DejaVuSans-32"/>
      <use xlink:href="#DejaVuSans-30" x="63.623047"/>
      <use xlink:href="#DejaVuSans-32" x="127.246094"/>
      <use xlink:href="#DejaVuSans-32" x="190.869141"/>
     </g>
    </g>
   </g>
  </g>
  <g id="text_49">
   <!-- Marriage Rate, by Age-Group, Year -->
   <g transform="translate(179.904063 16.318125) scale(0.12 -0.12)">
    <defs>
     <path id="DejaVuSans-69" d="M 603 3500 
L 1178 3500 
L 1178 0 
L 603 0 
L 603 3500 
z
M 603 4863 
L 1178 4863 
L 1178 4134 
L 603 4134 
L 603 4863 
z
" transform="scale(0.015625)"/>
     <path id="DejaVuSans-20" transform="scale(0.015625)"/>
     <path id="DejaVuSans-2c" d="M 750 794 
L 1409 794 
L 1409 256 
L 897 -744 
L 494 -744 
L 750 256 
L 750 794 
z
" transform="scale(0.015625)"/>
     <path id="DejaVuSans-62" d="M 3116 1747 
Q 3116 2381 2855 2742 
Q 2594 3103 2138 3103 
Q 1681 3103 1420 2742 
Q 1159 2381 1159 1747 
Q 1159 1113 1420 752 
Q 1681 391 2138 391 
Q 2594 391 2855 752 
Q 3116 1113 3116 1747 
z
M 1159 2969 
Q 1341 3281 1617 3432 
Q 1894 3584 2278 3584 
Q 2916 3584 3314 3078 
Q 3713 2572 3713 1747 
Q 3713 922 3314 415 
Q 2916 -91 2278 -91 
Q 1894 -91 1617 61 
Q 1341 213 1159 525 
L 1159 0 
L 581 0 
L 581 4863 
L 1159 4863 
L 1159 2969 
z
" transform="scale(0.015625)"/>
     <path id="DejaVuSans-79" d="M 2059 -325 
Q 1816 -950 1584 -1140 
Q 1353 -1331 966 -1331 
L 506 -1331 
L 506 -850 
L 844 -850 
Q 1081 -850 1212 -737 
Q 1344 -625 1503 -206 
L 1606 56 
L 191 3500 
L 800 3500 
L 1894 763 
L 2988 3500 
L 3597 3500 
L 2059 -325 
z
" transform="scale(0.015625)"/>
     <path id="DejaVuSans-47" d="M 3809 666 
L 3809 1919 
L 2778 1919 
L 2778 2438 
L 4434 2438 
L 4434 434 
Q 4069 175 3628 42 
Q 3188 -91 2688 -91 
Q 1594 -91 976 548 
Q 359 1188 359 2328 
Q 359 3472 976 4111 
Q 1594 4750 2688 4750 
Q 3144 4750 3555 4637 
Q 3966 4525 4313 4306 
L 4313 3634 
Q 3963 3931 3569 4081 
Q 3175 4231 2741 4231 
Q 1884 4231 1454 3753 
Q 1025 3275 1025 2328 
Q 1025 1384 1454 906 
Q 1884 428 2741 428 
Q 3075 428 3337 486 
Q 3600 544 3809 666 
z
" transform="scale(0.015625)"/>
     <path id="DejaVuSans-6f" d="M 1959 3097 
Q 1497 3097 1228 2736 
Q 959 2375 959 1747 
Q 959 1119 1226 758 
Q 1494 397 1959 397 
Q 2419 397 2687 759 
Q 2956 1122 2956 1747 
Q 2956 2369 2687 2733 
Q 2419 3097 1959 3097 
z
M 1959 3584 
Q 2709 3584 3137 3096 
Q 3566 2609 3566 1747 
Q 3566 888 3137 398 
Q 2709 -91 1959 -91 
Q 1206 -91 779 398 
Q 353 888 353 1747 
Q 353 2609 779 3096 
Q 1206 3584 1959 3584 
z
" transform="scale(0.015625)"/>
     <path id="DejaVuSans-75" d="M 544 1381 
L 544 3500 
L 1119 3500 
L 1119 1403 
Q 1119 906 1312 657 
Q 1506 409 1894 409 
Q 2359 409 2629 706 
Q 2900 1003 2900 1516 
L 2900 3500 
L 3475 3500 
L 3475 0 
L 2900 0 
L 2900 538 
Q 2691 219 2414 64 
Q 2138 -91 1772 -91 
Q 1169 -91 856 284 
Q 544 659 544 1381 
z
M 1991 3584 
L 1991 3584 
z
" transform="scale(0.015625)"/>
     <path id="DejaVuSans-70" d="M 1159 525 
L 1159 -1331 
L 581 -1331 
L 581 3500 
L 1159 3500 
L 1159 2969 
Q 1341 3281 1617 3432 
Q 1894 3584 2278 3584 
Q 2916 3584 3314 3078 
Q 3713 2572 3713 1747 
Q 3713 922 3314 415 
Q 2916 -91 2278 -91 
Q 1894 -91 1617 61 
Q 1341 213 1159 525 
z
M 3116 1747 
Q 3116 2381 2855 2742 
Q 2594 3103 2138 3103 
Q 1681 3103 1420 2742 
Q 1159 2381 1159 1747 
Q 1159 1113 1420 752 
Q 1681 391 2138 391 
Q 2594 391 2855 752 
Q 3116 1113 3116 1747 
z
" transform="scale(0.015625)"/>
    </defs>
    <use xlink:href="#DejaVuSans-4d"/>
    <use xlink:href="#DejaVuSans-61" x="86.279297"/>
    <use xlink:href="#DejaVuSans-72" x="147.558594"/>
    <use xlink:href="#DejaVuSans-72" x="186.921875"/>
    <use xlink:href="#DejaVuSans-69" x="228.035156"/>
    <use xlink:href="#DejaVuSans-61" x="255.818359"/>
    <use xlink:href="#DejaVuSans-67" x="317.097656"/>
    <use xlink:href="#DejaVuSans-65" x="380.574219"/>
    <use xlink:href="#DejaVuSans-20" x="442.097656"/>
    <use xlink:href="#DejaVuSans-52" x="473.884766"/>
    <use xlink:href="#DejaVuSans-61" x="541.117188"/>
    <use xlink:href="#DejaVuSans-74" x="602.396484"/>
    <use xlink:href="#DejaVuSans-65" x="641.605469"/>
    <use xlink:href="#DejaVuSans-2c" x="703.128906"/>
    <use xlink:href="#DejaVuSans-20" x="734.916016"/>
    <use xlink:href="#DejaVuSans-62" x="766.703125"/>
    <use xlink:href="#DejaVuSans-79" x="830.179688"/>
    <use xlink:href="#DejaVuSans-20" x="889.359375"/>
    <use xlink:href="#DejaVuSans-41" x="921.146484"/>
    <use xlink:href="#DejaVuSans-67" x="989.554688"/>
    <use xlink:href="#DejaVuSans-65" x="1053.03125"/>
    <use xlink:href="#DejaVuSans-2d" x="1114.554688"/>
    <use xlink:href="#DejaVuSans-47" x="1154.263672"/>
    <use xlink:href="#DejaVuSans-72" x="1231.753906"/>
    <use xlink:href="#DejaVuSans-6f" x="1270.617188"/>
    <use xlink:href="#DejaVuSans-75" x="1331.798828"/>
    <use xlink:href="#DejaVuSans-70" x="1395.177734"/>
    <use xlink:href="#DejaVuSans-2c" x="1458.654297"/>
    <use xlink:href="#DejaVuSans-20" x="1490.441406"/>
    <use xlink:href="#DejaVuSans-59" x="1522.228516"/>
    <use xlink:href="#DejaVuSans-65" x="1570.0625"/>
    <use xlink:href="#DejaVuSans-61" x="1631.585938"/>
    <use xlink:href="#DejaVuSans-72" x="1692.865234"/>
   </g>
  </g>
 </g>
 <defs>
  <clipPath id="p9a26f91d9a">
   <rect x="40.603125" y="48.48" width="250.710611" height="181.39677"/>
  </clipPath>
  <clipPath id="paed41cc04a">
   <rect x="308.582362" y="48.48" width="250.710611" height="181.39677"/>
  </clipPath>
 </defs>
</svg>
