<?xml version="1.0" encoding="utf-8" standalone="no"?>
<!DOCTYPE svg PUBLIC "-//W3C//DTD SVG 1.1//EN"
  "http://www.w3.org/Graphics/SVG/1.1/DTD/svg11.dtd">
<svg xmlns:xlink="http://www.w3.org/1999/xlink" width="717.403125pt" height="256.194375pt" viewBox="0 0 717.403125 256.194375" xmlns="http://www.w3.org/2000/svg" version="1.1">
 <metadata>
  <rdf:RDF xmlns:dc="http://purl.org/dc/elements/1.1/" xmlns:cc="http://creativecommons.org/ns#" xmlns:rdf="http://www.w3.org/1999/02/22-rdf-syntax-ns#">
   <cc:Work>
    <dc:type rdf:resource="http://purl.org/dc/dcmitype/StillImage"/>
    <dc:date>2024-06-10T22:30:52.890902</dc:date>
    <dc:format>image/svg+xml</dc:format>
    <dc:creator>
     <cc:Agent>
      <dc:title>Matplotlib v3.8.4, https://matplotlib.org/</dc:title>
     </cc:Agent>
    </dc:creator>
   </cc:Work>
  </rdf:RDF>
 </metadata>
 <defs>
  <style type="text/css">*{stroke-linejoin: round; stroke-linecap: butt}</style>
 </defs>
 <g id="figure_1">
  <g id="patch_1">
   <path d="M 0 256.194375 
L 717.403125 256.194375 
L 717.403125 0 
L 0 0 
z
" style="fill: #ffffff"/>
  </g>
  <g id="axes_1">
   <g id="patch_2">
    <path d="M 40.603125 218.638125 
L 237.544301 218.638125 
L 237.544301 52.318125 
L 40.603125 52.318125 
z
" style="fill: #ffffff"/>
   </g>
   <g id="PolyCollection_1"/>
   <g id="PolyCollection_2"/>
   <g id="PolyCollection_3"/>
   <g id="matplotlib.axis_1">
    <g id="xtick_1">
     <g id="line2d_1">
      <defs>
       <path id="m301a2b7ece" d="M 0 0 
L 0 3.5 
" style="stroke: #000000; stroke-width: 0.8"/>
      </defs>
      <g>
       <use xlink:href="#m301a2b7ece" x="77.824065" y="218.638125" style="stroke: #000000; stroke-width: 0.8"/>
      </g>
     </g>
     <g id="text_1">
      <!-- 1990 -->
      <g transform="translate(65.099065 233.236563) scale(0.1 -0.1)">
       <defs>
        <path id="DejaVuSans-31" d="M 794 531 
L 1825 531 
L 1825 4091 
L 703 3866 
L 703 4441 
L 1819 4666 
L 2450 4666 
L 2450 531 
L 3481 531 
L 3481 0 
L 794 0 
L 794 531 
z
" transform="scale(0.015625)"/>
        <path id="DejaVuSans-39" d="M 703 97 
L 703 672 
Q 941 559 1184 500 
Q 1428 441 1663 441 
Q 2288 441 2617 861 
Q 2947 1281 2994 2138 
Q 2813 1869 2534 1725 
Q 2256 1581 1919 1581 
Q 1219 1581 811 2004 
Q 403 2428 403 3163 
Q 403 3881 828 4315 
Q 1253 4750 1959 4750 
Q 2769 4750 3195 4129 
Q 3622 3509 3622 2328 
Q 3622 1225 3098 567 
Q 2575 -91 1691 -91 
Q 1453 -91 1209 -44 
Q 966 3 703 97 
z
M 1959 2075 
Q 2384 2075 2632 2365 
Q 2881 2656 2881 3163 
Q 2881 3666 2632 3958 
Q 2384 4250 1959 4250 
Q 1534 4250 1286 3958 
Q 1038 3666 1038 3163 
Q 1038 2656 1286 2365 
Q 1534 2075 1959 2075 
z
" transform="scale(0.015625)"/>
        <path id="DejaVuSans-30" d="M 2034 4250 
Q 1547 4250 1301 3770 
Q 1056 3291 1056 2328 
Q 1056 1369 1301 889 
Q 1547 409 2034 409 
Q 2525 409 2770 889 
Q 3016 1369 3016 2328 
Q 3016 3291 2770 3770 
Q 2525 4250 2034 4250 
z
M 2034 4750 
Q 2819 4750 3233 4129 
Q 3647 3509 3647 2328 
Q 3647 1150 3233 529 
Q 2819 -91 2034 -91 
Q 1250 -91 836 529 
Q 422 1150 422 2328 
Q 422 3509 836 4129 
Q 1250 4750 2034 4750 
z
" transform="scale(0.015625)"/>
       </defs>
       <use xlink:href="#DejaVuSans-31"/>
       <use xlink:href="#DejaVuSans-39" x="63.623047"/>
       <use xlink:href="#DejaVuSans-39" x="127.246094"/>
       <use xlink:href="#DejaVuSans-30" x="190.869141"/>
      </g>
     </g>
    </g>
    <g id="xtick_2">
     <g id="line2d_2">
      <g>
       <use xlink:href="#m301a2b7ece" x="124.939179" y="218.638125" style="stroke: #000000; stroke-width: 0.8"/>
      </g>
     </g>
     <g id="text_2">
      <!-- 2000 -->
      <g transform="translate(112.214179 233.236563) scale(0.1 -0.1)">
       <defs>
        <path id="DejaVuSans-32" d="M 1228 531 
L 3431 531 
L 3431 0 
L 469 0 
L 469 531 
Q 828 903 1448 1529 
Q 2069 2156 2228 2338 
Q 2531 2678 2651 2914 
Q 2772 3150 2772 3378 
Q 2772 3750 2511 3984 
Q 2250 4219 1831 4219 
Q 1534 4219 1204 4116 
Q 875 4013 500 3803 
L 500 4441 
Q 881 4594 1212 4672 
Q 1544 4750 1819 4750 
Q 2544 4750 2975 4387 
Q 3406 4025 3406 3419 
Q 3406 3131 3298 2873 
Q 3191 2616 2906 2266 
Q 2828 2175 2409 1742 
Q 1991 1309 1228 531 
z
" transform="scale(0.015625)"/>
       </defs>
       <use xlink:href="#DejaVuSans-32"/>
       <use xlink:href="#DejaVuSans-30" x="63.623047"/>
       <use xlink:href="#DejaVuSans-30" x="127.246094"/>
       <use xlink:href="#DejaVuSans-30" x="190.869141"/>
      </g>
     </g>
    </g>
    <g id="xtick_3">
     <g id="line2d_3">
      <g>
       <use xlink:href="#m301a2b7ece" x="172.054293" y="218.638125" style="stroke: #000000; stroke-width: 0.8"/>
      </g>
     </g>
     <g id="text_3">
      <!-- 2010 -->
      <g transform="translate(159.329293 233.236563) scale(0.1 -0.1)">
       <use xlink:href="#DejaVuSans-32"/>
       <use xlink:href="#DejaVuSans-30" x="63.623047"/>
       <use xlink:href="#DejaVuSans-31" x="127.246094"/>
       <use xlink:href="#DejaVuSans-30" x="190.869141"/>
      </g>
     </g>
    </g>
    <g id="xtick_4">
     <g id="line2d_4">
      <g>
       <use xlink:href="#m301a2b7ece" x="219.169407" y="218.638125" style="stroke: #000000; stroke-width: 0.8"/>
      </g>
     </g>
     <g id="text_4">
      <!-- 2020 -->
      <g transform="translate(206.444407 233.236563) scale(0.1 -0.1)">
       <use xlink:href="#DejaVuSans-32"/>
       <use xlink:href="#DejaVuSans-30" x="63.623047"/>
       <use xlink:href="#DejaVuSans-32" x="127.246094"/>
       <use xlink:href="#DejaVuSans-30" x="190.869141"/>
      </g>
     </g>
    </g>
    <g id="text_5">
     <!-- Year -->
     <g transform="translate(128.486213 246.914688) scale(0.1 -0.1)">
      <defs>
       <path id="DejaVuSans-59" d="M -13 4666 
L 666 4666 
L 1959 2747 
L 3244 4666 
L 3922 4666 
L 2272 2222 
L 2272 0 
L 1638 0 
L 1638 2222 
L -13 4666 
z
" transform="scale(0.015625)"/>
       <path id="DejaVuSans-65" d="M 3597 1894 
L 3597 1613 
L 953 1613 
Q 991 1019 1311 708 
Q 1631 397 2203 397 
Q 2534 397 2845 478 
Q 3156 559 3463 722 
L 3463 178 
Q 3153 47 2828 -22 
Q 2503 -91 2169 -91 
Q 1331 -91 842 396 
Q 353 884 353 1716 
Q 353 2575 817 3079 
Q 1281 3584 2069 3584 
Q 2775 3584 3186 3129 
Q 3597 2675 3597 1894 
z
M 3022 2063 
Q 3016 2534 2758 2815 
Q 2500 3097 2075 3097 
Q 1594 3097 1305 2825 
Q 1016 2553 972 2059 
L 3022 2063 
z
" transform="scale(0.015625)"/>
       <path id="DejaVuSans-61" d="M 2194 1759 
Q 1497 1759 1228 1600 
Q 959 1441 959 1056 
Q 959 750 1161 570 
Q 1363 391 1709 391 
Q 2188 391 2477 730 
Q 2766 1069 2766 1631 
L 2766 1759 
L 2194 1759 
z
M 3341 1997 
L 3341 0 
L 2766 0 
L 2766 531 
Q 2569 213 2275 61 
Q 1981 -91 1556 -91 
Q 1019 -91 701 211 
Q 384 513 384 1019 
Q 384 1609 779 1909 
Q 1175 2209 1959 2209 
L 2766 2209 
L 2766 2266 
Q 2766 2663 2505 2880 
Q 2244 3097 1772 3097 
Q 1472 3097 1187 3025 
Q 903 2953 641 2809 
L 641 3341 
Q 956 3463 1253 3523 
Q 1550 3584 1831 3584 
Q 2591 3584 2966 3190 
Q 3341 2797 3341 1997 
z
" transform="scale(0.015625)"/>
       <path id="DejaVuSans-72" d="M 2631 2963 
Q 2534 3019 2420 3045 
Q 2306 3072 2169 3072 
Q 1681 3072 1420 2755 
Q 1159 2438 1159 1844 
L 1159 0 
L 581 0 
L 581 3500 
L 1159 3500 
L 1159 2956 
Q 1341 3275 1631 3429 
Q 1922 3584 2338 3584 
Q 2397 3584 2469 3576 
Q 2541 3569 2628 3553 
L 2631 2963 
z
" transform="scale(0.015625)"/>
      </defs>
      <use xlink:href="#DejaVuSans-59"/>
      <use xlink:href="#DejaVuSans-65" x="47.833984"/>
      <use xlink:href="#DejaVuSans-61" x="109.357422"/>
      <use xlink:href="#DejaVuSans-72" x="170.636719"/>
     </g>
    </g>
   </g>
   <g id="matplotlib.axis_2">
    <g id="ytick_1">
     <g id="line2d_5">
      <defs>
       <path id="m9c62a78397" d="M 0 0 
L -3.5 0 
" style="stroke: #000000; stroke-width: 0.8"/>
      </defs>
      <g>
       <use xlink:href="#m9c62a78397" x="40.603125" y="211.852131" style="stroke: #000000; stroke-width: 0.8"/>
      </g>
     </g>
     <g id="text_6">
      <!-- 0 -->
      <g transform="translate(27.240625 215.65135) scale(0.1 -0.1)">
       <use xlink:href="#DejaVuSans-30"/>
      </g>
     </g>
    </g>
    <g id="ytick_2">
     <g id="line2d_6">
      <g>
       <use xlink:href="#m9c62a78397" x="40.603125" y="179.442763" style="stroke: #000000; stroke-width: 0.8"/>
      </g>
     </g>
     <g id="text_7">
      <!-- 20 -->
      <g transform="translate(20.878125 183.241982) scale(0.1 -0.1)">
       <use xlink:href="#DejaVuSans-32"/>
       <use xlink:href="#DejaVuSans-30" x="63.623047"/>
      </g>
     </g>
    </g>
    <g id="ytick_3">
     <g id="line2d_7">
      <g>
       <use xlink:href="#m9c62a78397" x="40.603125" y="147.033396" style="stroke: #000000; stroke-width: 0.8"/>
      </g>
     </g>
     <g id="text_8">
      <!-- 40 -->
      <g transform="translate(20.878125 150.832614) scale(0.1 -0.1)">
       <defs>
        <path id="DejaVuSans-34" d="M 2419 4116 
L 825 1625 
L 2419 1625 
L 2419 4116 
z
M 2253 4666 
L 3047 4666 
L 3047 1625 
L 3713 1625 
L 3713 1100 
L 3047 1100 
L 3047 0 
L 2419 0 
L 2419 1100 
L 313 1100 
L 313 1709 
L 2253 4666 
z
" transform="scale(0.015625)"/>
       </defs>
       <use xlink:href="#DejaVuSans-34"/>
       <use xlink:href="#DejaVuSans-30" x="63.623047"/>
      </g>
     </g>
    </g>
    <g id="ytick_4">
     <g id="line2d_8">
      <g>
       <use xlink:href="#m9c62a78397" x="40.603125" y="114.624028" style="stroke: #000000; stroke-width: 0.8"/>
      </g>
     </g>
     <g id="text_9">
      <!-- 60 -->
      <g transform="translate(20.878125 118.423246) scale(0.1 -0.1)">
       <defs>
        <path id="DejaVuSans-36" d="M 2113 2584 
Q 1688 2584 1439 2293 
Q 1191 2003 1191 1497 
Q 1191 994 1439 701 
Q 1688 409 2113 409 
Q 2538 409 2786 701 
Q 3034 994 3034 1497 
Q 3034 2003 2786 2293 
Q 2538 2584 2113 2584 
z
M 3366 4563 
L 3366 3988 
Q 3128 4100 2886 4159 
Q 2644 4219 2406 4219 
Q 1781 4219 1451 3797 
Q 1122 3375 1075 2522 
Q 1259 2794 1537 2939 
Q 1816 3084 2150 3084 
Q 2853 3084 3261 2657 
Q 3669 2231 3669 1497 
Q 3669 778 3244 343 
Q 2819 -91 2113 -91 
Q 1303 -91 875 529 
Q 447 1150 447 2328 
Q 447 3434 972 4092 
Q 1497 4750 2381 4750 
Q 2619 4750 2861 4703 
Q 3103 4656 3366 4563 
z
" transform="scale(0.015625)"/>
       </defs>
       <use xlink:href="#DejaVuSans-36"/>
       <use xlink:href="#DejaVuSans-30" x="63.623047"/>
      </g>
     </g>
    </g>
    <g id="ytick_5">
     <g id="line2d_9">
      <g>
       <use xlink:href="#m9c62a78397" x="40.603125" y="82.21466" style="stroke: #000000; stroke-width: 0.8"/>
      </g>
     </g>
     <g id="text_10">
      <!-- 80 -->
      <g transform="translate(20.878125 86.013878) scale(0.1 -0.1)">
       <defs>
        <path id="DejaVuSans-38" d="M 2034 2216 
Q 1584 2216 1326 1975 
Q 1069 1734 1069 1313 
Q 1069 891 1326 650 
Q 1584 409 2034 409 
Q 2484 409 2743 651 
Q 3003 894 3003 1313 
Q 3003 1734 2745 1975 
Q 2488 2216 2034 2216 
z
M 1403 2484 
Q 997 2584 770 2862 
Q 544 3141 544 3541 
Q 544 4100 942 4425 
Q 1341 4750 2034 4750 
Q 2731 4750 3128 4425 
Q 3525 4100 3525 3541 
Q 3525 3141 3298 2862 
Q 3072 2584 2669 2484 
Q 3125 2378 3379 2068 
Q 3634 1759 3634 1313 
Q 3634 634 3220 271 
Q 2806 -91 2034 -91 
Q 1263 -91 848 271 
Q 434 634 434 1313 
Q 434 1759 690 2068 
Q 947 2378 1403 2484 
z
M 1172 3481 
Q 1172 3119 1398 2916 
Q 1625 2713 2034 2713 
Q 2441 2713 2670 2916 
Q 2900 3119 2900 3481 
Q 2900 3844 2670 4047 
Q 2441 4250 2034 4250 
Q 1625 4250 1398 4047 
Q 1172 3844 1172 3481 
z
" transform="scale(0.015625)"/>
       </defs>
       <use xlink:href="#DejaVuSans-38"/>
       <use xlink:href="#DejaVuSans-30" x="63.623047"/>
      </g>
     </g>
    </g>
    <g id="text_11">
     <!-- Percent -->
     <g transform="translate(14.798438 154.285938) rotate(-90) scale(0.1 -0.1)">
      <defs>
       <path id="DejaVuSans-50" d="M 1259 4147 
L 1259 2394 
L 2053 2394 
Q 2494 2394 2734 2622 
Q 2975 2850 2975 3272 
Q 2975 3691 2734 3919 
Q 2494 4147 2053 4147 
L 1259 4147 
z
M 628 4666 
L 2053 4666 
Q 2838 4666 3239 4311 
Q 3641 3956 3641 3272 
Q 3641 2581 3239 2228 
Q 2838 1875 2053 1875 
L 1259 1875 
L 1259 0 
L 628 0 
L 628 4666 
z
" transform="scale(0.015625)"/>
       <path id="DejaVuSans-63" d="M 3122 3366 
L 3122 2828 
Q 2878 2963 2633 3030 
Q 2388 3097 2138 3097 
Q 1578 3097 1268 2742 
Q 959 2388 959 1747 
Q 959 1106 1268 751 
Q 1578 397 2138 397 
Q 2388 397 2633 464 
Q 2878 531 3122 666 
L 3122 134 
Q 2881 22 2623 -34 
Q 2366 -91 2075 -91 
Q 1284 -91 818 406 
Q 353 903 353 1747 
Q 353 2603 823 3093 
Q 1294 3584 2113 3584 
Q 2378 3584 2631 3529 
Q 2884 3475 3122 3366 
z
" transform="scale(0.015625)"/>
       <path id="DejaVuSans-6e" d="M 3513 2113 
L 3513 0 
L 2938 0 
L 2938 2094 
Q 2938 2591 2744 2837 
Q 2550 3084 2163 3084 
Q 1697 3084 1428 2787 
Q 1159 2491 1159 1978 
L 1159 0 
L 581 0 
L 581 3500 
L 1159 3500 
L 1159 2956 
Q 1366 3272 1645 3428 
Q 1925 3584 2291 3584 
Q 2894 3584 3203 3211 
Q 3513 2838 3513 2113 
z
" transform="scale(0.015625)"/>
       <path id="DejaVuSans-74" d="M 1172 4494 
L 1172 3500 
L 2356 3500 
L 2356 3053 
L 1172 3053 
L 1172 1153 
Q 1172 725 1289 603 
Q 1406 481 1766 481 
L 2356 481 
L 2356 0 
L 1766 0 
Q 1100 0 847 248 
Q 594 497 594 1153 
L 594 3053 
L 172 3053 
L 172 3500 
L 594 3500 
L 594 4494 
L 1172 4494 
z
" transform="scale(0.015625)"/>
      </defs>
      <use xlink:href="#DejaVuSans-50"/>
      <use xlink:href="#DejaVuSans-65" x="56.677734"/>
      <use xlink:href="#DejaVuSans-72" x="118.201172"/>
      <use xlink:href="#DejaVuSans-63" x="157.064453"/>
      <use xlink:href="#DejaVuSans-65" x="212.044922"/>
      <use xlink:href="#DejaVuSans-6e" x="273.568359"/>
      <use xlink:href="#DejaVuSans-74" x="336.947266"/>
     </g>
    </g>
   </g>
   <g id="line2d_10">
    <path d="M 49.554997 59.878125 
L 54.266508 60.526217 
L 58.978019 60.872813 
L 63.689531 61.88847 
L 68.401042 63.198076 
L 73.112554 63.789671 
L 77.824065 65.328381 
L 82.535576 68.346524 
L 87.247088 69.432045 
L 91.958599 73.523562 
L 96.670111 77.202874 
L 101.381622 80.501389 
L 106.093133 81.641937 
L 110.804645 84.102202 
L 115.516156 85.865833 
L 120.227668 89.06423 
L 124.939179 90.645216 
L 129.65069 92.919054 
L 134.362202 99.435304 
L 139.073713 102.3098 
L 143.785225 97.850027 
L 148.496736 98.366313 
L 153.208247 102.083665 
L 157.919759 104.66446 
L 162.63127 103.484975 
L 167.342782 106.000125 
L 172.054293 103.6645 
L 176.765804 106.98556 
L 181.477316 107.403255 
L 186.188827 116.021318 
L 190.900339 117.742724 
L 195.61185 121.244835 
L 200.323361 122.933422 
L 205.034873 123.519497 
L 209.746384 126.519854 
L 214.457896 127.995725 
L 219.169407 133.368374 
L 223.880918 129.900962 
L 228.59243 129.108409 
" clip-path="url(#pf84d444c48)" style="fill: none; stroke: #1f77b4; stroke-width: 1.5; stroke-linecap: square"/>
   </g>
   <g id="line2d_11">
    <path d="M 49.554997 202.553305 
L 54.266508 202.082351 
L 58.978019 202.001608 
L 63.689531 201.007329 
L 68.401042 200.026712 
L 73.112554 199.549418 
L 77.824065 198.524867 
L 82.535576 195.867876 
L 87.247088 194.79716 
L 91.958599 191.248904 
L 96.670111 188.533594 
L 101.381622 185.396379 
L 106.093133 184.624832 
L 110.804645 182.827008 
L 115.516156 182.247087 
L 120.227668 179.524112 
L 124.939179 179.394289 
L 129.65069 177.874232 
L 134.362202 174.365164 
L 139.073713 172.051153 
L 143.785225 176.526753 
L 148.496736 175.53869 
L 153.208247 174.026874 
L 157.919759 173.807819 
L 162.63127 176.609093 
L 167.342782 174.1952 
L 172.054293 178.940033 
L 176.765804 177.308941 
L 181.477316 177.773077 
L 186.188827 174.474621 
L 190.900339 173.691198 
L 195.61185 167.942112 
L 200.323361 165.982091 
L 205.034873 166.234339 
L 209.746384 166.904833 
L 214.457896 164.43688 
L 219.169407 158.601148 
L 223.880918 162.49588 
L 228.59243 162.442792 
" clip-path="url(#pf84d444c48)" style="fill: none; stroke: #ff7f0e; stroke-width: 1.5; stroke-linecap: square"/>
   </g>
   <g id="line2d_12">
    <path d="M 49.554997 211.078125 
L 54.266508 210.900987 
L 58.978019 210.635134 
L 63.689531 210.613756 
L 68.401042 210.284766 
L 73.112554 210.170466 
L 77.824065 209.656306 
L 82.535576 209.295154 
L 87.247088 209.28035 
L 91.958599 208.737089 
L 96.670111 207.773087 
L 101.381622 207.611787 
L 106.093133 207.242785 
L 110.804645 206.580345 
L 115.516156 205.396635 
L 120.227668 204.921212 
L 124.939179 203.47005 
L 129.65069 202.716269 
L 134.362202 199.709087 
L 139.073713 199.148602 
L 143.785225 199.132774 
L 148.496736 199.604552 
L 153.208247 197.399015 
L 157.919759 195.037276 
L 162.63127 193.415487 
L 167.342782 193.314229 
L 172.054293 190.905022 
L 176.765804 189.215054 
L 181.477316 188.333223 
L 186.188827 183.013616 
L 190.900339 182.075633 
L 195.61185 184.322607 
L 200.323361 184.594042 
L 205.034873 183.755718 
L 209.746384 180.084868 
L 214.457896 181.076949 
L 219.169407 181.540033 
L 223.880918 181.112712 
L 228.59243 181.958353 
" clip-path="url(#pf84d444c48)" style="fill: none; stroke: #2ca02c; stroke-width: 1.5; stroke-linecap: square"/>
   </g>
   <g id="line2d_13"/>
   <g id="line2d_14"/>
   <g id="line2d_15"/>
   <g id="patch_3">
    <path d="M 40.603125 218.638125 
L 40.603125 52.318125 
" style="fill: none; stroke: #000000; stroke-width: 0.8; stroke-linejoin: miter; stroke-linecap: square"/>
   </g>
   <g id="patch_4">
    <path d="M 237.544301 218.638125 
L 237.544301 52.318125 
" style="fill: none; stroke: #000000; stroke-width: 0.8; stroke-linejoin: miter; stroke-linecap: square"/>
   </g>
   <g id="patch_5">
    <path d="M 40.603125 218.638125 
L 237.544301 218.638125 
" style="fill: none; stroke: #000000; stroke-width: 0.8; stroke-linejoin: miter; stroke-linecap: square"/>
   </g>
   <g id="patch_6">
    <path d="M 40.603125 52.318125 
L 237.544301 52.318125 
" style="fill: none; stroke: #000000; stroke-width: 0.8; stroke-linejoin: miter; stroke-linecap: square"/>
   </g>
   <g id="text_12">
    <!-- Groom: Pri/Sec -->
    <g transform="translate(94.510588 16.318125) scale(0.12 -0.12)">
     <defs>
      <path id="DejaVuSans-47" d="M 3809 666 
L 3809 1919 
L 2778 1919 
L 2778 2438 
L 4434 2438 
L 4434 434 
Q 4069 175 3628 42 
Q 3188 -91 2688 -91 
Q 1594 -91 976 548 
Q 359 1188 359 2328 
Q 359 3472 976 4111 
Q 1594 4750 2688 4750 
Q 3144 4750 3555 4637 
Q 3966 4525 4313 4306 
L 4313 3634 
Q 3963 3931 3569 4081 
Q 3175 4231 2741 4231 
Q 1884 4231 1454 3753 
Q 1025 3275 1025 2328 
Q 1025 1384 1454 906 
Q 1884 428 2741 428 
Q 3075 428 3337 486 
Q 3600 544 3809 666 
z
" transform="scale(0.015625)"/>
      <path id="DejaVuSans-6f" d="M 1959 3097 
Q 1497 3097 1228 2736 
Q 959 2375 959 1747 
Q 959 1119 1226 758 
Q 1494 397 1959 397 
Q 2419 397 2687 759 
Q 2956 1122 2956 1747 
Q 2956 2369 2687 2733 
Q 2419 3097 1959 3097 
z
M 1959 3584 
Q 2709 3584 3137 3096 
Q 3566 2609 3566 1747 
Q 3566 888 3137 398 
Q 2709 -91 1959 -91 
Q 1206 -91 779 398 
Q 353 888 353 1747 
Q 353 2609 779 3096 
Q 1206 3584 1959 3584 
z
" transform="scale(0.015625)"/>
      <path id="DejaVuSans-6d" d="M 3328 2828 
Q 3544 3216 3844 3400 
Q 4144 3584 4550 3584 
Q 5097 3584 5394 3201 
Q 5691 2819 5691 2113 
L 5691 0 
L 5113 0 
L 5113 2094 
Q 5113 2597 4934 2840 
Q 4756 3084 4391 3084 
Q 3944 3084 3684 2787 
Q 3425 2491 3425 1978 
L 3425 0 
L 2847 0 
L 2847 2094 
Q 2847 2600 2669 2842 
Q 2491 3084 2119 3084 
Q 1678 3084 1418 2786 
Q 1159 2488 1159 1978 
L 1159 0 
L 581 0 
L 581 3500 
L 1159 3500 
L 1159 2956 
Q 1356 3278 1631 3431 
Q 1906 3584 2284 3584 
Q 2666 3584 2933 3390 
Q 3200 3197 3328 2828 
z
" transform="scale(0.015625)"/>
      <path id="DejaVuSans-3a" d="M 750 794 
L 1409 794 
L 1409 0 
L 750 0 
L 750 794 
z
M 750 3309 
L 1409 3309 
L 1409 2516 
L 750 2516 
L 750 3309 
z
" transform="scale(0.015625)"/>
      <path id="DejaVuSans-20" transform="scale(0.015625)"/>
      <path id="DejaVuSans-69" d="M 603 3500 
L 1178 3500 
L 1178 0 
L 603 0 
L 603 3500 
z
M 603 4863 
L 1178 4863 
L 1178 4134 
L 603 4134 
L 603 4863 
z
" transform="scale(0.015625)"/>
      <path id="DejaVuSans-2f" d="M 1625 4666 
L 2156 4666 
L 531 -594 
L 0 -594 
L 1625 4666 
z
" transform="scale(0.015625)"/>
      <path id="DejaVuSans-53" d="M 3425 4513 
L 3425 3897 
Q 3066 4069 2747 4153 
Q 2428 4238 2131 4238 
Q 1616 4238 1336 4038 
Q 1056 3838 1056 3469 
Q 1056 3159 1242 3001 
Q 1428 2844 1947 2747 
L 2328 2669 
Q 3034 2534 3370 2195 
Q 3706 1856 3706 1288 
Q 3706 609 3251 259 
Q 2797 -91 1919 -91 
Q 1588 -91 1214 -16 
Q 841 59 441 206 
L 441 856 
Q 825 641 1194 531 
Q 1563 422 1919 422 
Q 2459 422 2753 634 
Q 3047 847 3047 1241 
Q 3047 1584 2836 1778 
Q 2625 1972 2144 2069 
L 1759 2144 
Q 1053 2284 737 2584 
Q 422 2884 422 3419 
Q 422 4038 858 4394 
Q 1294 4750 2059 4750 
Q 2388 4750 2728 4690 
Q 3069 4631 3425 4513 
z
" transform="scale(0.015625)"/>
     </defs>
     <use xlink:href="#DejaVuSans-47"/>
     <use xlink:href="#DejaVuSans-72" x="77.490234"/>
     <use xlink:href="#DejaVuSans-6f" x="116.353516"/>
     <use xlink:href="#DejaVuSans-6f" x="177.535156"/>
     <use xlink:href="#DejaVuSans-6d" x="238.716797"/>
     <use xlink:href="#DejaVuSans-3a" x="336.128906"/>
     <use xlink:href="#DejaVuSans-20" x="369.820312"/>
     <use xlink:href="#DejaVuSans-50" x="401.607422"/>
     <use xlink:href="#DejaVuSans-72" x="460.160156"/>
     <use xlink:href="#DejaVuSans-69" x="501.273438"/>
     <use xlink:href="#DejaVuSans-2f" x="529.056641"/>
     <use xlink:href="#DejaVuSans-53" x="562.748047"/>
     <use xlink:href="#DejaVuSans-65" x="626.224609"/>
     <use xlink:href="#DejaVuSans-63" x="687.748047"/>
    </g>
   </g>
   <g id="legend_1">
    <g id="patch_7">
     <path d="M 55.759555 48.848125 
L 222.387871 48.848125 
Q 223.775871 48.848125 223.775871 47.460125 
L 223.775871 24.819381 
Q 223.775871 23.431381 222.387871 23.431381 
L 55.759555 23.431381 
Q 54.371555 23.431381 54.371555 24.819381 
L 54.371555 47.460125 
Q 54.371555 48.848125 55.759555 48.848125 
z
" style="fill: #ffffff; opacity: 0.8; stroke: #cccccc; stroke-linejoin: miter"/>
    </g>
    <g id="text_13">
     <!-- Bride -->
     <g transform="translate(125.947932 33.805819) scale(0.1 -0.1)">
      <defs>
       <path id="DejaVuSans-42" d="M 1259 2228 
L 1259 519 
L 2272 519 
Q 2781 519 3026 730 
Q 3272 941 3272 1375 
Q 3272 1813 3026 2020 
Q 2781 2228 2272 2228 
L 1259 2228 
z
M 1259 4147 
L 1259 2741 
L 2194 2741 
Q 2656 2741 2882 2914 
Q 3109 3088 3109 3444 
Q 3109 3797 2882 3972 
Q 2656 4147 2194 4147 
L 1259 4147 
z
M 628 4666 
L 2241 4666 
Q 2963 4666 3353 4366 
Q 3744 4066 3744 3513 
Q 3744 3084 3544 2831 
Q 3344 2578 2956 2516 
Q 3422 2416 3680 2098 
Q 3938 1781 3938 1306 
Q 3938 681 3513 340 
Q 3088 0 2303 0 
L 628 0 
L 628 4666 
z
" transform="scale(0.015625)"/>
       <path id="DejaVuSans-64" d="M 2906 2969 
L 2906 4863 
L 3481 4863 
L 3481 0 
L 2906 0 
L 2906 525 
Q 2725 213 2448 61 
Q 2172 -91 1784 -91 
Q 1150 -91 751 415 
Q 353 922 353 1747 
Q 353 2572 751 3078 
Q 1150 3584 1784 3584 
Q 2172 3584 2448 3432 
Q 2725 3281 2906 2969 
z
M 947 1747 
Q 947 1113 1208 752 
Q 1469 391 1925 391 
Q 2381 391 2643 752 
Q 2906 1113 2906 1747 
Q 2906 2381 2643 2742 
Q 2381 3103 1925 3103 
Q 1469 3103 1208 2742 
Q 947 2381 947 1747 
z
" transform="scale(0.015625)"/>
      </defs>
      <use xlink:href="#DejaVuSans-42"/>
      <use xlink:href="#DejaVuSans-72" x="68.603516"/>
      <use xlink:href="#DejaVuSans-69" x="109.716797"/>
      <use xlink:href="#DejaVuSans-64" x="137.5"/>
      <use xlink:href="#DejaVuSans-65" x="200.976562"/>
     </g>
    </g>
    <g id="line2d_16">
     <path d="M 57.147555 42.199822 
L 64.087555 42.199822 
L 71.027555 42.199822 
" style="fill: none; stroke: #1f77b4; stroke-width: 1.5; stroke-linecap: square"/>
    </g>
    <g id="text_14">
     <!-- Pri/Sec -->
     <g transform="translate(76.579555 44.628822) scale(0.0694 -0.0694)">
      <use xlink:href="#DejaVuSans-50"/>
      <use xlink:href="#DejaVuSans-72" x="58.552734"/>
      <use xlink:href="#DejaVuSans-69" x="99.666016"/>
      <use xlink:href="#DejaVuSans-2f" x="127.449219"/>
      <use xlink:href="#DejaVuSans-53" x="161.140625"/>
      <use xlink:href="#DejaVuSans-65" x="224.617188"/>
      <use xlink:href="#DejaVuSans-63" x="286.140625"/>
     </g>
    </g>
    <g id="line2d_17">
     <path d="M 114.13363 42.199822 
L 121.07363 42.199822 
L 128.01363 42.199822 
" style="fill: none; stroke: #ff7f0e; stroke-width: 1.5; stroke-linecap: square"/>
    </g>
    <g id="text_15">
     <!-- Diploma -->
     <g transform="translate(133.56563 44.628822) scale(0.0694 -0.0694)">
      <defs>
       <path id="DejaVuSans-44" d="M 1259 4147 
L 1259 519 
L 2022 519 
Q 2988 519 3436 956 
Q 3884 1394 3884 2338 
Q 3884 3275 3436 3711 
Q 2988 4147 2022 4147 
L 1259 4147 
z
M 628 4666 
L 1925 4666 
Q 3281 4666 3915 4102 
Q 4550 3538 4550 2338 
Q 4550 1131 3912 565 
Q 3275 0 1925 0 
L 628 0 
L 628 4666 
z
" transform="scale(0.015625)"/>
       <path id="DejaVuSans-70" d="M 1159 525 
L 1159 -1331 
L 581 -1331 
L 581 3500 
L 1159 3500 
L 1159 2969 
Q 1341 3281 1617 3432 
Q 1894 3584 2278 3584 
Q 2916 3584 3314 3078 
Q 3713 2572 3713 1747 
Q 3713 922 3314 415 
Q 2916 -91 2278 -91 
Q 1894 -91 1617 61 
Q 1341 213 1159 525 
z
M 3116 1747 
Q 3116 2381 2855 2742 
Q 2594 3103 2138 3103 
Q 1681 3103 1420 2742 
Q 1159 2381 1159 1747 
Q 1159 1113 1420 752 
Q 1681 391 2138 391 
Q 2594 391 2855 752 
Q 3116 1113 3116 1747 
z
" transform="scale(0.015625)"/>
       <path id="DejaVuSans-6c" d="M 603 4863 
L 1178 4863 
L 1178 0 
L 603 0 
L 603 4863 
z
" transform="scale(0.015625)"/>
      </defs>
      <use xlink:href="#DejaVuSans-44"/>
      <use xlink:href="#DejaVuSans-69" x="77.001953"/>
      <use xlink:href="#DejaVuSans-70" x="104.785156"/>
      <use xlink:href="#DejaVuSans-6c" x="168.261719"/>
      <use xlink:href="#DejaVuSans-6f" x="196.044922"/>
      <use xlink:href="#DejaVuSans-6d" x="257.226562"/>
      <use xlink:href="#DejaVuSans-61" x="354.638672"/>
     </g>
    </g>
    <g id="line2d_18">
     <path d="M 176.310609 42.199822 
L 183.250609 42.199822 
L 190.190609 42.199822 
" style="fill: none; stroke: #2ca02c; stroke-width: 1.5; stroke-linecap: square"/>
    </g>
    <g id="text_16">
     <!-- Degree -->
     <g transform="translate(195.742609 44.628822) scale(0.0694 -0.0694)">
      <defs>
       <path id="DejaVuSans-67" d="M 2906 1791 
Q 2906 2416 2648 2759 
Q 2391 3103 1925 3103 
Q 1463 3103 1205 2759 
Q 947 2416 947 1791 
Q 947 1169 1205 825 
Q 1463 481 1925 481 
Q 2391 481 2648 825 
Q 2906 1169 2906 1791 
z
M 3481 434 
Q 3481 -459 3084 -895 
Q 2688 -1331 1869 -1331 
Q 1566 -1331 1297 -1286 
Q 1028 -1241 775 -1147 
L 775 -588 
Q 1028 -725 1275 -790 
Q 1522 -856 1778 -856 
Q 2344 -856 2625 -561 
Q 2906 -266 2906 331 
L 2906 616 
Q 2728 306 2450 153 
Q 2172 0 1784 0 
Q 1141 0 747 490 
Q 353 981 353 1791 
Q 353 2603 747 3093 
Q 1141 3584 1784 3584 
Q 2172 3584 2450 3431 
Q 2728 3278 2906 2969 
L 2906 3500 
L 3481 3500 
L 3481 434 
z
" transform="scale(0.015625)"/>
      </defs>
      <use xlink:href="#DejaVuSans-44"/>
      <use xlink:href="#DejaVuSans-65" x="77.001953"/>
      <use xlink:href="#DejaVuSans-67" x="138.525391"/>
      <use xlink:href="#DejaVuSans-72" x="202.001953"/>
      <use xlink:href="#DejaVuSans-65" x="240.865234"/>
      <use xlink:href="#DejaVuSans-65" x="302.388672"/>
     </g>
    </g>
   </g>
  </g>
  <g id="axes_2">
   <g id="patch_8">
    <path d="M 276.932537 218.638125 
L 473.873713 218.638125 
L 473.873713 52.318125 
L 276.932537 52.318125 
z
" style="fill: #ffffff"/>
   </g>
   <g id="PolyCollection_4"/>
   <g id="PolyCollection_5"/>
   <g id="PolyCollection_6"/>
   <g id="matplotlib.axis_3">
    <g id="xtick_5">
     <g id="line2d_19">
      <g>
       <use xlink:href="#m301a2b7ece" x="314.153477" y="218.638125" style="stroke: #000000; stroke-width: 0.8"/>
      </g>
     </g>
     <g id="text_17">
      <!-- 1990 -->
      <g transform="translate(301.428477 233.236563) scale(0.1 -0.1)">
       <use xlink:href="#DejaVuSans-31"/>
       <use xlink:href="#DejaVuSans-39" x="63.623047"/>
       <use xlink:href="#DejaVuSans-39" x="127.246094"/>
       <use xlink:href="#DejaVuSans-30" x="190.869141"/>
      </g>
     </g>
    </g>
    <g id="xtick_6">
     <g id="line2d_20">
      <g>
       <use xlink:href="#m301a2b7ece" x="361.268591" y="218.638125" style="stroke: #000000; stroke-width: 0.8"/>
      </g>
     </g>
     <g id="text_18">
      <!-- 2000 -->
      <g transform="translate(348.543591 233.236563) scale(0.1 -0.1)">
       <use xlink:href="#DejaVuSans-32"/>
       <use xlink:href="#DejaVuSans-30" x="63.623047"/>
       <use xlink:href="#DejaVuSans-30" x="127.246094"/>
       <use xlink:href="#DejaVuSans-30" x="190.869141"/>
      </g>
     </g>
    </g>
    <g id="xtick_7">
     <g id="line2d_21">
      <g>
       <use xlink:href="#m301a2b7ece" x="408.383705" y="218.638125" style="stroke: #000000; stroke-width: 0.8"/>
      </g>
     </g>
     <g id="text_19">
      <!-- 2010 -->
      <g transform="translate(395.658705 233.236563) scale(0.1 -0.1)">
       <use xlink:href="#DejaVuSans-32"/>
       <use xlink:href="#DejaVuSans-30" x="63.623047"/>
       <use xlink:href="#DejaVuSans-31" x="127.246094"/>
       <use xlink:href="#DejaVuSans-30" x="190.869141"/>
      </g>
     </g>
    </g>
    <g id="xtick_8">
     <g id="line2d_22">
      <g>
       <use xlink:href="#m301a2b7ece" x="455.498819" y="218.638125" style="stroke: #000000; stroke-width: 0.8"/>
      </g>
     </g>
     <g id="text_20">
      <!-- 2020 -->
      <g transform="translate(442.773819 233.236563) scale(0.1 -0.1)">
       <use xlink:href="#DejaVuSans-32"/>
       <use xlink:href="#DejaVuSans-30" x="63.623047"/>
       <use xlink:href="#DejaVuSans-32" x="127.246094"/>
       <use xlink:href="#DejaVuSans-30" x="190.869141"/>
      </g>
     </g>
    </g>
    <g id="text_21">
     <!-- Year -->
     <g transform="translate(364.815625 246.914688) scale(0.1 -0.1)">
      <use xlink:href="#DejaVuSans-59"/>
      <use xlink:href="#DejaVuSans-65" x="47.833984"/>
      <use xlink:href="#DejaVuSans-61" x="109.357422"/>
      <use xlink:href="#DejaVuSans-72" x="170.636719"/>
     </g>
    </g>
   </g>
   <g id="matplotlib.axis_4">
    <g id="ytick_6">
     <g id="line2d_23">
      <g>
       <use xlink:href="#m9c62a78397" x="276.932537" y="211.852131" style="stroke: #000000; stroke-width: 0.8"/>
      </g>
     </g>
    </g>
    <g id="ytick_7">
     <g id="line2d_24">
      <g>
       <use xlink:href="#m9c62a78397" x="276.932537" y="179.442763" style="stroke: #000000; stroke-width: 0.8"/>
      </g>
     </g>
    </g>
    <g id="ytick_8">
     <g id="line2d_25">
      <g>
       <use xlink:href="#m9c62a78397" x="276.932537" y="147.033396" style="stroke: #000000; stroke-width: 0.8"/>
      </g>
     </g>
    </g>
    <g id="ytick_9">
     <g id="line2d_26">
      <g>
       <use xlink:href="#m9c62a78397" x="276.932537" y="114.624028" style="stroke: #000000; stroke-width: 0.8"/>
      </g>
     </g>
    </g>
    <g id="ytick_10">
     <g id="line2d_27">
      <g>
       <use xlink:href="#m9c62a78397" x="276.932537" y="82.21466" style="stroke: #000000; stroke-width: 0.8"/>
      </g>
     </g>
    </g>
   </g>
   <g id="line2d_28">
    <path d="M 285.884408 109.937836 
L 290.59592 111.081168 
L 295.307431 112.522305 
L 300.018943 113.100735 
L 304.730454 117.59579 
L 309.441965 118.858801 
L 314.153477 119.759223 
L 318.864988 126.522929 
L 323.5765 128.640797 
L 328.288011 130.542536 
L 332.999522 133.932924 
L 337.711034 139.827583 
L 342.422545 142.71122 
L 347.134057 146.478095 
L 351.845568 147.462418 
L 356.557079 153.573233 
L 361.268591 157.973614 
L 365.980102 159.478885 
L 370.691614 166.10006 
L 375.403125 170.780511 
L 380.114636 170.676045 
L 384.826148 168.649286 
L 389.537659 171.414557 
L 394.249171 175.313236 
L 398.960682 174.527474 
L 403.672193 174.853485 
L 408.383705 176.216896 
L 413.095216 178.461424 
L 417.806728 178.598539 
L 422.518239 180.228577 
L 427.22975 182.615743 
L 431.941262 184.196646 
L 436.652773 184.379095 
L 441.364285 187.552652 
L 446.075796 187.786303 
L 450.787307 187.434919 
L 455.498819 191.640215 
L 460.21033 191.71581 
L 464.921842 192.301964 
" clip-path="url(#p4b324b5075)" style="fill: none; stroke: #1f77b4; stroke-width: 1.5; stroke-linecap: square"/>
   </g>
   <g id="line2d_29">
    <path d="M 285.884408 159.236155 
L 290.59592 159.154878 
L 295.307431 158.03732 
L 300.018943 159.219738 
L 304.730454 155.171868 
L 309.441965 155.388489 
L 314.153477 154.081189 
L 318.864988 147.835569 
L 323.5765 145.685358 
L 328.288011 145.423659 
L 332.999522 143.489711 
L 337.711034 139.189603 
L 342.422545 138.229221 
L 347.134057 135.750695 
L 351.845568 137.609446 
L 356.557079 134.892483 
L 361.268591 133.184261 
L 365.980102 135.463835 
L 370.691614 130.746186 
L 375.403125 128.950856 
L 380.114636 126.53699 
L 384.826148 130.307847 
L 389.537659 129.898647 
L 394.249171 129.838945 
L 398.960682 132.865797 
L 403.672193 135.179367 
L 408.383705 138.209698 
L 413.095216 136.767074 
L 417.806728 137.319911 
L 422.518239 139.109772 
L 427.22975 139.910081 
L 431.941262 136.824707 
L 436.652773 137.880614 
L 441.364285 139.029157 
L 446.075796 141.082964 
L 450.787307 141.127427 
L 455.498819 140.073466 
L 460.21033 139.967924 
L 464.921842 139.323102 
" clip-path="url(#p4b324b5075)" style="fill: none; stroke: #ff7f0e; stroke-width: 1.5; stroke-linecap: square"/>
   </g>
   <g id="line2d_30">
    <path d="M 285.884408 204.335563 
L 290.59592 203.273509 
L 295.307431 202.94993 
L 300.018943 201.189082 
L 304.730454 200.741897 
L 309.441965 199.262265 
L 314.153477 199.669143 
L 318.864988 199.151057 
L 323.5765 199.1834 
L 328.288011 197.54336 
L 332.999522 196.08692 
L 337.711034 194.492368 
L 342.422545 192.569113 
L 347.134057 191.280765 
L 351.845568 188.43769 
L 356.557079 185.043838 
L 361.268591 182.35168 
L 365.980102 178.566835 
L 370.691614 176.663309 
L 375.403125 173.778188 
L 380.114636 176.296519 
L 384.826148 174.552421 
L 389.537659 172.19635 
L 394.249171 168.357374 
L 398.960682 166.116284 
L 403.672193 163.476703 
L 408.383705 159.082961 
L 413.095216 158.281057 
L 417.806728 157.591104 
L 422.518239 154.171205 
L 427.22975 150.98373 
L 431.941262 152.488202 
L 436.652773 151.249845 
L 441.364285 146.927746 
L 446.075796 144.640287 
L 450.787307 144.947208 
L 455.498819 141.795873 
L 460.21033 141.82582 
L 464.921842 141.884488 
" clip-path="url(#p4b324b5075)" style="fill: none; stroke: #2ca02c; stroke-width: 1.5; stroke-linecap: square"/>
   </g>
   <g id="line2d_31"/>
   <g id="line2d_32"/>
   <g id="line2d_33"/>
   <g id="patch_9">
    <path d="M 276.932537 218.638125 
L 276.932537 52.318125 
" style="fill: none; stroke: #000000; stroke-width: 0.8; stroke-linejoin: miter; stroke-linecap: square"/>
   </g>
   <g id="patch_10">
    <path d="M 473.873713 218.638125 
L 473.873713 52.318125 
" style="fill: none; stroke: #000000; stroke-width: 0.8; stroke-linejoin: miter; stroke-linecap: square"/>
   </g>
   <g id="patch_11">
    <path d="M 276.932537 218.638125 
L 473.873713 218.638125 
" style="fill: none; stroke: #000000; stroke-width: 0.8; stroke-linejoin: miter; stroke-linecap: square"/>
   </g>
   <g id="patch_12">
    <path d="M 276.932537 52.318125 
L 473.873713 52.318125 
" style="fill: none; stroke: #000000; stroke-width: 0.8; stroke-linejoin: miter; stroke-linecap: square"/>
   </g>
   <g id="text_22">
    <!-- Groom: Diploma -->
    <g transform="translate(326.352188 16.318125) scale(0.12 -0.12)">
     <use xlink:href="#DejaVuSans-47"/>
     <use xlink:href="#DejaVuSans-72" x="77.490234"/>
     <use xlink:href="#DejaVuSans-6f" x="116.353516"/>
     <use xlink:href="#DejaVuSans-6f" x="177.535156"/>
     <use xlink:href="#DejaVuSans-6d" x="238.716797"/>
     <use xlink:href="#DejaVuSans-3a" x="336.128906"/>
     <use xlink:href="#DejaVuSans-20" x="369.820312"/>
     <use xlink:href="#DejaVuSans-44" x="401.607422"/>
     <use xlink:href="#DejaVuSans-69" x="478.609375"/>
     <use xlink:href="#DejaVuSans-70" x="506.392578"/>
     <use xlink:href="#DejaVuSans-6c" x="569.869141"/>
     <use xlink:href="#DejaVuSans-6f" x="597.652344"/>
     <use xlink:href="#DejaVuSans-6d" x="658.833984"/>
     <use xlink:href="#DejaVuSans-61" x="756.246094"/>
    </g>
   </g>
   <g id="legend_2">
    <g id="patch_13">
     <path d="M 292.088967 48.848125 
L 458.717283 48.848125 
Q 460.105283 48.848125 460.105283 47.460125 
L 460.105283 24.819381 
Q 460.105283 23.431381 458.717283 23.431381 
L 292.088967 23.431381 
Q 290.700967 23.431381 290.700967 24.819381 
L 290.700967 47.460125 
Q 290.700967 48.848125 292.088967 48.848125 
z
" style="fill: #ffffff; opacity: 0.8; stroke: #cccccc; stroke-linejoin: miter"/>
    </g>
    <g id="text_23">
     <!-- Bride -->
     <g transform="translate(362.277344 33.805819) scale(0.1 -0.1)">
      <use xlink:href="#DejaVuSans-42"/>
      <use xlink:href="#DejaVuSans-72" x="68.603516"/>
      <use xlink:href="#DejaVuSans-69" x="109.716797"/>
      <use xlink:href="#DejaVuSans-64" x="137.5"/>
      <use xlink:href="#DejaVuSans-65" x="200.976562"/>
     </g>
    </g>
    <g id="line2d_34">
     <path d="M 293.476967 42.199822 
L 300.416967 42.199822 
L 307.356967 42.199822 
" style="fill: none; stroke: #1f77b4; stroke-width: 1.5; stroke-linecap: square"/>
    </g>
    <g id="text_24">
     <!-- Pri/Sec -->
     <g transform="translate(312.908967 44.628822) scale(0.0694 -0.0694)">
      <use xlink:href="#DejaVuSans-50"/>
      <use xlink:href="#DejaVuSans-72" x="58.552734"/>
      <use xlink:href="#DejaVuSans-69" x="99.666016"/>
      <use xlink:href="#DejaVuSans-2f" x="127.449219"/>
      <use xlink:href="#DejaVuSans-53" x="161.140625"/>
      <use xlink:href="#DejaVuSans-65" x="224.617188"/>
      <use xlink:href="#DejaVuSans-63" x="286.140625"/>
     </g>
    </g>
    <g id="line2d_35">
     <path d="M 350.463042 42.199822 
L 357.403042 42.199822 
L 364.343042 42.199822 
" style="fill: none; stroke: #ff7f0e; stroke-width: 1.5; stroke-linecap: square"/>
    </g>
    <g id="text_25">
     <!-- Diploma -->
     <g transform="translate(369.895042 44.628822) scale(0.0694 -0.0694)">
      <use xlink:href="#DejaVuSans-44"/>
      <use xlink:href="#DejaVuSans-69" x="77.001953"/>
      <use xlink:href="#DejaVuSans-70" x="104.785156"/>
      <use xlink:href="#DejaVuSans-6c" x="168.261719"/>
      <use xlink:href="#DejaVuSans-6f" x="196.044922"/>
      <use xlink:href="#DejaVuSans-6d" x="257.226562"/>
      <use xlink:href="#DejaVuSans-61" x="354.638672"/>
     </g>
    </g>
    <g id="line2d_36">
     <path d="M 412.64002 42.199822 
L 419.58002 42.199822 
L 426.52002 42.199822 
" style="fill: none; stroke: #2ca02c; stroke-width: 1.5; stroke-linecap: square"/>
    </g>
    <g id="text_26">
     <!-- Degree -->
     <g transform="translate(432.07202 44.628822) scale(0.0694 -0.0694)">
      <use xlink:href="#DejaVuSans-44"/>
      <use xlink:href="#DejaVuSans-65" x="77.001953"/>
      <use xlink:href="#DejaVuSans-67" x="138.525391"/>
      <use xlink:href="#DejaVuSans-72" x="202.001953"/>
      <use xlink:href="#DejaVuSans-65" x="240.865234"/>
      <use xlink:href="#DejaVuSans-65" x="302.388672"/>
     </g>
    </g>
   </g>
  </g>
  <g id="axes_3">
   <g id="patch_14">
    <path d="M 513.261949 218.638125 
L 710.203125 218.638125 
L 710.203125 52.318125 
L 513.261949 52.318125 
z
" style="fill: #ffffff"/>
   </g>
   <g id="PolyCollection_7"/>
   <g id="PolyCollection_8"/>
   <g id="PolyCollection_9"/>
   <g id="matplotlib.axis_5">
    <g id="xtick_9">
     <g id="line2d_37">
      <g>
       <use xlink:href="#m301a2b7ece" x="550.482889" y="218.638125" style="stroke: #000000; stroke-width: 0.8"/>
      </g>
     </g>
     <g id="text_27">
      <!-- 1990 -->
      <g transform="translate(537.757889 233.236563) scale(0.1 -0.1)">
       <use xlink:href="#DejaVuSans-31"/>
       <use xlink:href="#DejaVuSans-39" x="63.623047"/>
       <use xlink:href="#DejaVuSans-39" x="127.246094"/>
       <use xlink:href="#DejaVuSans-30" x="190.869141"/>
      </g>
     </g>
    </g>
    <g id="xtick_10">
     <g id="line2d_38">
      <g>
       <use xlink:href="#m301a2b7ece" x="597.598003" y="218.638125" style="stroke: #000000; stroke-width: 0.8"/>
      </g>
     </g>
     <g id="text_28">
      <!-- 2000 -->
      <g transform="translate(584.873003 233.236563) scale(0.1 -0.1)">
       <use xlink:href="#DejaVuSans-32"/>
       <use xlink:href="#DejaVuSans-30" x="63.623047"/>
       <use xlink:href="#DejaVuSans-30" x="127.246094"/>
       <use xlink:href="#DejaVuSans-30" x="190.869141"/>
      </g>
     </g>
    </g>
    <g id="xtick_11">
     <g id="line2d_39">
      <g>
       <use xlink:href="#m301a2b7ece" x="644.713117" y="218.638125" style="stroke: #000000; stroke-width: 0.8"/>
      </g>
     </g>
     <g id="text_29">
      <!-- 2010 -->
      <g transform="translate(631.988117 233.236563) scale(0.1 -0.1)">
       <use xlink:href="#DejaVuSans-32"/>
       <use xlink:href="#DejaVuSans-30" x="63.623047"/>
       <use xlink:href="#DejaVuSans-31" x="127.246094"/>
       <use xlink:href="#DejaVuSans-30" x="190.869141"/>
      </g>
     </g>
    </g>
    <g id="xtick_12">
     <g id="line2d_40">
      <g>
       <use xlink:href="#m301a2b7ece" x="691.828231" y="218.638125" style="stroke: #000000; stroke-width: 0.8"/>
      </g>
     </g>
     <g id="text_30">
      <!-- 2020 -->
      <g transform="translate(679.103231 233.236563) scale(0.1 -0.1)">
       <use xlink:href="#DejaVuSans-32"/>
       <use xlink:href="#DejaVuSans-30" x="63.623047"/>
       <use xlink:href="#DejaVuSans-32" x="127.246094"/>
       <use xlink:href="#DejaVuSans-30" x="190.869141"/>
      </g>
     </g>
    </g>
    <g id="text_31">
     <!-- Year -->
     <g transform="translate(601.145037 246.914688) scale(0.1 -0.1)">
      <use xlink:href="#DejaVuSans-59"/>
      <use xlink:href="#DejaVuSans-65" x="47.833984"/>
      <use xlink:href="#DejaVuSans-61" x="109.357422"/>
      <use xlink:href="#DejaVuSans-72" x="170.636719"/>
     </g>
    </g>
   </g>
   <g id="matplotlib.axis_6">
    <g id="ytick_11">
     <g id="line2d_41">
      <g>
       <use xlink:href="#m9c62a78397" x="513.261949" y="211.852131" style="stroke: #000000; stroke-width: 0.8"/>
      </g>
     </g>
    </g>
    <g id="ytick_12">
     <g id="line2d_42">
      <g>
       <use xlink:href="#m9c62a78397" x="513.261949" y="179.442763" style="stroke: #000000; stroke-width: 0.8"/>
      </g>
     </g>
    </g>
    <g id="ytick_13">
     <g id="line2d_43">
      <g>
       <use xlink:href="#m9c62a78397" x="513.261949" y="147.033396" style="stroke: #000000; stroke-width: 0.8"/>
      </g>
     </g>
    </g>
    <g id="ytick_14">
     <g id="line2d_44">
      <g>
       <use xlink:href="#m9c62a78397" x="513.261949" y="114.624028" style="stroke: #000000; stroke-width: 0.8"/>
      </g>
     </g>
    </g>
    <g id="ytick_15">
     <g id="line2d_45">
      <g>
       <use xlink:href="#m9c62a78397" x="513.261949" y="82.21466" style="stroke: #000000; stroke-width: 0.8"/>
      </g>
     </g>
    </g>
   </g>
   <g id="line2d_46">
    <path d="M 522.21382 160.549492 
L 526.925332 163.492128 
L 531.636843 171.538523 
L 536.348354 169.854471 
L 541.059866 171.132669 
L 545.771377 172.313258 
L 550.482889 173.983463 
L 555.1944 176.35204 
L 559.905911 179.03566 
L 564.617423 181.409677 
L 569.328934 183.310041 
L 574.040446 186.084574 
L 578.751957 190.321916 
L 583.463468 190.836728 
L 588.17498 191.064052 
L 592.886491 194.912126 
L 597.598003 195.864626 
L 602.309514 195.164164 
L 607.021025 195.589532 
L 611.732537 198.38074 
L 616.444048 198.493933 
L 621.15556 197.965698 
L 625.867071 200.136384 
L 630.578582 200.028802 
L 635.290094 201.267366 
L 640.001605 201.49176 
L 644.713117 201.525617 
L 649.424628 202.123513 
L 654.136139 203.370026 
L 658.847651 202.743769 
L 663.559162 203.453771 
L 668.270674 205.014426 
L 672.982185 206.007056 
L 677.693696 206.30646 
L 682.405208 206.345305 
L 687.116719 206.555756 
L 691.828231 207.607169 
L 696.539742 208.09695 
L 701.251253 207.410629 
" clip-path="url(#p116eab7bc5)" style="fill: none; stroke: #1f77b4; stroke-width: 1.5; stroke-linecap: square"/>
   </g>
   <g id="line2d_47">
    <path d="M 522.21382 169.054208 
L 526.925332 172.383836 
L 531.636843 170.944219 
L 536.348354 170.323718 
L 541.059866 174.318205 
L 545.771377 172.6607 
L 550.482889 171.833192 
L 555.1944 174.676998 
L 559.905911 173.425583 
L 564.617423 172.513864 
L 569.328934 171.990106 
L 574.040446 172.941638 
L 578.751957 172.213035 
L 583.463468 172.577929 
L 588.17498 175.37907 
L 592.886491 174.50883 
L 597.598003 176.187697 
L 602.309514 177.781977 
L 607.021025 177.983299 
L 611.732537 178.07038 
L 616.444048 179.680553 
L 621.15556 178.866084 
L 625.867071 180.652131 
L 630.578582 181.977464 
L 635.290094 183.188142 
L 640.001605 183.925617 
L 644.713117 184.675315 
L 649.424628 186.209235 
L 654.136139 186.291384 
L 658.847651 186.89932 
L 663.559162 189.349347 
L 668.270674 186.830193 
L 672.982185 188.389698 
L 677.693696 188.575751 
L 682.405208 189.942271 
L 687.116719 190.485914 
L 691.828231 192.30377 
L 696.539742 193.171898 
L 701.251253 192.250605 
" clip-path="url(#p116eab7bc5)" style="fill: none; stroke: #ff7f0e; stroke-width: 1.5; stroke-linecap: square"/>
   </g>
   <g id="line2d_48">
    <path d="M 522.21382 143.905855 
L 526.925332 137.63359 
L 531.636843 131.026813 
L 536.348354 133.331365 
L 541.059866 128.05868 
L 545.771377 128.535596 
L 550.482889 127.692899 
L 555.1944 122.480517 
L 559.905911 121.048311 
L 564.617423 119.586014 
L 569.328934 118.209408 
L 574.040446 114.483343 
L 578.751957 110.974604 
L 583.463468 110.094897 
L 588.17498 107.066433 
L 592.886491 104.088599 
L 597.598003 101.457231 
L 602.309514 100.563414 
L 607.021025 99.936723 
L 611.732537 97.058435 
L 616.444048 95.335068 
L 621.15556 96.677773 
L 625.867071 92.721039 
L 630.578582 91.503289 
L 635.290094 89.054047 
L 640.001605 88.092178 
L 644.713117 87.308623 
L 649.424628 85.176806 
L 654.136139 83.848144 
L 658.847651 83.866466 
L 663.559162 80.706437 
L 668.270674 81.664935 
L 672.982185 79.1128 
L 677.693696 78.627344 
L 682.405208 77.221978 
L 687.116719 76.467884 
L 691.828231 73.598616 
L 696.539742 72.240707 
L 701.251253 73.84832 
" clip-path="url(#p116eab7bc5)" style="fill: none; stroke: #2ca02c; stroke-width: 1.5; stroke-linecap: square"/>
   </g>
   <g id="line2d_49"/>
   <g id="line2d_50"/>
   <g id="line2d_51"/>
   <g id="patch_15">
    <path d="M 513.261949 218.638125 
L 513.261949 52.318125 
" style="fill: none; stroke: #000000; stroke-width: 0.8; stroke-linejoin: miter; stroke-linecap: square"/>
   </g>
   <g id="patch_16">
    <path d="M 710.203125 218.638125 
L 710.203125 52.318125 
" style="fill: none; stroke: #000000; stroke-width: 0.8; stroke-linejoin: miter; stroke-linecap: square"/>
   </g>
   <g id="patch_17">
    <path d="M 513.261949 218.638125 
L 710.203125 218.638125 
" style="fill: none; stroke: #000000; stroke-width: 0.8; stroke-linejoin: miter; stroke-linecap: square"/>
   </g>
   <g id="patch_18">
    <path d="M 513.261949 52.318125 
L 710.203125 52.318125 
" style="fill: none; stroke: #000000; stroke-width: 0.8; stroke-linejoin: miter; stroke-linecap: square"/>
   </g>
   <g id="text_32">
    <!-- Groom: Degree -->
    <g transform="translate(565.800662 16.318125) scale(0.12 -0.12)">
     <use xlink:href="#DejaVuSans-47"/>
     <use xlink:href="#DejaVuSans-72" x="77.490234"/>
     <use xlink:href="#DejaVuSans-6f" x="116.353516"/>
     <use xlink:href="#DejaVuSans-6f" x="177.535156"/>
     <use xlink:href="#DejaVuSans-6d" x="238.716797"/>
     <use xlink:href="#DejaVuSans-3a" x="336.128906"/>
     <use xlink:href="#DejaVuSans-20" x="369.820312"/>
     <use xlink:href="#DejaVuSans-44" x="401.607422"/>
     <use xlink:href="#DejaVuSans-65" x="478.609375"/>
     <use xlink:href="#DejaVuSans-67" x="540.132812"/>
     <use xlink:href="#DejaVuSans-72" x="603.609375"/>
     <use xlink:href="#DejaVuSans-65" x="642.472656"/>
     <use xlink:href="#DejaVuSans-65" x="703.996094"/>
    </g>
   </g>
   <g id="legend_3">
    <g id="patch_19">
     <path d="M 528.418379 48.848125 
L 695.046695 48.848125 
Q 696.434695 48.848125 696.434695 47.460125 
L 696.434695 24.819381 
Q 696.434695 23.431381 695.046695 23.431381 
L 528.418379 23.431381 
Q 527.030379 23.431381 527.030379 24.819381 
L 527.030379 47.460125 
Q 527.030379 48.848125 528.418379 48.848125 
z
" style="fill: #ffffff; opacity: 0.8; stroke: #cccccc; stroke-linejoin: miter"/>
    </g>
    <g id="text_33">
     <!-- Bride -->
     <g transform="translate(598.606756 33.805819) scale(0.1 -0.1)">
      <use xlink:href="#DejaVuSans-42"/>
      <use xlink:href="#DejaVuSans-72" x="68.603516"/>
      <use xlink:href="#DejaVuSans-69" x="109.716797"/>
      <use xlink:href="#DejaVuSans-64" x="137.5"/>
      <use xlink:href="#DejaVuSans-65" x="200.976562"/>
     </g>
    </g>
    <g id="line2d_52">
     <path d="M 529.806379 42.199822 
L 536.746379 42.199822 
L 543.686379 42.199822 
" style="fill: none; stroke: #1f77b4; stroke-width: 1.5; stroke-linecap: square"/>
    </g>
    <g id="text_34">
     <!-- Pri/Sec -->
     <g transform="translate(549.238379 44.628822) scale(0.0694 -0.0694)">
      <use xlink:href="#DejaVuSans-50"/>
      <use xlink:href="#DejaVuSans-72" x="58.552734"/>
      <use xlink:href="#DejaVuSans-69" x="99.666016"/>
      <use xlink:href="#DejaVuSans-2f" x="127.449219"/>
      <use xlink:href="#DejaVuSans-53" x="161.140625"/>
      <use xlink:href="#DejaVuSans-65" x="224.617188"/>
      <use xlink:href="#DejaVuSans-63" x="286.140625"/>
     </g>
    </g>
    <g id="line2d_53">
     <path d="M 586.792454 42.199822 
L 593.732454 42.199822 
L 600.672454 42.199822 
" style="fill: none; stroke: #ff7f0e; stroke-width: 1.5; stroke-linecap: square"/>
    </g>
    <g id="text_35">
     <!-- Diploma -->
     <g transform="translate(606.224454 44.628822) scale(0.0694 -0.0694)">
      <use xlink:href="#DejaVuSans-44"/>
      <use xlink:href="#DejaVuSans-69" x="77.001953"/>
      <use xlink:href="#DejaVuSans-70" x="104.785156"/>
      <use xlink:href="#DejaVuSans-6c" x="168.261719"/>
      <use xlink:href="#DejaVuSans-6f" x="196.044922"/>
      <use xlink:href="#DejaVuSans-6d" x="257.226562"/>
      <use xlink:href="#DejaVuSans-61" x="354.638672"/>
     </g>
    </g>
    <g id="line2d_54">
     <path d="M 648.969432 42.199822 
L 655.909432 42.199822 
L 662.849432 42.199822 
" style="fill: none; stroke: #2ca02c; stroke-width: 1.5; stroke-linecap: square"/>
    </g>
    <g id="text_36">
     <!-- Degree -->
     <g transform="translate(668.401432 44.628822) scale(0.0694 -0.0694)">
      <use xlink:href="#DejaVuSans-44"/>
      <use xlink:href="#DejaVuSans-65" x="77.001953"/>
      <use xlink:href="#DejaVuSans-67" x="138.525391"/>
      <use xlink:href="#DejaVuSans-72" x="202.001953"/>
      <use xlink:href="#DejaVuSans-65" x="240.865234"/>
      <use xlink:href="#DejaVuSans-65" x="302.388672"/>
     </g>
    </g>
   </g>
  </g>
 </g>
 <defs>
  <clipPath id="pf84d444c48">
   <rect x="40.603125" y="52.318125" width="196.941176" height="166.32"/>
  </clipPath>
  <clipPath id="p4b324b5075">
   <rect x="276.932537" y="52.318125" width="196.941176" height="166.32"/>
  </clipPath>
  <clipPath id="p116eab7bc5">
   <rect x="513.261949" y="52.318125" width="196.941176" height="166.32"/>
  </clipPath>
 </defs>
</svg>
