<?xml version="1.0" encoding="utf-8" standalone="no"?>
<!DOCTYPE svg PUBLIC "-//W3C//DTD SVG 1.1//EN"
  "http://www.w3.org/Graphics/SVG/1.1/DTD/svg11.dtd">
<svg xmlns:xlink="http://www.w3.org/1999/xlink" width="536.325pt" height="363.718125pt" viewBox="0 0 536.325 363.718125" xmlns="http://www.w3.org/2000/svg" version="1.1">
 <metadata>
  <rdf:RDF xmlns:dc="http://purl.org/dc/elements/1.1/" xmlns:cc="http://creativecommons.org/ns#" xmlns:rdf="http://www.w3.org/1999/02/22-rdf-syntax-ns#">
   <cc:Work>
    <dc:type rdf:resource="http://purl.org/dc/dcmitype/StillImage"/>
    <dc:date>2024-06-10T22:30:52.012837</dc:date>
    <dc:format>image/svg+xml</dc:format>
    <dc:creator>
     <cc:Agent>
      <dc:title>Matplotlib v3.8.4, https://matplotlib.org/</dc:title>
     </cc:Agent>
    </dc:creator>
   </cc:Work>
  </rdf:RDF>
 </metadata>
 <defs>
  <style type="text/css">*{stroke-linejoin: round; stroke-linecap: butt}</style>
 </defs>
 <g id="figure_1">
  <g id="patch_1">
   <path d="M 0 363.718125 
L 536.325 363.718125 
L 536.325 0 
L 0 0 
z
" style="fill: #ffffff"/>
  </g>
  <g id="axes_1">
   <g id="patch_2">
    <path d="M 26.925 339.84 
L 529.125 339.84 
L 529.125 7.2 
L 26.925 7.2 
z
" style="fill: #ffffff"/>
   </g>
   <g id="matplotlib.axis_1">
    <g id="xtick_1">
     <g id="line2d_1">
      <defs>
       <path id="m90e878d328" d="M 0 0 
L 0 3.5 
" style="stroke: #000000; stroke-width: 0.8"/>
      </defs>
      <g>
       <use xlink:href="#m90e878d328" x="61.766627" y="339.84" style="stroke: #000000; stroke-width: 0.8"/>
      </g>
     </g>
     <g id="text_1">
      <!-- 1985 -->
      <g transform="translate(49.041627 354.438438) scale(0.1 -0.1)">
       <defs>
        <path id="DejaVuSans-31" d="M 794 531 
L 1825 531 
L 1825 4091 
L 703 3866 
L 703 4441 
L 1819 4666 
L 2450 4666 
L 2450 531 
L 3481 531 
L 3481 0 
L 794 0 
L 794 531 
z
" transform="scale(0.015625)"/>
        <path id="DejaVuSans-39" d="M 703 97 
L 703 672 
Q 941 559 1184 500 
Q 1428 441 1663 441 
Q 2288 441 2617 861 
Q 2947 1281 2994 2138 
Q 2813 1869 2534 1725 
Q 2256 1581 1919 1581 
Q 1219 1581 811 2004 
Q 403 2428 403 3163 
Q 403 3881 828 4315 
Q 1253 4750 1959 4750 
Q 2769 4750 3195 4129 
Q 3622 3509 3622 2328 
Q 3622 1225 3098 567 
Q 2575 -91 1691 -91 
Q 1453 -91 1209 -44 
Q 966 3 703 97 
z
M 1959 2075 
Q 2384 2075 2632 2365 
Q 2881 2656 2881 3163 
Q 2881 3666 2632 3958 
Q 2384 4250 1959 4250 
Q 1534 4250 1286 3958 
Q 1038 3666 1038 3163 
Q 1038 2656 1286 2365 
Q 1534 2075 1959 2075 
z
" transform="scale(0.015625)"/>
        <path id="DejaVuSans-38" d="M 2034 2216 
Q 1584 2216 1326 1975 
Q 1069 1734 1069 1313 
Q 1069 891 1326 650 
Q 1584 409 2034 409 
Q 2484 409 2743 651 
Q 3003 894 3003 1313 
Q 3003 1734 2745 1975 
Q 2488 2216 2034 2216 
z
M 1403 2484 
Q 997 2584 770 2862 
Q 544 3141 544 3541 
Q 544 4100 942 4425 
Q 1341 4750 2034 4750 
Q 2731 4750 3128 4425 
Q 3525 4100 3525 3541 
Q 3525 3141 3298 2862 
Q 3072 2584 2669 2484 
Q 3125 2378 3379 2068 
Q 3634 1759 3634 1313 
Q 3634 634 3220 271 
Q 2806 -91 2034 -91 
Q 1263 -91 848 271 
Q 434 634 434 1313 
Q 434 1759 690 2068 
Q 947 2378 1403 2484 
z
M 1172 3481 
Q 1172 3119 1398 2916 
Q 1625 2713 2034 2713 
Q 2441 2713 2670 2916 
Q 2900 3119 2900 3481 
Q 2900 3844 2670 4047 
Q 2441 4250 2034 4250 
Q 1625 4250 1398 4047 
Q 1172 3844 1172 3481 
z
" transform="scale(0.015625)"/>
        <path id="DejaVuSans-35" d="M 691 4666 
L 3169 4666 
L 3169 4134 
L 1269 4134 
L 1269 2991 
Q 1406 3038 1543 3061 
Q 1681 3084 1819 3084 
Q 2600 3084 3056 2656 
Q 3513 2228 3513 1497 
Q 3513 744 3044 326 
Q 2575 -91 1722 -91 
Q 1428 -91 1123 -41 
Q 819 9 494 109 
L 494 744 
Q 775 591 1075 516 
Q 1375 441 1709 441 
Q 2250 441 2565 725 
Q 2881 1009 2881 1497 
Q 2881 1984 2565 2268 
Q 2250 2553 1709 2553 
Q 1456 2553 1204 2497 
Q 953 2441 691 2322 
L 691 4666 
z
" transform="scale(0.015625)"/>
       </defs>
       <use xlink:href="#DejaVuSans-31"/>
       <use xlink:href="#DejaVuSans-39" x="63.623047"/>
       <use xlink:href="#DejaVuSans-38" x="127.246094"/>
       <use xlink:href="#DejaVuSans-35" x="190.869141"/>
      </g>
     </g>
    </g>
    <g id="xtick_2">
     <g id="line2d_2">
      <g>
       <use xlink:href="#m90e878d328" x="121.838397" y="339.84" style="stroke: #000000; stroke-width: 0.8"/>
      </g>
     </g>
     <g id="text_2">
      <!-- 1990 -->
      <g transform="translate(109.113397 354.438438) scale(0.1 -0.1)">
       <defs>
        <path id="DejaVuSans-30" d="M 2034 4250 
Q 1547 4250 1301 3770 
Q 1056 3291 1056 2328 
Q 1056 1369 1301 889 
Q 1547 409 2034 409 
Q 2525 409 2770 889 
Q 3016 1369 3016 2328 
Q 3016 3291 2770 3770 
Q 2525 4250 2034 4250 
z
M 2034 4750 
Q 2819 4750 3233 4129 
Q 3647 3509 3647 2328 
Q 3647 1150 3233 529 
Q 2819 -91 2034 -91 
Q 1250 -91 836 529 
Q 422 1150 422 2328 
Q 422 3509 836 4129 
Q 1250 4750 2034 4750 
z
" transform="scale(0.015625)"/>
       </defs>
       <use xlink:href="#DejaVuSans-31"/>
       <use xlink:href="#DejaVuSans-39" x="63.623047"/>
       <use xlink:href="#DejaVuSans-39" x="127.246094"/>
       <use xlink:href="#DejaVuSans-30" x="190.869141"/>
      </g>
     </g>
    </g>
    <g id="xtick_3">
     <g id="line2d_3">
      <g>
       <use xlink:href="#m90e878d328" x="181.910167" y="339.84" style="stroke: #000000; stroke-width: 0.8"/>
      </g>
     </g>
     <g id="text_3">
      <!-- 1995 -->
      <g transform="translate(169.185167 354.438438) scale(0.1 -0.1)">
       <use xlink:href="#DejaVuSans-31"/>
       <use xlink:href="#DejaVuSans-39" x="63.623047"/>
       <use xlink:href="#DejaVuSans-39" x="127.246094"/>
       <use xlink:href="#DejaVuSans-35" x="190.869141"/>
      </g>
     </g>
    </g>
    <g id="xtick_4">
     <g id="line2d_4">
      <g>
       <use xlink:href="#m90e878d328" x="241.981938" y="339.84" style="stroke: #000000; stroke-width: 0.8"/>
      </g>
     </g>
     <g id="text_4">
      <!-- 2000 -->
      <g transform="translate(229.256938 354.438438) scale(0.1 -0.1)">
       <defs>
        <path id="DejaVuSans-32" d="M 1228 531 
L 3431 531 
L 3431 0 
L 469 0 
L 469 531 
Q 828 903 1448 1529 
Q 2069 2156 2228 2338 
Q 2531 2678 2651 2914 
Q 2772 3150 2772 3378 
Q 2772 3750 2511 3984 
Q 2250 4219 1831 4219 
Q 1534 4219 1204 4116 
Q 875 4013 500 3803 
L 500 4441 
Q 881 4594 1212 4672 
Q 1544 4750 1819 4750 
Q 2544 4750 2975 4387 
Q 3406 4025 3406 3419 
Q 3406 3131 3298 2873 
Q 3191 2616 2906 2266 
Q 2828 2175 2409 1742 
Q 1991 1309 1228 531 
z
" transform="scale(0.015625)"/>
       </defs>
       <use xlink:href="#DejaVuSans-32"/>
       <use xlink:href="#DejaVuSans-30" x="63.623047"/>
       <use xlink:href="#DejaVuSans-30" x="127.246094"/>
       <use xlink:href="#DejaVuSans-30" x="190.869141"/>
      </g>
     </g>
    </g>
    <g id="xtick_5">
     <g id="line2d_5">
      <g>
       <use xlink:href="#m90e878d328" x="302.053708" y="339.84" style="stroke: #000000; stroke-width: 0.8"/>
      </g>
     </g>
     <g id="text_5">
      <!-- 2005 -->
      <g transform="translate(289.328708 354.438438) scale(0.1 -0.1)">
       <use xlink:href="#DejaVuSans-32"/>
       <use xlink:href="#DejaVuSans-30" x="63.623047"/>
       <use xlink:href="#DejaVuSans-30" x="127.246094"/>
       <use xlink:href="#DejaVuSans-35" x="190.869141"/>
      </g>
     </g>
    </g>
    <g id="xtick_6">
     <g id="line2d_6">
      <g>
       <use xlink:href="#m90e878d328" x="362.125478" y="339.84" style="stroke: #000000; stroke-width: 0.8"/>
      </g>
     </g>
     <g id="text_6">
      <!-- 2010 -->
      <g transform="translate(349.400478 354.438438) scale(0.1 -0.1)">
       <use xlink:href="#DejaVuSans-32"/>
       <use xlink:href="#DejaVuSans-30" x="63.623047"/>
       <use xlink:href="#DejaVuSans-31" x="127.246094"/>
       <use xlink:href="#DejaVuSans-30" x="190.869141"/>
      </g>
     </g>
    </g>
    <g id="xtick_7">
     <g id="line2d_7">
      <g>
       <use xlink:href="#m90e878d328" x="422.197249" y="339.84" style="stroke: #000000; stroke-width: 0.8"/>
      </g>
     </g>
     <g id="text_7">
      <!-- 2015 -->
      <g transform="translate(409.472249 354.438438) scale(0.1 -0.1)">
       <use xlink:href="#DejaVuSans-32"/>
       <use xlink:href="#DejaVuSans-30" x="63.623047"/>
       <use xlink:href="#DejaVuSans-31" x="127.246094"/>
       <use xlink:href="#DejaVuSans-35" x="190.869141"/>
      </g>
     </g>
    </g>
    <g id="xtick_8">
     <g id="line2d_8">
      <g>
       <use xlink:href="#m90e878d328" x="482.269019" y="339.84" style="stroke: #000000; stroke-width: 0.8"/>
      </g>
     </g>
     <g id="text_8">
      <!-- 2020 -->
      <g transform="translate(469.544019 354.438438) scale(0.1 -0.1)">
       <use xlink:href="#DejaVuSans-32"/>
       <use xlink:href="#DejaVuSans-30" x="63.623047"/>
       <use xlink:href="#DejaVuSans-32" x="127.246094"/>
       <use xlink:href="#DejaVuSans-30" x="190.869141"/>
      </g>
     </g>
    </g>
   </g>
   <g id="matplotlib.axis_2">
    <g id="ytick_1">
     <g id="line2d_9">
      <defs>
       <path id="m6da9a375b5" d="M 0 0 
L -3.5 0 
" style="stroke: #000000; stroke-width: 0.8"/>
      </defs>
      <g>
       <use xlink:href="#m6da9a375b5" x="26.925" y="326.268013" style="stroke: #000000; stroke-width: 0.8"/>
      </g>
     </g>
     <g id="text_9">
      <!-- 0 -->
      <g transform="translate(13.5625 330.067232) scale(0.1 -0.1)">
       <use xlink:href="#DejaVuSans-30"/>
      </g>
     </g>
    </g>
    <g id="ytick_2">
     <g id="line2d_10">
      <g>
       <use xlink:href="#m6da9a375b5" x="26.925" y="283.327858" style="stroke: #000000; stroke-width: 0.8"/>
      </g>
     </g>
     <g id="text_10">
      <!-- 10 -->
      <g transform="translate(7.2 287.127077) scale(0.1 -0.1)">
       <use xlink:href="#DejaVuSans-31"/>
       <use xlink:href="#DejaVuSans-30" x="63.623047"/>
      </g>
     </g>
    </g>
    <g id="ytick_3">
     <g id="line2d_11">
      <g>
       <use xlink:href="#m6da9a375b5" x="26.925" y="240.387703" style="stroke: #000000; stroke-width: 0.8"/>
      </g>
     </g>
     <g id="text_11">
      <!-- 20 -->
      <g transform="translate(7.2 244.186922) scale(0.1 -0.1)">
       <use xlink:href="#DejaVuSans-32"/>
       <use xlink:href="#DejaVuSans-30" x="63.623047"/>
      </g>
     </g>
    </g>
    <g id="ytick_4">
     <g id="line2d_12">
      <g>
       <use xlink:href="#m6da9a375b5" x="26.925" y="197.447548" style="stroke: #000000; stroke-width: 0.8"/>
      </g>
     </g>
     <g id="text_12">
      <!-- 30 -->
      <g transform="translate(7.2 201.246767) scale(0.1 -0.1)">
       <defs>
        <path id="DejaVuSans-33" d="M 2597 2516 
Q 3050 2419 3304 2112 
Q 3559 1806 3559 1356 
Q 3559 666 3084 287 
Q 2609 -91 1734 -91 
Q 1441 -91 1130 -33 
Q 819 25 488 141 
L 488 750 
Q 750 597 1062 519 
Q 1375 441 1716 441 
Q 2309 441 2620 675 
Q 2931 909 2931 1356 
Q 2931 1769 2642 2001 
Q 2353 2234 1838 2234 
L 1294 2234 
L 1294 2753 
L 1863 2753 
Q 2328 2753 2575 2939 
Q 2822 3125 2822 3475 
Q 2822 3834 2567 4026 
Q 2313 4219 1838 4219 
Q 1578 4219 1281 4162 
Q 984 4106 628 3988 
L 628 4550 
Q 988 4650 1302 4700 
Q 1616 4750 1894 4750 
Q 2613 4750 3031 4423 
Q 3450 4097 3450 3541 
Q 3450 3153 3228 2886 
Q 3006 2619 2597 2516 
z
" transform="scale(0.015625)"/>
       </defs>
       <use xlink:href="#DejaVuSans-33"/>
       <use xlink:href="#DejaVuSans-30" x="63.623047"/>
      </g>
     </g>
    </g>
    <g id="ytick_5">
     <g id="line2d_13">
      <g>
       <use xlink:href="#m6da9a375b5" x="26.925" y="154.507393" style="stroke: #000000; stroke-width: 0.8"/>
      </g>
     </g>
     <g id="text_13">
      <!-- 40 -->
      <g transform="translate(7.2 158.306612) scale(0.1 -0.1)">
       <defs>
        <path id="DejaVuSans-34" d="M 2419 4116 
L 825 1625 
L 2419 1625 
L 2419 4116 
z
M 2253 4666 
L 3047 4666 
L 3047 1625 
L 3713 1625 
L 3713 1100 
L 3047 1100 
L 3047 0 
L 2419 0 
L 2419 1100 
L 313 1100 
L 313 1709 
L 2253 4666 
z
" transform="scale(0.015625)"/>
       </defs>
       <use xlink:href="#DejaVuSans-34"/>
       <use xlink:href="#DejaVuSans-30" x="63.623047"/>
      </g>
     </g>
    </g>
    <g id="ytick_6">
     <g id="line2d_14">
      <g>
       <use xlink:href="#m6da9a375b5" x="26.925" y="111.567238" style="stroke: #000000; stroke-width: 0.8"/>
      </g>
     </g>
     <g id="text_14">
      <!-- 50 -->
      <g transform="translate(7.2 115.366457) scale(0.1 -0.1)">
       <use xlink:href="#DejaVuSans-35"/>
       <use xlink:href="#DejaVuSans-30" x="63.623047"/>
      </g>
     </g>
    </g>
    <g id="ytick_7">
     <g id="line2d_15">
      <g>
       <use xlink:href="#m6da9a375b5" x="26.925" y="68.627083" style="stroke: #000000; stroke-width: 0.8"/>
      </g>
     </g>
     <g id="text_15">
      <!-- 60 -->
      <g transform="translate(7.2 72.426302) scale(0.1 -0.1)">
       <defs>
        <path id="DejaVuSans-36" d="M 2113 2584 
Q 1688 2584 1439 2293 
Q 1191 2003 1191 1497 
Q 1191 994 1439 701 
Q 1688 409 2113 409 
Q 2538 409 2786 701 
Q 3034 994 3034 1497 
Q 3034 2003 2786 2293 
Q 2538 2584 2113 2584 
z
M 3366 4563 
L 3366 3988 
Q 3128 4100 2886 4159 
Q 2644 4219 2406 4219 
Q 1781 4219 1451 3797 
Q 1122 3375 1075 2522 
Q 1259 2794 1537 2939 
Q 1816 3084 2150 3084 
Q 2853 3084 3261 2657 
Q 3669 2231 3669 1497 
Q 3669 778 3244 343 
Q 2819 -91 2113 -91 
Q 1303 -91 875 529 
Q 447 1150 447 2328 
Q 447 3434 972 4092 
Q 1497 4750 2381 4750 
Q 2619 4750 2861 4703 
Q 3103 4656 3366 4563 
z
" transform="scale(0.015625)"/>
       </defs>
       <use xlink:href="#DejaVuSans-36"/>
       <use xlink:href="#DejaVuSans-30" x="63.623047"/>
      </g>
     </g>
    </g>
    <g id="ytick_8">
     <g id="line2d_16">
      <g>
       <use xlink:href="#m6da9a375b5" x="26.925" y="25.686928" style="stroke: #000000; stroke-width: 0.8"/>
      </g>
     </g>
     <g id="text_16">
      <!-- 70 -->
      <g transform="translate(7.2 29.486147) scale(0.1 -0.1)">
       <defs>
        <path id="DejaVuSans-37" d="M 525 4666 
L 3525 4666 
L 3525 4397 
L 1831 0 
L 1172 0 
L 2766 4134 
L 525 4134 
L 525 4666 
z
" transform="scale(0.015625)"/>
       </defs>
       <use xlink:href="#DejaVuSans-37"/>
       <use xlink:href="#DejaVuSans-30" x="63.623047"/>
      </g>
     </g>
    </g>
   </g>
   <g id="line2d_17">
    <path d="M 49.752273 22.32 
L 61.766627 27.068349 
L 73.780981 31.761389 
L 85.795335 38.855857 
L 97.809689 50.397813 
L 109.824043 55.142587 
L 121.838397 67.969253 
L 133.852751 81.475826 
L 145.867105 89.887821 
L 157.881459 104.179506 
L 169.895813 116.202136 
L 181.910167 134.057909 
L 193.924522 143.112689 
L 205.938876 156.261286 
L 217.95323 161.940605 
L 229.967584 175.964525 
L 241.981938 187.354875 
L 253.996292 192.31202 
L 266.010646 212.52354 
L 278.025 224.75066 
L 290.039354 228.833191 
L 302.053708 224.927263 
L 314.068062 237.480263 
L 326.082416 243.81807 
L 338.09677 249.271001 
L 350.111124 255.356415 
L 362.125478 257.750553 
L 374.139833 262.515795 
L 386.154187 264.031331 
L 398.168541 276.211713 
L 410.182895 281.154838 
L 422.197249 286.021141 
L 434.211603 288.158796 
L 446.225957 293.252029 
L 458.240311 295.737538 
L 470.254665 295.912611 
L 482.269019 302.245198 
L 494.283373 300.524515 
L 506.297727 299.319047 
" clip-path="url(#p3ae103eab3)" style="fill: none; stroke: #1f77b4; stroke-width: 1.5; stroke-linecap: square"/>
   </g>
   <g id="line2d_18">
    <path d="M 49.752273 283.998663 
L 61.766627 284.268153 
L 73.780981 284.822036 
L 85.795335 282.947653 
L 97.809689 280.966171 
L 109.824043 281.119031 
L 121.838397 279.078816 
L 133.852751 279.642976 
L 145.867105 278.109684 
L 157.881459 279.098589 
L 169.895813 278.879629 
L 181.910167 281.453809 
L 193.924522 283.403248 
L 205.938876 284.49712 
L 217.95323 286.182085 
L 229.967584 289.424041 
L 241.981938 292.911267 
L 253.996292 292.555833 
L 266.010646 295.36234 
L 278.025 297.975124 
L 290.039354 294.272364 
L 302.053708 292.600514 
L 314.068062 293.673391 
L 326.082416 297.523004 
L 338.09677 296.362171 
L 350.111124 296.388984 
L 362.125478 299.162438 
L 374.139833 301.319858 
L 386.154187 301.117191 
L 398.168541 302.770544 
L 410.182895 303.805333 
L 422.197249 304.173185 
L 434.211603 304.385443 
L 446.225957 307.551205 
L 458.240311 308.272162 
L 470.254665 308.326805 
L 482.269019 311.849309 
L 494.283373 311.948799 
L 506.297727 312.527163 
" clip-path="url(#p3ae103eab3)" style="fill: none; stroke: #ff7f0e; stroke-width: 1.5; stroke-linecap: square"/>
   </g>
   <g id="line2d_19">
    <path d="M 49.752273 314.206413 
L 61.766627 313.893261 
L 73.780981 314.90109 
L 85.795335 313.894059 
L 97.809689 313.504485 
L 109.824043 313.093771 
L 121.838397 312.082166 
L 133.852751 312.151585 
L 145.867105 312.768159 
L 157.881459 312.135862 
L 169.895813 312.522412 
L 181.910167 311.726901 
L 193.924522 312.848541 
L 205.938876 311.974787 
L 217.95323 311.238619 
L 229.967584 312.824942 
L 241.981938 312.124382 
L 253.996292 311.585008 
L 266.010646 310.61449 
L 278.025 312.335189 
L 290.039354 312.667488 
L 302.053708 312.692772 
L 314.068062 314.142813 
L 326.082416 313.33384 
L 338.09677 314.221434 
L 350.111124 314.12175 
L 362.125478 313.29894 
L 374.139833 313.671733 
L 386.154187 315.261048 
L 398.168541 313.657637 
L 410.182895 314.492009 
L 422.197249 316.649144 
L 434.211603 317.940154 
L 446.225957 317.917139 
L 458.240311 317.763815 
L 470.254665 318.04226 
L 482.269019 319.347035 
L 494.283373 320.167289 
L 506.297727 319.066926 
" clip-path="url(#p3ae103eab3)" style="fill: none; stroke: #2ca02c; stroke-width: 1.5; stroke-linecap: square"/>
   </g>
   <g id="line2d_20">
    <path d="M 49.752273 307.670359 
L 61.766627 306.951328 
L 73.780981 307.053166 
L 85.795335 305.483457 
L 97.809689 304.322559 
L 109.824043 303.739828 
L 121.838397 302.774103 
L 133.852751 299.002035 
L 145.867105 297.961209 
L 157.881459 293.189235 
L 169.895813 289.888837 
L 181.910167 287.554391 
L 193.924522 287.969746 
L 205.938876 287.642033 
L 217.95323 287.653335 
L 229.967584 286.695596 
L 241.981938 289.068644 
L 253.996292 287.998228 
L 266.010646 288.338323 
L 278.025 289.382821 
L 290.039354 296.076273 
L 302.053708 293.840777 
L 314.068062 295.672528 
L 326.082416 297.003907 
L 338.09677 301.227136 
L 350.111124 301.041158 
L 362.125478 305.424102 
L 374.139833 305.267946 
L 386.154187 305.961741 
L 398.168541 306.744231 
L 410.182895 307.974827 
L 422.197249 306.763613 
L 434.211603 306.608806 
L 446.225957 309.217505 
L 458.240311 310.186614 
L 470.254665 309.104041 
L 482.269019 309.968608 
L 494.283373 310.763627 
L 506.297727 310.175788 
" clip-path="url(#p3ae103eab3)" style="fill: none; stroke: #d62728; stroke-width: 1.5; stroke-linecap: square"/>
   </g>
   <g id="line2d_21">
    <path d="M 49.752273 304.445332 
L 61.766627 304.30457 
L 73.780981 303.813454 
L 85.795335 303.179182 
L 97.809689 299.026129 
L 109.824043 298.854477 
L 121.838397 296.665686 
L 133.852751 291.288492 
L 145.867105 287.974177 
L 157.881459 287.731444 
L 169.895813 284.691812 
L 181.910167 281.056854 
L 193.924522 280.624577 
L 205.938876 277.642823 
L 217.95323 280.0481 
L 229.967584 277.614055 
L 241.981938 277.563923 
L 253.996292 277.097565 
L 266.010646 271.480683 
L 278.025 269.160051 
L 290.039354 259.974357 
L 302.053708 262.721454 
L 314.068062 260.209579 
L 326.082416 261.748554 
L 338.09677 262.981355 
L 350.111124 264.349321 
L 362.125478 270.252655 
L 374.139833 270.167565 
L 386.154187 269.896762 
L 398.168541 272.217752 
L 410.182895 270.994043 
L 422.197249 266.326269 
L 434.211603 267.348901 
L 446.225957 270.175716 
L 458.240311 273.348524 
L 470.254665 274.30112 
L 482.269019 275.062806 
L 494.283373 275.150168 
L 506.297727 275.29093 
" clip-path="url(#p3ae103eab3)" style="fill: none; stroke: #9467bd; stroke-width: 1.5; stroke-linecap: square"/>
   </g>
   <g id="line2d_22">
    <path d="M 49.752273 316.20593 
L 61.766627 316.168544 
L 73.780981 314.733519 
L 85.795335 314.032315 
L 97.809689 314.502992 
L 109.824043 313.209538 
L 121.838397 311.276661 
L 133.852751 311.485513 
L 145.867105 310.460317 
L 157.881459 308.006203 
L 169.895813 307.070838 
L 181.910167 304.310098 
L 193.924522 301.561538 
L 205.938876 299.556414 
L 217.95323 299.89867 
L 229.967584 296.63351 
L 241.981938 294.716837 
L 253.996292 296.291189 
L 266.010646 293.667656 
L 278.025 291.329144 
L 290.039354 293.512823 
L 302.053708 294.021179 
L 314.068062 293.977607 
L 326.082416 293.586517 
L 338.09677 293.645373 
L 350.111124 293.527605 
L 362.125478 292.136639 
L 374.139833 293.066474 
L 386.154187 293.098627 
L 398.168541 291.721259 
L 410.182895 294.715084 
L 422.197249 291.068666 
L 434.211603 292.839559 
L 446.225957 291.217593 
L 458.240311 292.432589 
L 470.254665 293.084334 
L 482.269019 294.396407 
L 494.283373 295.919829 
L 506.297727 294.487706 
" clip-path="url(#p3ae103eab3)" style="fill: none; stroke: #8c564b; stroke-width: 1.5; stroke-linecap: square"/>
   </g>
   <g id="line2d_23">
    <path d="M 49.752273 324.72 
L 61.766627 324.387422 
L 73.780981 323.894086 
L 85.795335 323.89461 
L 97.809689 323.359318 
L 109.824043 323.188621 
L 121.838397 322.397111 
L 133.852751 321.906316 
L 145.867105 321.999527 
L 157.881459 321.266767 
L 169.895813 319.904309 
L 181.910167 320.062969 
L 193.924522 319.784448 
L 205.938876 319.252438 
L 217.95323 317.847931 
L 229.967584 317.783942 
L 241.981938 316.661455 
L 253.996292 315.978163 
L 266.010646 313.981558 
L 278.025 314.495133 
L 290.039354 315.397087 
L 302.053708 315.331149 
L 314.068062 314.577408 
L 326.082416 313.33384 
L 338.09677 313.168412 
L 350.111124 313.849237 
L 362.125478 313.001776 
L 374.139833 312.506107 
L 386.154187 312.254087 
L 398.168541 311.204493 
L 410.182895 311.994069 
L 422.197249 314.039668 
L 434.211603 314.585607 
L 446.225957 315.76645 
L 458.240311 314.902212 
L 470.254665 315.127624 
L 482.269019 316.98989 
L 494.283373 316.611772 
L 506.297727 316.531849 
" clip-path="url(#p3ae103eab3)" style="fill: none; stroke: #e377c2; stroke-width: 1.5; stroke-linecap: square"/>
   </g>
   <g id="line2d_24">
    <path d="M 49.752273 323.150487 
L 61.766627 322.692569 
L 73.780981 322.553515 
L 85.795335 321.590336 
L 97.809689 320.928169 
L 109.824043 320.155535 
L 121.838397 320.025345 
L 133.852751 319.327973 
L 145.867105 318.93602 
L 157.881459 317.96719 
L 169.895813 316.680032 
L 181.910167 315.466641 
L 193.924522 314.313267 
L 205.938876 313.12389 
L 217.95323 311.691312 
L 229.967584 309.319786 
L 241.981938 308.003979 
L 253.996292 304.842572 
L 266.010646 302.497849 
L 278.025 300.040125 
L 290.039354 298.639722 
L 302.053708 297.200762 
L 314.068062 294.303554 
L 326.082416 292.050854 
L 338.09677 289.622827 
L 350.111124 287.201426 
L 362.125478 286.129687 
L 374.139833 286.241923 
L 386.154187 285.228555 
L 398.168541 283.408953 
L 410.182895 279.502065 
L 422.197249 278.840322 
L 434.211603 277.997638 
L 446.225957 276.259647 
L 458.240311 276.008605 
L 470.254665 277.107807 
L 482.269019 276.29153 
L 494.283373 276.471344 
L 506.297727 277.091202 
" clip-path="url(#p3ae103eab3)" style="fill: none; stroke: #7f7f7f; stroke-width: 1.5; stroke-linecap: square"/>
   </g>
   <g id="line2d_25">
    <path d="M 49.752273 310.293381 
L 61.766627 307.276368 
L 73.780981 303.478311 
L 85.795335 303.133097 
L 97.809689 300.00293 
L 109.824043 298.507177 
L 121.838397 294.741423 
L 133.852751 290.729851 
L 145.867105 288.913652 
L 157.881459 283.435768 
L 169.895813 281.170562 
L 181.910167 271.320994 
L 193.924522 263.392511 
L 205.938876 257.059772 
L 217.95323 250.509909 
L 229.967584 240.750168 
L 241.981938 228.605202 
L 253.996292 228.349988 
L 266.010646 218.544126 
L 278.025 207.542318 
L 290.039354 207.63726 
L 302.053708 213.674696 
L 314.068062 202.973423 
L 326.082416 194.611979 
L 338.09677 186.510855 
L 350.111124 181.174669 
L 362.125478 169.853775 
L 374.139833 162.253165 
L 386.154187 160.161223 
L 398.168541 149.073983 
L 410.182895 142.378297 
L 422.197249 143.128557 
L 434.211603 137.145661 
L 446.225957 125.653283 
L 458.240311 118.358505 
L 470.254665 116.003963 
L 482.269019 100.859783 
L 494.283373 99.453222 
L 506.297727 102.519954 
" clip-path="url(#p3ae103eab3)" style="fill: none; stroke: #bcbd22; stroke-width: 1.5; stroke-linecap: square"/>
   </g>
   <g id="patch_3">
    <path d="M 26.925 339.84 
L 26.925 7.2 
" style="fill: none; stroke: #000000; stroke-width: 0.8; stroke-linejoin: miter; stroke-linecap: square"/>
   </g>
   <g id="patch_4">
    <path d="M 529.125 339.84 
L 529.125 7.2 
" style="fill: none; stroke: #000000; stroke-width: 0.8; stroke-linejoin: miter; stroke-linecap: square"/>
   </g>
   <g id="patch_5">
    <path d="M 26.925 339.84 
L 529.125 339.84 
" style="fill: none; stroke: #000000; stroke-width: 0.8; stroke-linejoin: miter; stroke-linecap: square"/>
   </g>
   <g id="patch_6">
    <path d="M 26.925 7.2 
L 529.125 7.2 
" style="fill: none; stroke: #000000; stroke-width: 0.8; stroke-linejoin: miter; stroke-linecap: square"/>
   </g>
   <g id="legend_1">
    <g id="patch_7">
     <path d="M 203.307813 147.303125 
L 352.742188 147.303125 
Q 354.742188 147.303125 354.742188 145.303125 
L 354.742188 14.2 
Q 354.742188 12.2 352.742188 12.2 
L 203.307813 12.2 
Q 201.307813 12.2 201.307813 14.2 
L 201.307813 145.303125 
Q 201.307813 147.303125 203.307813 147.303125 
z
" style="fill: #ffffff; opacity: 0.8; stroke: #cccccc; stroke-linejoin: miter"/>
    </g>
    <g id="line2d_26">
     <path d="M 205.307813 20.298438 
L 215.307813 20.298438 
L 225.307813 20.298438 
" style="fill: none; stroke: #1f77b4; stroke-width: 1.5; stroke-linecap: square"/>
    </g>
    <g id="text_17">
     <!-- B: Pri/Sec; G: Pri/Sec -->
     <g transform="translate(233.307813 23.798438) scale(0.1 -0.1)">
      <defs>
       <path id="DejaVuSans-42" d="M 1259 2228 
L 1259 519 
L 2272 519 
Q 2781 519 3026 730 
Q 3272 941 3272 1375 
Q 3272 1813 3026 2020 
Q 2781 2228 2272 2228 
L 1259 2228 
z
M 1259 4147 
L 1259 2741 
L 2194 2741 
Q 2656 2741 2882 2914 
Q 3109 3088 3109 3444 
Q 3109 3797 2882 3972 
Q 2656 4147 2194 4147 
L 1259 4147 
z
M 628 4666 
L 2241 4666 
Q 2963 4666 3353 4366 
Q 3744 4066 3744 3513 
Q 3744 3084 3544 2831 
Q 3344 2578 2956 2516 
Q 3422 2416 3680 2098 
Q 3938 1781 3938 1306 
Q 3938 681 3513 340 
Q 3088 0 2303 0 
L 628 0 
L 628 4666 
z
" transform="scale(0.015625)"/>
       <path id="DejaVuSans-3a" d="M 750 794 
L 1409 794 
L 1409 0 
L 750 0 
L 750 794 
z
M 750 3309 
L 1409 3309 
L 1409 2516 
L 750 2516 
L 750 3309 
z
" transform="scale(0.015625)"/>
       <path id="DejaVuSans-20" transform="scale(0.015625)"/>
       <path id="DejaVuSans-50" d="M 1259 4147 
L 1259 2394 
L 2053 2394 
Q 2494 2394 2734 2622 
Q 2975 2850 2975 3272 
Q 2975 3691 2734 3919 
Q 2494 4147 2053 4147 
L 1259 4147 
z
M 628 4666 
L 2053 4666 
Q 2838 4666 3239 4311 
Q 3641 3956 3641 3272 
Q 3641 2581 3239 2228 
Q 2838 1875 2053 1875 
L 1259 1875 
L 1259 0 
L 628 0 
L 628 4666 
z
" transform="scale(0.015625)"/>
       <path id="DejaVuSans-72" d="M 2631 2963 
Q 2534 3019 2420 3045 
Q 2306 3072 2169 3072 
Q 1681 3072 1420 2755 
Q 1159 2438 1159 1844 
L 1159 0 
L 581 0 
L 581 3500 
L 1159 3500 
L 1159 2956 
Q 1341 3275 1631 3429 
Q 1922 3584 2338 3584 
Q 2397 3584 2469 3576 
Q 2541 3569 2628 3553 
L 2631 2963 
z
" transform="scale(0.015625)"/>
       <path id="DejaVuSans-69" d="M 603 3500 
L 1178 3500 
L 1178 0 
L 603 0 
L 603 3500 
z
M 603 4863 
L 1178 4863 
L 1178 4134 
L 603 4134 
L 603 4863 
z
" transform="scale(0.015625)"/>
       <path id="DejaVuSans-2f" d="M 1625 4666 
L 2156 4666 
L 531 -594 
L 0 -594 
L 1625 4666 
z
" transform="scale(0.015625)"/>
       <path id="DejaVuSans-53" d="M 3425 4513 
L 3425 3897 
Q 3066 4069 2747 4153 
Q 2428 4238 2131 4238 
Q 1616 4238 1336 4038 
Q 1056 3838 1056 3469 
Q 1056 3159 1242 3001 
Q 1428 2844 1947 2747 
L 2328 2669 
Q 3034 2534 3370 2195 
Q 3706 1856 3706 1288 
Q 3706 609 3251 259 
Q 2797 -91 1919 -91 
Q 1588 -91 1214 -16 
Q 841 59 441 206 
L 441 856 
Q 825 641 1194 531 
Q 1563 422 1919 422 
Q 2459 422 2753 634 
Q 3047 847 3047 1241 
Q 3047 1584 2836 1778 
Q 2625 1972 2144 2069 
L 1759 2144 
Q 1053 2284 737 2584 
Q 422 2884 422 3419 
Q 422 4038 858 4394 
Q 1294 4750 2059 4750 
Q 2388 4750 2728 4690 
Q 3069 4631 3425 4513 
z
" transform="scale(0.015625)"/>
       <path id="DejaVuSans-65" d="M 3597 1894 
L 3597 1613 
L 953 1613 
Q 991 1019 1311 708 
Q 1631 397 2203 397 
Q 2534 397 2845 478 
Q 3156 559 3463 722 
L 3463 178 
Q 3153 47 2828 -22 
Q 2503 -91 2169 -91 
Q 1331 -91 842 396 
Q 353 884 353 1716 
Q 353 2575 817 3079 
Q 1281 3584 2069 3584 
Q 2775 3584 3186 3129 
Q 3597 2675 3597 1894 
z
M 3022 2063 
Q 3016 2534 2758 2815 
Q 2500 3097 2075 3097 
Q 1594 3097 1305 2825 
Q 1016 2553 972 2059 
L 3022 2063 
z
" transform="scale(0.015625)"/>
       <path id="DejaVuSans-63" d="M 3122 3366 
L 3122 2828 
Q 2878 2963 2633 3030 
Q 2388 3097 2138 3097 
Q 1578 3097 1268 2742 
Q 959 2388 959 1747 
Q 959 1106 1268 751 
Q 1578 397 2138 397 
Q 2388 397 2633 464 
Q 2878 531 3122 666 
L 3122 134 
Q 2881 22 2623 -34 
Q 2366 -91 2075 -91 
Q 1284 -91 818 406 
Q 353 903 353 1747 
Q 353 2603 823 3093 
Q 1294 3584 2113 3584 
Q 2378 3584 2631 3529 
Q 2884 3475 3122 3366 
z
" transform="scale(0.015625)"/>
       <path id="DejaVuSans-3b" d="M 750 3309 
L 1409 3309 
L 1409 2516 
L 750 2516 
L 750 3309 
z
M 750 794 
L 1409 794 
L 1409 256 
L 897 -744 
L 494 -744 
L 750 256 
L 750 794 
z
" transform="scale(0.015625)"/>
       <path id="DejaVuSans-47" d="M 3809 666 
L 3809 1919 
L 2778 1919 
L 2778 2438 
L 4434 2438 
L 4434 434 
Q 4069 175 3628 42 
Q 3188 -91 2688 -91 
Q 1594 -91 976 548 
Q 359 1188 359 2328 
Q 359 3472 976 4111 
Q 1594 4750 2688 4750 
Q 3144 4750 3555 4637 
Q 3966 4525 4313 4306 
L 4313 3634 
Q 3963 3931 3569 4081 
Q 3175 4231 2741 4231 
Q 1884 4231 1454 3753 
Q 1025 3275 1025 2328 
Q 1025 1384 1454 906 
Q 1884 428 2741 428 
Q 3075 428 3337 486 
Q 3600 544 3809 666 
z
" transform="scale(0.015625)"/>
      </defs>
      <use xlink:href="#DejaVuSans-42"/>
      <use xlink:href="#DejaVuSans-3a" x="68.603516"/>
      <use xlink:href="#DejaVuSans-20" x="102.294922"/>
      <use xlink:href="#DejaVuSans-50" x="134.082031"/>
      <use xlink:href="#DejaVuSans-72" x="192.634766"/>
      <use xlink:href="#DejaVuSans-69" x="233.748047"/>
      <use xlink:href="#DejaVuSans-2f" x="261.53125"/>
      <use xlink:href="#DejaVuSans-53" x="295.222656"/>
      <use xlink:href="#DejaVuSans-65" x="358.699219"/>
      <use xlink:href="#DejaVuSans-63" x="420.222656"/>
      <use xlink:href="#DejaVuSans-3b" x="475.203125"/>
      <use xlink:href="#DejaVuSans-20" x="508.894531"/>
      <use xlink:href="#DejaVuSans-47" x="540.681641"/>
      <use xlink:href="#DejaVuSans-3a" x="618.171875"/>
      <use xlink:href="#DejaVuSans-20" x="651.863281"/>
      <use xlink:href="#DejaVuSans-50" x="683.650391"/>
      <use xlink:href="#DejaVuSans-72" x="742.203125"/>
      <use xlink:href="#DejaVuSans-69" x="783.316406"/>
      <use xlink:href="#DejaVuSans-2f" x="811.099609"/>
      <use xlink:href="#DejaVuSans-53" x="844.791016"/>
      <use xlink:href="#DejaVuSans-65" x="908.267578"/>
      <use xlink:href="#DejaVuSans-63" x="969.791016"/>
     </g>
    </g>
    <g id="line2d_27">
     <path d="M 205.307813 34.976563 
L 215.307813 34.976563 
L 225.307813 34.976563 
" style="fill: none; stroke: #ff7f0e; stroke-width: 1.5; stroke-linecap: square"/>
    </g>
    <g id="text_18">
     <!-- B: Pri/Sec; G: Diploma -->
     <g transform="translate(233.307813 38.476563) scale(0.1 -0.1)">
      <defs>
       <path id="DejaVuSans-44" d="M 1259 4147 
L 1259 519 
L 2022 519 
Q 2988 519 3436 956 
Q 3884 1394 3884 2338 
Q 3884 3275 3436 3711 
Q 2988 4147 2022 4147 
L 1259 4147 
z
M 628 4666 
L 1925 4666 
Q 3281 4666 3915 4102 
Q 4550 3538 4550 2338 
Q 4550 1131 3912 565 
Q 3275 0 1925 0 
L 628 0 
L 628 4666 
z
" transform="scale(0.015625)"/>
       <path id="DejaVuSans-70" d="M 1159 525 
L 1159 -1331 
L 581 -1331 
L 581 3500 
L 1159 3500 
L 1159 2969 
Q 1341 3281 1617 3432 
Q 1894 3584 2278 3584 
Q 2916 3584 3314 3078 
Q 3713 2572 3713 1747 
Q 3713 922 3314 415 
Q 2916 -91 2278 -91 
Q 1894 -91 1617 61 
Q 1341 213 1159 525 
z
M 3116 1747 
Q 3116 2381 2855 2742 
Q 2594 3103 2138 3103 
Q 1681 3103 1420 2742 
Q 1159 2381 1159 1747 
Q 1159 1113 1420 752 
Q 1681 391 2138 391 
Q 2594 391 2855 752 
Q 3116 1113 3116 1747 
z
" transform="scale(0.015625)"/>
       <path id="DejaVuSans-6c" d="M 603 4863 
L 1178 4863 
L 1178 0 
L 603 0 
L 603 4863 
z
" transform="scale(0.015625)"/>
       <path id="DejaVuSans-6f" d="M 1959 3097 
Q 1497 3097 1228 2736 
Q 959 2375 959 1747 
Q 959 1119 1226 758 
Q 1494 397 1959 397 
Q 2419 397 2687 759 
Q 2956 1122 2956 1747 
Q 2956 2369 2687 2733 
Q 2419 3097 1959 3097 
z
M 1959 3584 
Q 2709 3584 3137 3096 
Q 3566 2609 3566 1747 
Q 3566 888 3137 398 
Q 2709 -91 1959 -91 
Q 1206 -91 779 398 
Q 353 888 353 1747 
Q 353 2609 779 3096 
Q 1206 3584 1959 3584 
z
" transform="scale(0.015625)"/>
       <path id="DejaVuSans-6d" d="M 3328 2828 
Q 3544 3216 3844 3400 
Q 4144 3584 4550 3584 
Q 5097 3584 5394 3201 
Q 5691 2819 5691 2113 
L 5691 0 
L 5113 0 
L 5113 2094 
Q 5113 2597 4934 2840 
Q 4756 3084 4391 3084 
Q 3944 3084 3684 2787 
Q 3425 2491 3425 1978 
L 3425 0 
L 2847 0 
L 2847 2094 
Q 2847 2600 2669 2842 
Q 2491 3084 2119 3084 
Q 1678 3084 1418 2786 
Q 1159 2488 1159 1978 
L 1159 0 
L 581 0 
L 581 3500 
L 1159 3500 
L 1159 2956 
Q 1356 3278 1631 3431 
Q 1906 3584 2284 3584 
Q 2666 3584 2933 3390 
Q 3200 3197 3328 2828 
z
" transform="scale(0.015625)"/>
       <path id="DejaVuSans-61" d="M 2194 1759 
Q 1497 1759 1228 1600 
Q 959 1441 959 1056 
Q 959 750 1161 570 
Q 1363 391 1709 391 
Q 2188 391 2477 730 
Q 2766 1069 2766 1631 
L 2766 1759 
L 2194 1759 
z
M 3341 1997 
L 3341 0 
L 2766 0 
L 2766 531 
Q 2569 213 2275 61 
Q 1981 -91 1556 -91 
Q 1019 -91 701 211 
Q 384 513 384 1019 
Q 384 1609 779 1909 
Q 1175 2209 1959 2209 
L 2766 2209 
L 2766 2266 
Q 2766 2663 2505 2880 
Q 2244 3097 1772 3097 
Q 1472 3097 1187 3025 
Q 903 2953 641 2809 
L 641 3341 
Q 956 3463 1253 3523 
Q 1550 3584 1831 3584 
Q 2591 3584 2966 3190 
Q 3341 2797 3341 1997 
z
" transform="scale(0.015625)"/>
      </defs>
      <use xlink:href="#DejaVuSans-42"/>
      <use xlink:href="#DejaVuSans-3a" x="68.603516"/>
      <use xlink:href="#DejaVuSans-20" x="102.294922"/>
      <use xlink:href="#DejaVuSans-50" x="134.082031"/>
      <use xlink:href="#DejaVuSans-72" x="192.634766"/>
      <use xlink:href="#DejaVuSans-69" x="233.748047"/>
      <use xlink:href="#DejaVuSans-2f" x="261.53125"/>
      <use xlink:href="#DejaVuSans-53" x="295.222656"/>
      <use xlink:href="#DejaVuSans-65" x="358.699219"/>
      <use xlink:href="#DejaVuSans-63" x="420.222656"/>
      <use xlink:href="#DejaVuSans-3b" x="475.203125"/>
      <use xlink:href="#DejaVuSans-20" x="508.894531"/>
      <use xlink:href="#DejaVuSans-47" x="540.681641"/>
      <use xlink:href="#DejaVuSans-3a" x="618.171875"/>
      <use xlink:href="#DejaVuSans-20" x="651.863281"/>
      <use xlink:href="#DejaVuSans-44" x="683.650391"/>
      <use xlink:href="#DejaVuSans-69" x="760.652344"/>
      <use xlink:href="#DejaVuSans-70" x="788.435547"/>
      <use xlink:href="#DejaVuSans-6c" x="851.912109"/>
      <use xlink:href="#DejaVuSans-6f" x="879.695312"/>
      <use xlink:href="#DejaVuSans-6d" x="940.876953"/>
      <use xlink:href="#DejaVuSans-61" x="1038.289062"/>
     </g>
    </g>
    <g id="line2d_28">
     <path d="M 205.307813 49.654688 
L 215.307813 49.654688 
L 225.307813 49.654688 
" style="fill: none; stroke: #2ca02c; stroke-width: 1.5; stroke-linecap: square"/>
    </g>
    <g id="text_19">
     <!-- B: Pri/Sec; G: Degree -->
     <g transform="translate(233.307813 53.154688) scale(0.1 -0.1)">
      <defs>
       <path id="DejaVuSans-67" d="M 2906 1791 
Q 2906 2416 2648 2759 
Q 2391 3103 1925 3103 
Q 1463 3103 1205 2759 
Q 947 2416 947 1791 
Q 947 1169 1205 825 
Q 1463 481 1925 481 
Q 2391 481 2648 825 
Q 2906 1169 2906 1791 
z
M 3481 434 
Q 3481 -459 3084 -895 
Q 2688 -1331 1869 -1331 
Q 1566 -1331 1297 -1286 
Q 1028 -1241 775 -1147 
L 775 -588 
Q 1028 -725 1275 -790 
Q 1522 -856 1778 -856 
Q 2344 -856 2625 -561 
Q 2906 -266 2906 331 
L 2906 616 
Q 2728 306 2450 153 
Q 2172 0 1784 0 
Q 1141 0 747 490 
Q 353 981 353 1791 
Q 353 2603 747 3093 
Q 1141 3584 1784 3584 
Q 2172 3584 2450 3431 
Q 2728 3278 2906 2969 
L 2906 3500 
L 3481 3500 
L 3481 434 
z
" transform="scale(0.015625)"/>
      </defs>
      <use xlink:href="#DejaVuSans-42"/>
      <use xlink:href="#DejaVuSans-3a" x="68.603516"/>
      <use xlink:href="#DejaVuSans-20" x="102.294922"/>
      <use xlink:href="#DejaVuSans-50" x="134.082031"/>
      <use xlink:href="#DejaVuSans-72" x="192.634766"/>
      <use xlink:href="#DejaVuSans-69" x="233.748047"/>
      <use xlink:href="#DejaVuSans-2f" x="261.53125"/>
      <use xlink:href="#DejaVuSans-53" x="295.222656"/>
      <use xlink:href="#DejaVuSans-65" x="358.699219"/>
      <use xlink:href="#DejaVuSans-63" x="420.222656"/>
      <use xlink:href="#DejaVuSans-3b" x="475.203125"/>
      <use xlink:href="#DejaVuSans-20" x="508.894531"/>
      <use xlink:href="#DejaVuSans-47" x="540.681641"/>
      <use xlink:href="#DejaVuSans-3a" x="618.171875"/>
      <use xlink:href="#DejaVuSans-20" x="651.863281"/>
      <use xlink:href="#DejaVuSans-44" x="683.650391"/>
      <use xlink:href="#DejaVuSans-65" x="760.652344"/>
      <use xlink:href="#DejaVuSans-67" x="822.175781"/>
      <use xlink:href="#DejaVuSans-72" x="885.652344"/>
      <use xlink:href="#DejaVuSans-65" x="924.515625"/>
      <use xlink:href="#DejaVuSans-65" x="986.039062"/>
     </g>
    </g>
    <g id="line2d_29">
     <path d="M 205.307813 64.332813 
L 215.307813 64.332813 
L 225.307813 64.332813 
" style="fill: none; stroke: #d62728; stroke-width: 1.5; stroke-linecap: square"/>
    </g>
    <g id="text_20">
     <!-- B: Diploma; G: Pri/Sec -->
     <g transform="translate(233.307813 67.832813) scale(0.1 -0.1)">
      <use xlink:href="#DejaVuSans-42"/>
      <use xlink:href="#DejaVuSans-3a" x="68.603516"/>
      <use xlink:href="#DejaVuSans-20" x="102.294922"/>
      <use xlink:href="#DejaVuSans-44" x="134.082031"/>
      <use xlink:href="#DejaVuSans-69" x="211.083984"/>
      <use xlink:href="#DejaVuSans-70" x="238.867188"/>
      <use xlink:href="#DejaVuSans-6c" x="302.34375"/>
      <use xlink:href="#DejaVuSans-6f" x="330.126953"/>
      <use xlink:href="#DejaVuSans-6d" x="391.308594"/>
      <use xlink:href="#DejaVuSans-61" x="488.720703"/>
      <use xlink:href="#DejaVuSans-3b" x="550"/>
      <use xlink:href="#DejaVuSans-20" x="583.691406"/>
      <use xlink:href="#DejaVuSans-47" x="615.478516"/>
      <use xlink:href="#DejaVuSans-3a" x="692.96875"/>
      <use xlink:href="#DejaVuSans-20" x="726.660156"/>
      <use xlink:href="#DejaVuSans-50" x="758.447266"/>
      <use xlink:href="#DejaVuSans-72" x="817"/>
      <use xlink:href="#DejaVuSans-69" x="858.113281"/>
      <use xlink:href="#DejaVuSans-2f" x="885.896484"/>
      <use xlink:href="#DejaVuSans-53" x="919.587891"/>
      <use xlink:href="#DejaVuSans-65" x="983.064453"/>
      <use xlink:href="#DejaVuSans-63" x="1044.587891"/>
     </g>
    </g>
    <g id="line2d_30">
     <path d="M 205.307813 79.010938 
L 215.307813 79.010938 
L 225.307813 79.010938 
" style="fill: none; stroke: #9467bd; stroke-width: 1.5; stroke-linecap: square"/>
    </g>
    <g id="text_21">
     <!-- B: Diploma; G: Diploma -->
     <g transform="translate(233.307813 82.510938) scale(0.1 -0.1)">
      <use xlink:href="#DejaVuSans-42"/>
      <use xlink:href="#DejaVuSans-3a" x="68.603516"/>
      <use xlink:href="#DejaVuSans-20" x="102.294922"/>
      <use xlink:href="#DejaVuSans-44" x="134.082031"/>
      <use xlink:href="#DejaVuSans-69" x="211.083984"/>
      <use xlink:href="#DejaVuSans-70" x="238.867188"/>
      <use xlink:href="#DejaVuSans-6c" x="302.34375"/>
      <use xlink:href="#DejaVuSans-6f" x="330.126953"/>
      <use xlink:href="#DejaVuSans-6d" x="391.308594"/>
      <use xlink:href="#DejaVuSans-61" x="488.720703"/>
      <use xlink:href="#DejaVuSans-3b" x="550"/>
      <use xlink:href="#DejaVuSans-20" x="583.691406"/>
      <use xlink:href="#DejaVuSans-47" x="615.478516"/>
      <use xlink:href="#DejaVuSans-3a" x="692.96875"/>
      <use xlink:href="#DejaVuSans-20" x="726.660156"/>
      <use xlink:href="#DejaVuSans-44" x="758.447266"/>
      <use xlink:href="#DejaVuSans-69" x="835.449219"/>
      <use xlink:href="#DejaVuSans-70" x="863.232422"/>
      <use xlink:href="#DejaVuSans-6c" x="926.708984"/>
      <use xlink:href="#DejaVuSans-6f" x="954.492188"/>
      <use xlink:href="#DejaVuSans-6d" x="1015.673828"/>
      <use xlink:href="#DejaVuSans-61" x="1113.085938"/>
     </g>
    </g>
    <g id="line2d_31">
     <path d="M 205.307813 93.689063 
L 215.307813 93.689063 
L 225.307813 93.689063 
" style="fill: none; stroke: #8c564b; stroke-width: 1.5; stroke-linecap: square"/>
    </g>
    <g id="text_22">
     <!-- B: Diploma; G: Degree -->
     <g transform="translate(233.307813 97.189063) scale(0.1 -0.1)">
      <use xlink:href="#DejaVuSans-42"/>
      <use xlink:href="#DejaVuSans-3a" x="68.603516"/>
      <use xlink:href="#DejaVuSans-20" x="102.294922"/>
      <use xlink:href="#DejaVuSans-44" x="134.082031"/>
      <use xlink:href="#DejaVuSans-69" x="211.083984"/>
      <use xlink:href="#DejaVuSans-70" x="238.867188"/>
      <use xlink:href="#DejaVuSans-6c" x="302.34375"/>
      <use xlink:href="#DejaVuSans-6f" x="330.126953"/>
      <use xlink:href="#DejaVuSans-6d" x="391.308594"/>
      <use xlink:href="#DejaVuSans-61" x="488.720703"/>
      <use xlink:href="#DejaVuSans-3b" x="550"/>
      <use xlink:href="#DejaVuSans-20" x="583.691406"/>
      <use xlink:href="#DejaVuSans-47" x="615.478516"/>
      <use xlink:href="#DejaVuSans-3a" x="692.96875"/>
      <use xlink:href="#DejaVuSans-20" x="726.660156"/>
      <use xlink:href="#DejaVuSans-44" x="758.447266"/>
      <use xlink:href="#DejaVuSans-65" x="835.449219"/>
      <use xlink:href="#DejaVuSans-67" x="896.972656"/>
      <use xlink:href="#DejaVuSans-72" x="960.449219"/>
      <use xlink:href="#DejaVuSans-65" x="999.3125"/>
      <use xlink:href="#DejaVuSans-65" x="1060.835938"/>
     </g>
    </g>
    <g id="line2d_32">
     <path d="M 205.307813 108.367188 
L 215.307813 108.367188 
L 225.307813 108.367188 
" style="fill: none; stroke: #e377c2; stroke-width: 1.5; stroke-linecap: square"/>
    </g>
    <g id="text_23">
     <!-- B: Degree; G: Pri/Sec -->
     <g transform="translate(233.307813 111.867188) scale(0.1 -0.1)">
      <use xlink:href="#DejaVuSans-42"/>
      <use xlink:href="#DejaVuSans-3a" x="68.603516"/>
      <use xlink:href="#DejaVuSans-20" x="102.294922"/>
      <use xlink:href="#DejaVuSans-44" x="134.082031"/>
      <use xlink:href="#DejaVuSans-65" x="211.083984"/>
      <use xlink:href="#DejaVuSans-67" x="272.607422"/>
      <use xlink:href="#DejaVuSans-72" x="336.083984"/>
      <use xlink:href="#DejaVuSans-65" x="374.947266"/>
      <use xlink:href="#DejaVuSans-65" x="436.470703"/>
      <use xlink:href="#DejaVuSans-3b" x="497.994141"/>
      <use xlink:href="#DejaVuSans-20" x="531.685547"/>
      <use xlink:href="#DejaVuSans-47" x="563.472656"/>
      <use xlink:href="#DejaVuSans-3a" x="640.962891"/>
      <use xlink:href="#DejaVuSans-20" x="674.654297"/>
      <use xlink:href="#DejaVuSans-50" x="706.441406"/>
      <use xlink:href="#DejaVuSans-72" x="764.994141"/>
      <use xlink:href="#DejaVuSans-69" x="806.107422"/>
      <use xlink:href="#DejaVuSans-2f" x="833.890625"/>
      <use xlink:href="#DejaVuSans-53" x="867.582031"/>
      <use xlink:href="#DejaVuSans-65" x="931.058594"/>
      <use xlink:href="#DejaVuSans-63" x="992.582031"/>
     </g>
    </g>
    <g id="line2d_33">
     <path d="M 205.307813 123.045313 
L 215.307813 123.045313 
L 225.307813 123.045313 
" style="fill: none; stroke: #7f7f7f; stroke-width: 1.5; stroke-linecap: square"/>
    </g>
    <g id="text_24">
     <!-- B: Degree; G: Diploma -->
     <g transform="translate(233.307813 126.545313) scale(0.1 -0.1)">
      <use xlink:href="#DejaVuSans-42"/>
      <use xlink:href="#DejaVuSans-3a" x="68.603516"/>
      <use xlink:href="#DejaVuSans-20" x="102.294922"/>
      <use xlink:href="#DejaVuSans-44" x="134.082031"/>
      <use xlink:href="#DejaVuSans-65" x="211.083984"/>
      <use xlink:href="#DejaVuSans-67" x="272.607422"/>
      <use xlink:href="#DejaVuSans-72" x="336.083984"/>
      <use xlink:href="#DejaVuSans-65" x="374.947266"/>
      <use xlink:href="#DejaVuSans-65" x="436.470703"/>
      <use xlink:href="#DejaVuSans-3b" x="497.994141"/>
      <use xlink:href="#DejaVuSans-20" x="531.685547"/>
      <use xlink:href="#DejaVuSans-47" x="563.472656"/>
      <use xlink:href="#DejaVuSans-3a" x="640.962891"/>
      <use xlink:href="#DejaVuSans-20" x="674.654297"/>
      <use xlink:href="#DejaVuSans-44" x="706.441406"/>
      <use xlink:href="#DejaVuSans-69" x="783.443359"/>
      <use xlink:href="#DejaVuSans-70" x="811.226562"/>
      <use xlink:href="#DejaVuSans-6c" x="874.703125"/>
      <use xlink:href="#DejaVuSans-6f" x="902.486328"/>
      <use xlink:href="#DejaVuSans-6d" x="963.667969"/>
      <use xlink:href="#DejaVuSans-61" x="1061.080078"/>
     </g>
    </g>
    <g id="line2d_34">
     <path d="M 205.307813 137.723438 
L 215.307813 137.723438 
L 225.307813 137.723438 
" style="fill: none; stroke: #bcbd22; stroke-width: 1.5; stroke-linecap: square"/>
    </g>
    <g id="text_25">
     <!-- B: Degree; G: Degree -->
     <g transform="translate(233.307813 141.223438) scale(0.1 -0.1)">
      <use xlink:href="#DejaVuSans-42"/>
      <use xlink:href="#DejaVuSans-3a" x="68.603516"/>
      <use xlink:href="#DejaVuSans-20" x="102.294922"/>
      <use xlink:href="#DejaVuSans-44" x="134.082031"/>
      <use xlink:href="#DejaVuSans-65" x="211.083984"/>
      <use xlink:href="#DejaVuSans-67" x="272.607422"/>
      <use xlink:href="#DejaVuSans-72" x="336.083984"/>
      <use xlink:href="#DejaVuSans-65" x="374.947266"/>
      <use xlink:href="#DejaVuSans-65" x="436.470703"/>
      <use xlink:href="#DejaVuSans-3b" x="497.994141"/>
      <use xlink:href="#DejaVuSans-20" x="531.685547"/>
      <use xlink:href="#DejaVuSans-47" x="563.472656"/>
      <use xlink:href="#DejaVuSans-3a" x="640.962891"/>
      <use xlink:href="#DejaVuSans-20" x="674.654297"/>
      <use xlink:href="#DejaVuSans-44" x="706.441406"/>
      <use xlink:href="#DejaVuSans-65" x="783.443359"/>
      <use xlink:href="#DejaVuSans-67" x="844.966797"/>
      <use xlink:href="#DejaVuSans-72" x="908.443359"/>
      <use xlink:href="#DejaVuSans-65" x="947.306641"/>
      <use xlink:href="#DejaVuSans-65" x="1008.830078"/>
     </g>
    </g>
   </g>
  </g>
 </g>
 <defs>
  <clipPath id="p3ae103eab3">
   <rect x="26.925" y="7.2" width="502.2" height="332.64"/>
  </clipPath>
 </defs>
</svg>
