<?xml version="1.0" encoding="utf-8" standalone="no"?>
<!DOCTYPE svg PUBLIC "-//W3C//DTD SVG 1.1//EN"
  "http://www.w3.org/Graphics/SVG/1.1/DTD/svg11.dtd">
<svg xmlns:xlink="http://www.w3.org/1999/xlink" width="717.403125pt" height="256.194375pt" viewBox="0 0 717.403125 256.194375" xmlns="http://www.w3.org/2000/svg" version="1.1">
 <metadata>
  <rdf:RDF xmlns:dc="http://purl.org/dc/elements/1.1/" xmlns:cc="http://creativecommons.org/ns#" xmlns:rdf="http://www.w3.org/1999/02/22-rdf-syntax-ns#">
   <cc:Work>
    <dc:type rdf:resource="http://purl.org/dc/dcmitype/StillImage"/>
    <dc:date>2024-06-10T22:30:52.548978</dc:date>
    <dc:format>image/svg+xml</dc:format>
    <dc:creator>
     <cc:Agent>
      <dc:title>Matplotlib v3.8.4, https://matplotlib.org/</dc:title>
     </cc:Agent>
    </dc:creator>
   </cc:Work>
  </rdf:RDF>
 </metadata>
 <defs>
  <style type="text/css">*{stroke-linejoin: round; stroke-linecap: butt}</style>
 </defs>
 <g id="figure_1">
  <g id="patch_1">
   <path d="M 0 256.194375 
L 717.403125 256.194375 
L 717.403125 0 
L 0 0 
z
" style="fill: #ffffff"/>
  </g>
  <g id="axes_1">
   <g id="patch_2">
    <path d="M 40.603125 218.638125 
L 237.544301 218.638125 
L 237.544301 52.318125 
L 40.603125 52.318125 
z
" style="fill: #ffffff"/>
   </g>
   <g id="PolyCollection_1"/>
   <g id="PolyCollection_2"/>
   <g id="PolyCollection_3"/>
   <g id="matplotlib.axis_1">
    <g id="xtick_1">
     <g id="line2d_1">
      <defs>
       <path id="mb72242d315" d="M 0 0 
L 0 3.5 
" style="stroke: #000000; stroke-width: 0.8"/>
      </defs>
      <g>
       <use xlink:href="#mb72242d315" x="77.824065" y="218.638125" style="stroke: #000000; stroke-width: 0.8"/>
      </g>
     </g>
     <g id="text_1">
      <!-- 1990 -->
      <g transform="translate(65.099065 233.236563) scale(0.1 -0.1)">
       <defs>
        <path id="DejaVuSans-31" d="M 794 531 
L 1825 531 
L 1825 4091 
L 703 3866 
L 703 4441 
L 1819 4666 
L 2450 4666 
L 2450 531 
L 3481 531 
L 3481 0 
L 794 0 
L 794 531 
z
" transform="scale(0.015625)"/>
        <path id="DejaVuSans-39" d="M 703 97 
L 703 672 
Q 941 559 1184 500 
Q 1428 441 1663 441 
Q 2288 441 2617 861 
Q 2947 1281 2994 2138 
Q 2813 1869 2534 1725 
Q 2256 1581 1919 1581 
Q 1219 1581 811 2004 
Q 403 2428 403 3163 
Q 403 3881 828 4315 
Q 1253 4750 1959 4750 
Q 2769 4750 3195 4129 
Q 3622 3509 3622 2328 
Q 3622 1225 3098 567 
Q 2575 -91 1691 -91 
Q 1453 -91 1209 -44 
Q 966 3 703 97 
z
M 1959 2075 
Q 2384 2075 2632 2365 
Q 2881 2656 2881 3163 
Q 2881 3666 2632 3958 
Q 2384 4250 1959 4250 
Q 1534 4250 1286 3958 
Q 1038 3666 1038 3163 
Q 1038 2656 1286 2365 
Q 1534 2075 1959 2075 
z
" transform="scale(0.015625)"/>
        <path id="DejaVuSans-30" d="M 2034 4250 
Q 1547 4250 1301 3770 
Q 1056 3291 1056 2328 
Q 1056 1369 1301 889 
Q 1547 409 2034 409 
Q 2525 409 2770 889 
Q 3016 1369 3016 2328 
Q 3016 3291 2770 3770 
Q 2525 4250 2034 4250 
z
M 2034 4750 
Q 2819 4750 3233 4129 
Q 3647 3509 3647 2328 
Q 3647 1150 3233 529 
Q 2819 -91 2034 -91 
Q 1250 -91 836 529 
Q 422 1150 422 2328 
Q 422 3509 836 4129 
Q 1250 4750 2034 4750 
z
" transform="scale(0.015625)"/>
       </defs>
       <use xlink:href="#DejaVuSans-31"/>
       <use xlink:href="#DejaVuSans-39" x="63.623047"/>
       <use xlink:href="#DejaVuSans-39" x="127.246094"/>
       <use xlink:href="#DejaVuSans-30" x="190.869141"/>
      </g>
     </g>
    </g>
    <g id="xtick_2">
     <g id="line2d_2">
      <g>
       <use xlink:href="#mb72242d315" x="124.939179" y="218.638125" style="stroke: #000000; stroke-width: 0.8"/>
      </g>
     </g>
     <g id="text_2">
      <!-- 2000 -->
      <g transform="translate(112.214179 233.236563) scale(0.1 -0.1)">
       <defs>
        <path id="DejaVuSans-32" d="M 1228 531 
L 3431 531 
L 3431 0 
L 469 0 
L 469 531 
Q 828 903 1448 1529 
Q 2069 2156 2228 2338 
Q 2531 2678 2651 2914 
Q 2772 3150 2772 3378 
Q 2772 3750 2511 3984 
Q 2250 4219 1831 4219 
Q 1534 4219 1204 4116 
Q 875 4013 500 3803 
L 500 4441 
Q 881 4594 1212 4672 
Q 1544 4750 1819 4750 
Q 2544 4750 2975 4387 
Q 3406 4025 3406 3419 
Q 3406 3131 3298 2873 
Q 3191 2616 2906 2266 
Q 2828 2175 2409 1742 
Q 1991 1309 1228 531 
z
" transform="scale(0.015625)"/>
       </defs>
       <use xlink:href="#DejaVuSans-32"/>
       <use xlink:href="#DejaVuSans-30" x="63.623047"/>
       <use xlink:href="#DejaVuSans-30" x="127.246094"/>
       <use xlink:href="#DejaVuSans-30" x="190.869141"/>
      </g>
     </g>
    </g>
    <g id="xtick_3">
     <g id="line2d_3">
      <g>
       <use xlink:href="#mb72242d315" x="172.054293" y="218.638125" style="stroke: #000000; stroke-width: 0.8"/>
      </g>
     </g>
     <g id="text_3">
      <!-- 2010 -->
      <g transform="translate(159.329293 233.236563) scale(0.1 -0.1)">
       <use xlink:href="#DejaVuSans-32"/>
       <use xlink:href="#DejaVuSans-30" x="63.623047"/>
       <use xlink:href="#DejaVuSans-31" x="127.246094"/>
       <use xlink:href="#DejaVuSans-30" x="190.869141"/>
      </g>
     </g>
    </g>
    <g id="xtick_4">
     <g id="line2d_4">
      <g>
       <use xlink:href="#mb72242d315" x="219.169407" y="218.638125" style="stroke: #000000; stroke-width: 0.8"/>
      </g>
     </g>
     <g id="text_4">
      <!-- 2020 -->
      <g transform="translate(206.444407 233.236563) scale(0.1 -0.1)">
       <use xlink:href="#DejaVuSans-32"/>
       <use xlink:href="#DejaVuSans-30" x="63.623047"/>
       <use xlink:href="#DejaVuSans-32" x="127.246094"/>
       <use xlink:href="#DejaVuSans-30" x="190.869141"/>
      </g>
     </g>
    </g>
    <g id="text_5">
     <!-- Year -->
     <g transform="translate(128.486213 246.914688) scale(0.1 -0.1)">
      <defs>
       <path id="DejaVuSans-59" d="M -13 4666 
L 666 4666 
L 1959 2747 
L 3244 4666 
L 3922 4666 
L 2272 2222 
L 2272 0 
L 1638 0 
L 1638 2222 
L -13 4666 
z
" transform="scale(0.015625)"/>
       <path id="DejaVuSans-65" d="M 3597 1894 
L 3597 1613 
L 953 1613 
Q 991 1019 1311 708 
Q 1631 397 2203 397 
Q 2534 397 2845 478 
Q 3156 559 3463 722 
L 3463 178 
Q 3153 47 2828 -22 
Q 2503 -91 2169 -91 
Q 1331 -91 842 396 
Q 353 884 353 1716 
Q 353 2575 817 3079 
Q 1281 3584 2069 3584 
Q 2775 3584 3186 3129 
Q 3597 2675 3597 1894 
z
M 3022 2063 
Q 3016 2534 2758 2815 
Q 2500 3097 2075 3097 
Q 1594 3097 1305 2825 
Q 1016 2553 972 2059 
L 3022 2063 
z
" transform="scale(0.015625)"/>
       <path id="DejaVuSans-61" d="M 2194 1759 
Q 1497 1759 1228 1600 
Q 959 1441 959 1056 
Q 959 750 1161 570 
Q 1363 391 1709 391 
Q 2188 391 2477 730 
Q 2766 1069 2766 1631 
L 2766 1759 
L 2194 1759 
z
M 3341 1997 
L 3341 0 
L 2766 0 
L 2766 531 
Q 2569 213 2275 61 
Q 1981 -91 1556 -91 
Q 1019 -91 701 211 
Q 384 513 384 1019 
Q 384 1609 779 1909 
Q 1175 2209 1959 2209 
L 2766 2209 
L 2766 2266 
Q 2766 2663 2505 2880 
Q 2244 3097 1772 3097 
Q 1472 3097 1187 3025 
Q 903 2953 641 2809 
L 641 3341 
Q 956 3463 1253 3523 
Q 1550 3584 1831 3584 
Q 2591 3584 2966 3190 
Q 3341 2797 3341 1997 
z
" transform="scale(0.015625)"/>
       <path id="DejaVuSans-72" d="M 2631 2963 
Q 2534 3019 2420 3045 
Q 2306 3072 2169 3072 
Q 1681 3072 1420 2755 
Q 1159 2438 1159 1844 
L 1159 0 
L 581 0 
L 581 3500 
L 1159 3500 
L 1159 2956 
Q 1341 3275 1631 3429 
Q 1922 3584 2338 3584 
Q 2397 3584 2469 3576 
Q 2541 3569 2628 3553 
L 2631 2963 
z
" transform="scale(0.015625)"/>
      </defs>
      <use xlink:href="#DejaVuSans-59"/>
      <use xlink:href="#DejaVuSans-65" x="47.833984"/>
      <use xlink:href="#DejaVuSans-61" x="109.357422"/>
      <use xlink:href="#DejaVuSans-72" x="170.636719"/>
     </g>
    </g>
   </g>
   <g id="matplotlib.axis_2">
    <g id="ytick_1">
     <g id="line2d_5">
      <defs>
       <path id="me4b6a3a08f" d="M 0 0 
L -3.5 0 
" style="stroke: #000000; stroke-width: 0.8"/>
      </defs>
      <g>
       <use xlink:href="#me4b6a3a08f" x="40.603125" y="217.119245" style="stroke: #000000; stroke-width: 0.8"/>
      </g>
     </g>
     <g id="text_6">
      <!-- 0 -->
      <g transform="translate(27.240625 220.918464) scale(0.1 -0.1)">
       <use xlink:href="#DejaVuSans-30"/>
      </g>
     </g>
    </g>
    <g id="ytick_2">
     <g id="line2d_6">
      <g>
       <use xlink:href="#me4b6a3a08f" x="40.603125" y="180.049626" style="stroke: #000000; stroke-width: 0.8"/>
      </g>
     </g>
     <g id="text_7">
      <!-- 20 -->
      <g transform="translate(20.878125 183.848845) scale(0.1 -0.1)">
       <use xlink:href="#DejaVuSans-32"/>
       <use xlink:href="#DejaVuSans-30" x="63.623047"/>
      </g>
     </g>
    </g>
    <g id="ytick_3">
     <g id="line2d_7">
      <g>
       <use xlink:href="#me4b6a3a08f" x="40.603125" y="142.980007" style="stroke: #000000; stroke-width: 0.8"/>
      </g>
     </g>
     <g id="text_8">
      <!-- 40 -->
      <g transform="translate(20.878125 146.779226) scale(0.1 -0.1)">
       <defs>
        <path id="DejaVuSans-34" d="M 2419 4116 
L 825 1625 
L 2419 1625 
L 2419 4116 
z
M 2253 4666 
L 3047 4666 
L 3047 1625 
L 3713 1625 
L 3713 1100 
L 3047 1100 
L 3047 0 
L 2419 0 
L 2419 1100 
L 313 1100 
L 313 1709 
L 2253 4666 
z
" transform="scale(0.015625)"/>
       </defs>
       <use xlink:href="#DejaVuSans-34"/>
       <use xlink:href="#DejaVuSans-30" x="63.623047"/>
      </g>
     </g>
    </g>
    <g id="ytick_4">
     <g id="line2d_8">
      <g>
       <use xlink:href="#me4b6a3a08f" x="40.603125" y="105.910388" style="stroke: #000000; stroke-width: 0.8"/>
      </g>
     </g>
     <g id="text_9">
      <!-- 60 -->
      <g transform="translate(20.878125 109.709607) scale(0.1 -0.1)">
       <defs>
        <path id="DejaVuSans-36" d="M 2113 2584 
Q 1688 2584 1439 2293 
Q 1191 2003 1191 1497 
Q 1191 994 1439 701 
Q 1688 409 2113 409 
Q 2538 409 2786 701 
Q 3034 994 3034 1497 
Q 3034 2003 2786 2293 
Q 2538 2584 2113 2584 
z
M 3366 4563 
L 3366 3988 
Q 3128 4100 2886 4159 
Q 2644 4219 2406 4219 
Q 1781 4219 1451 3797 
Q 1122 3375 1075 2522 
Q 1259 2794 1537 2939 
Q 1816 3084 2150 3084 
Q 2853 3084 3261 2657 
Q 3669 2231 3669 1497 
Q 3669 778 3244 343 
Q 2819 -91 2113 -91 
Q 1303 -91 875 529 
Q 447 1150 447 2328 
Q 447 3434 972 4092 
Q 1497 4750 2381 4750 
Q 2619 4750 2861 4703 
Q 3103 4656 3366 4563 
z
" transform="scale(0.015625)"/>
       </defs>
       <use xlink:href="#DejaVuSans-36"/>
       <use xlink:href="#DejaVuSans-30" x="63.623047"/>
      </g>
     </g>
    </g>
    <g id="ytick_5">
     <g id="line2d_9">
      <g>
       <use xlink:href="#me4b6a3a08f" x="40.603125" y="68.840769" style="stroke: #000000; stroke-width: 0.8"/>
      </g>
     </g>
     <g id="text_10">
      <!-- 80 -->
      <g transform="translate(20.878125 72.639987) scale(0.1 -0.1)">
       <defs>
        <path id="DejaVuSans-38" d="M 2034 2216 
Q 1584 2216 1326 1975 
Q 1069 1734 1069 1313 
Q 1069 891 1326 650 
Q 1584 409 2034 409 
Q 2484 409 2743 651 
Q 3003 894 3003 1313 
Q 3003 1734 2745 1975 
Q 2488 2216 2034 2216 
z
M 1403 2484 
Q 997 2584 770 2862 
Q 544 3141 544 3541 
Q 544 4100 942 4425 
Q 1341 4750 2034 4750 
Q 2731 4750 3128 4425 
Q 3525 4100 3525 3541 
Q 3525 3141 3298 2862 
Q 3072 2584 2669 2484 
Q 3125 2378 3379 2068 
Q 3634 1759 3634 1313 
Q 3634 634 3220 271 
Q 2806 -91 2034 -91 
Q 1263 -91 848 271 
Q 434 634 434 1313 
Q 434 1759 690 2068 
Q 947 2378 1403 2484 
z
M 1172 3481 
Q 1172 3119 1398 2916 
Q 1625 2713 2034 2713 
Q 2441 2713 2670 2916 
Q 2900 3119 2900 3481 
Q 2900 3844 2670 4047 
Q 2441 4250 2034 4250 
Q 1625 4250 1398 4047 
Q 1172 3844 1172 3481 
z
" transform="scale(0.015625)"/>
       </defs>
       <use xlink:href="#DejaVuSans-38"/>
       <use xlink:href="#DejaVuSans-30" x="63.623047"/>
      </g>
     </g>
    </g>
    <g id="text_11">
     <!-- Percent -->
     <g transform="translate(14.798438 154.285938) rotate(-90) scale(0.1 -0.1)">
      <defs>
       <path id="DejaVuSans-50" d="M 1259 4147 
L 1259 2394 
L 2053 2394 
Q 2494 2394 2734 2622 
Q 2975 2850 2975 3272 
Q 2975 3691 2734 3919 
Q 2494 4147 2053 4147 
L 1259 4147 
z
M 628 4666 
L 2053 4666 
Q 2838 4666 3239 4311 
Q 3641 3956 3641 3272 
Q 3641 2581 3239 2228 
Q 2838 1875 2053 1875 
L 1259 1875 
L 1259 0 
L 628 0 
L 628 4666 
z
" transform="scale(0.015625)"/>
       <path id="DejaVuSans-63" d="M 3122 3366 
L 3122 2828 
Q 2878 2963 2633 3030 
Q 2388 3097 2138 3097 
Q 1578 3097 1268 2742 
Q 959 2388 959 1747 
Q 959 1106 1268 751 
Q 1578 397 2138 397 
Q 2388 397 2633 464 
Q 2878 531 3122 666 
L 3122 134 
Q 2881 22 2623 -34 
Q 2366 -91 2075 -91 
Q 1284 -91 818 406 
Q 353 903 353 1747 
Q 353 2603 823 3093 
Q 1294 3584 2113 3584 
Q 2378 3584 2631 3529 
Q 2884 3475 3122 3366 
z
" transform="scale(0.015625)"/>
       <path id="DejaVuSans-6e" d="M 3513 2113 
L 3513 0 
L 2938 0 
L 2938 2094 
Q 2938 2591 2744 2837 
Q 2550 3084 2163 3084 
Q 1697 3084 1428 2787 
Q 1159 2491 1159 1978 
L 1159 0 
L 581 0 
L 581 3500 
L 1159 3500 
L 1159 2956 
Q 1366 3272 1645 3428 
Q 1925 3584 2291 3584 
Q 2894 3584 3203 3211 
Q 3513 2838 3513 2113 
z
" transform="scale(0.015625)"/>
       <path id="DejaVuSans-74" d="M 1172 4494 
L 1172 3500 
L 2356 3500 
L 2356 3053 
L 1172 3053 
L 1172 1153 
Q 1172 725 1289 603 
Q 1406 481 1766 481 
L 2356 481 
L 2356 0 
L 1766 0 
Q 1100 0 847 248 
Q 594 497 594 1153 
L 594 3053 
L 172 3053 
L 172 3500 
L 594 3500 
L 594 4494 
L 1172 4494 
z
" transform="scale(0.015625)"/>
      </defs>
      <use xlink:href="#DejaVuSans-50"/>
      <use xlink:href="#DejaVuSans-65" x="56.677734"/>
      <use xlink:href="#DejaVuSans-72" x="118.201172"/>
      <use xlink:href="#DejaVuSans-63" x="157.064453"/>
      <use xlink:href="#DejaVuSans-65" x="212.044922"/>
      <use xlink:href="#DejaVuSans-6e" x="273.568359"/>
      <use xlink:href="#DejaVuSans-74" x="336.947266"/>
     </g>
    </g>
   </g>
   <g id="line2d_10">
    <path d="M 49.554997 59.878125 
L 54.266508 60.275007 
L 58.978019 59.95491 
L 63.689531 61.85754 
L 68.401042 63.999839 
L 73.112554 64.583846 
L 77.824065 67.356635 
L 82.535576 68.619185 
L 87.247088 70.115966 
L 91.958599 71.864755 
L 96.670111 73.552394 
L 101.381622 75.502894 
L 106.093133 75.340291 
L 110.804645 77.736287 
L 115.516156 78.32325 
L 120.227668 78.23699 
L 124.939179 79.000045 
L 129.65069 80.961703 
L 134.362202 85.604342 
L 139.073713 86.218683 
L 143.785225 90.857391 
L 148.496736 90.703349 
L 153.208247 93.855521 
L 157.919759 94.005995 
L 162.63127 97.141795 
L 167.342782 100.741597 
L 172.054293 100.171698 
L 176.765804 100.468282 
L 181.477316 99.882466 
L 186.188827 109.442904 
L 190.900339 111.745014 
L 195.61185 113.455792 
L 200.323361 113.73067 
L 205.034873 115.270437 
L 209.746384 117.895795 
L 214.457896 117.577831 
L 219.169407 118.963648 
L 223.880918 113.758039 
L 228.59243 112.82095 
" clip-path="url(#p624c4c61aa)" style="fill: none; stroke: #1f77b4; stroke-width: 1.5; stroke-linecap: square"/>
   </g>
   <g id="line2d_11">
    <path d="M 49.554997 195.252085 
L 54.266508 195.102389 
L 58.978019 195.001476 
L 63.689531 193.717336 
L 68.401042 191.974843 
L 73.112554 191.718389 
L 77.824065 189.758768 
L 82.535576 188.834761 
L 87.247088 187.169899 
L 91.958599 186.268614 
L 96.670111 184.732257 
L 101.381622 184.101085 
L 106.093133 183.938001 
L 110.804645 182.872656 
L 115.516156 183.261434 
L 120.227668 183.074966 
L 124.939179 183.953145 
L 129.65069 182.85301 
L 134.362202 181.385143 
L 139.073713 180.637255 
L 143.785225 175.657374 
L 148.496736 175.121263 
L 153.208247 171.868245 
L 157.919759 174.197548 
L 162.63127 170.519689 
L 167.342782 168.082822 
L 172.054293 170.854679 
L 176.765804 171.470225 
L 181.477316 169.74202 
L 186.188827 166.573729 
L 190.900339 164.651477 
L 195.61185 160.209825 
L 200.323361 157.752827 
L 205.034873 159.381012 
L 209.746384 158.633079 
L 214.457896 158.286446 
L 219.169407 158.205395 
L 223.880918 159.627012 
L 228.59243 163.939201 
" clip-path="url(#p624c4c61aa)" style="fill: none; stroke: #ff7f0e; stroke-width: 1.5; stroke-linecap: square"/>
   </g>
   <g id="line2d_12">
    <path d="M 49.554997 210.87943 
L 54.266508 210.632244 
L 58.978019 211.053253 
L 63.689531 210.434764 
L 68.401042 210.034958 
L 73.112554 209.707405 
L 77.824065 208.894237 
L 82.535576 208.555694 
L 87.247088 208.723775 
L 91.958599 207.876271 
L 96.670111 207.724989 
L 101.381622 206.40566 
L 106.093133 206.731348 
L 110.804645 205.400697 
L 115.516156 204.424956 
L 120.227668 204.697684 
L 124.939179 203.05645 
L 129.65069 202.194927 
L 134.362202 199.020154 
L 139.073713 199.153701 
L 143.785225 199.494874 
L 148.496736 200.185028 
L 153.208247 200.285873 
L 157.919759 197.806096 
L 162.63127 198.348156 
L 167.342782 197.18522 
L 172.054293 194.983263 
L 176.765804 194.071134 
L 181.477316 196.385153 
L 186.188827 189.993006 
L 190.900339 189.613149 
L 195.61185 192.344023 
L 200.323361 194.526143 
L 205.034873 191.358191 
L 209.746384 189.480766 
L 214.457896 190.145363 
L 219.169407 188.840597 
L 223.880918 192.624589 
L 228.59243 189.249489 
" clip-path="url(#p624c4c61aa)" style="fill: none; stroke: #2ca02c; stroke-width: 1.5; stroke-linecap: square"/>
   </g>
   <g id="line2d_13"/>
   <g id="line2d_14"/>
   <g id="line2d_15"/>
   <g id="patch_3">
    <path d="M 40.603125 218.638125 
L 40.603125 52.318125 
" style="fill: none; stroke: #000000; stroke-width: 0.8; stroke-linejoin: miter; stroke-linecap: square"/>
   </g>
   <g id="patch_4">
    <path d="M 237.544301 218.638125 
L 237.544301 52.318125 
" style="fill: none; stroke: #000000; stroke-width: 0.8; stroke-linejoin: miter; stroke-linecap: square"/>
   </g>
   <g id="patch_5">
    <path d="M 40.603125 218.638125 
L 237.544301 218.638125 
" style="fill: none; stroke: #000000; stroke-width: 0.8; stroke-linejoin: miter; stroke-linecap: square"/>
   </g>
   <g id="patch_6">
    <path d="M 40.603125 52.318125 
L 237.544301 52.318125 
" style="fill: none; stroke: #000000; stroke-width: 0.8; stroke-linejoin: miter; stroke-linecap: square"/>
   </g>
   <g id="text_12">
    <!-- Bride: Pri/Sec -->
    <g transform="translate(98.927151 16.318125) scale(0.12 -0.12)">
     <defs>
      <path id="DejaVuSans-42" d="M 1259 2228 
L 1259 519 
L 2272 519 
Q 2781 519 3026 730 
Q 3272 941 3272 1375 
Q 3272 1813 3026 2020 
Q 2781 2228 2272 2228 
L 1259 2228 
z
M 1259 4147 
L 1259 2741 
L 2194 2741 
Q 2656 2741 2882 2914 
Q 3109 3088 3109 3444 
Q 3109 3797 2882 3972 
Q 2656 4147 2194 4147 
L 1259 4147 
z
M 628 4666 
L 2241 4666 
Q 2963 4666 3353 4366 
Q 3744 4066 3744 3513 
Q 3744 3084 3544 2831 
Q 3344 2578 2956 2516 
Q 3422 2416 3680 2098 
Q 3938 1781 3938 1306 
Q 3938 681 3513 340 
Q 3088 0 2303 0 
L 628 0 
L 628 4666 
z
" transform="scale(0.015625)"/>
      <path id="DejaVuSans-69" d="M 603 3500 
L 1178 3500 
L 1178 0 
L 603 0 
L 603 3500 
z
M 603 4863 
L 1178 4863 
L 1178 4134 
L 603 4134 
L 603 4863 
z
" transform="scale(0.015625)"/>
      <path id="DejaVuSans-64" d="M 2906 2969 
L 2906 4863 
L 3481 4863 
L 3481 0 
L 2906 0 
L 2906 525 
Q 2725 213 2448 61 
Q 2172 -91 1784 -91 
Q 1150 -91 751 415 
Q 353 922 353 1747 
Q 353 2572 751 3078 
Q 1150 3584 1784 3584 
Q 2172 3584 2448 3432 
Q 2725 3281 2906 2969 
z
M 947 1747 
Q 947 1113 1208 752 
Q 1469 391 1925 391 
Q 2381 391 2643 752 
Q 2906 1113 2906 1747 
Q 2906 2381 2643 2742 
Q 2381 3103 1925 3103 
Q 1469 3103 1208 2742 
Q 947 2381 947 1747 
z
" transform="scale(0.015625)"/>
      <path id="DejaVuSans-3a" d="M 750 794 
L 1409 794 
L 1409 0 
L 750 0 
L 750 794 
z
M 750 3309 
L 1409 3309 
L 1409 2516 
L 750 2516 
L 750 3309 
z
" transform="scale(0.015625)"/>
      <path id="DejaVuSans-20" transform="scale(0.015625)"/>
      <path id="DejaVuSans-2f" d="M 1625 4666 
L 2156 4666 
L 531 -594 
L 0 -594 
L 1625 4666 
z
" transform="scale(0.015625)"/>
      <path id="DejaVuSans-53" d="M 3425 4513 
L 3425 3897 
Q 3066 4069 2747 4153 
Q 2428 4238 2131 4238 
Q 1616 4238 1336 4038 
Q 1056 3838 1056 3469 
Q 1056 3159 1242 3001 
Q 1428 2844 1947 2747 
L 2328 2669 
Q 3034 2534 3370 2195 
Q 3706 1856 3706 1288 
Q 3706 609 3251 259 
Q 2797 -91 1919 -91 
Q 1588 -91 1214 -16 
Q 841 59 441 206 
L 441 856 
Q 825 641 1194 531 
Q 1563 422 1919 422 
Q 2459 422 2753 634 
Q 3047 847 3047 1241 
Q 3047 1584 2836 1778 
Q 2625 1972 2144 2069 
L 1759 2144 
Q 1053 2284 737 2584 
Q 422 2884 422 3419 
Q 422 4038 858 4394 
Q 1294 4750 2059 4750 
Q 2388 4750 2728 4690 
Q 3069 4631 3425 4513 
z
" transform="scale(0.015625)"/>
     </defs>
     <use xlink:href="#DejaVuSans-42"/>
     <use xlink:href="#DejaVuSans-72" x="68.603516"/>
     <use xlink:href="#DejaVuSans-69" x="109.716797"/>
     <use xlink:href="#DejaVuSans-64" x="137.5"/>
     <use xlink:href="#DejaVuSans-65" x="200.976562"/>
     <use xlink:href="#DejaVuSans-3a" x="262.5"/>
     <use xlink:href="#DejaVuSans-20" x="296.191406"/>
     <use xlink:href="#DejaVuSans-50" x="327.978516"/>
     <use xlink:href="#DejaVuSans-72" x="386.53125"/>
     <use xlink:href="#DejaVuSans-69" x="427.644531"/>
     <use xlink:href="#DejaVuSans-2f" x="455.427734"/>
     <use xlink:href="#DejaVuSans-53" x="489.119141"/>
     <use xlink:href="#DejaVuSans-65" x="552.595703"/>
     <use xlink:href="#DejaVuSans-63" x="614.119141"/>
    </g>
   </g>
   <g id="legend_1">
    <g id="patch_7">
     <path d="M 55.759555 48.848125 
L 222.387871 48.848125 
Q 223.775871 48.848125 223.775871 47.460125 
L 223.775871 24.819381 
Q 223.775871 23.431381 222.387871 23.431381 
L 55.759555 23.431381 
Q 54.371555 23.431381 54.371555 24.819381 
L 54.371555 47.460125 
Q 54.371555 48.848125 55.759555 48.848125 
z
" style="fill: #ffffff; opacity: 0.8; stroke: #cccccc; stroke-linejoin: miter"/>
    </g>
    <g id="text_13">
     <!-- Groom -->
     <g transform="translate(122.267463 33.805819) scale(0.1 -0.1)">
      <defs>
       <path id="DejaVuSans-47" d="M 3809 666 
L 3809 1919 
L 2778 1919 
L 2778 2438 
L 4434 2438 
L 4434 434 
Q 4069 175 3628 42 
Q 3188 -91 2688 -91 
Q 1594 -91 976 548 
Q 359 1188 359 2328 
Q 359 3472 976 4111 
Q 1594 4750 2688 4750 
Q 3144 4750 3555 4637 
Q 3966 4525 4313 4306 
L 4313 3634 
Q 3963 3931 3569 4081 
Q 3175 4231 2741 4231 
Q 1884 4231 1454 3753 
Q 1025 3275 1025 2328 
Q 1025 1384 1454 906 
Q 1884 428 2741 428 
Q 3075 428 3337 486 
Q 3600 544 3809 666 
z
" transform="scale(0.015625)"/>
       <path id="DejaVuSans-6f" d="M 1959 3097 
Q 1497 3097 1228 2736 
Q 959 2375 959 1747 
Q 959 1119 1226 758 
Q 1494 397 1959 397 
Q 2419 397 2687 759 
Q 2956 1122 2956 1747 
Q 2956 2369 2687 2733 
Q 2419 3097 1959 3097 
z
M 1959 3584 
Q 2709 3584 3137 3096 
Q 3566 2609 3566 1747 
Q 3566 888 3137 398 
Q 2709 -91 1959 -91 
Q 1206 -91 779 398 
Q 353 888 353 1747 
Q 353 2609 779 3096 
Q 1206 3584 1959 3584 
z
" transform="scale(0.015625)"/>
       <path id="DejaVuSans-6d" d="M 3328 2828 
Q 3544 3216 3844 3400 
Q 4144 3584 4550 3584 
Q 5097 3584 5394 3201 
Q 5691 2819 5691 2113 
L 5691 0 
L 5113 0 
L 5113 2094 
Q 5113 2597 4934 2840 
Q 4756 3084 4391 3084 
Q 3944 3084 3684 2787 
Q 3425 2491 3425 1978 
L 3425 0 
L 2847 0 
L 2847 2094 
Q 2847 2600 2669 2842 
Q 2491 3084 2119 3084 
Q 1678 3084 1418 2786 
Q 1159 2488 1159 1978 
L 1159 0 
L 581 0 
L 581 3500 
L 1159 3500 
L 1159 2956 
Q 1356 3278 1631 3431 
Q 1906 3584 2284 3584 
Q 2666 3584 2933 3390 
Q 3200 3197 3328 2828 
z
" transform="scale(0.015625)"/>
      </defs>
      <use xlink:href="#DejaVuSans-47"/>
      <use xlink:href="#DejaVuSans-72" x="77.490234"/>
      <use xlink:href="#DejaVuSans-6f" x="116.353516"/>
      <use xlink:href="#DejaVuSans-6f" x="177.535156"/>
      <use xlink:href="#DejaVuSans-6d" x="238.716797"/>
     </g>
    </g>
    <g id="line2d_16">
     <path d="M 57.147555 42.199822 
L 64.087555 42.199822 
L 71.027555 42.199822 
" style="fill: none; stroke: #1f77b4; stroke-width: 1.5; stroke-linecap: square"/>
    </g>
    <g id="text_14">
     <!-- Pri/Sec -->
     <g transform="translate(76.579555 44.628822) scale(0.0694 -0.0694)">
      <use xlink:href="#DejaVuSans-50"/>
      <use xlink:href="#DejaVuSans-72" x="58.552734"/>
      <use xlink:href="#DejaVuSans-69" x="99.666016"/>
      <use xlink:href="#DejaVuSans-2f" x="127.449219"/>
      <use xlink:href="#DejaVuSans-53" x="161.140625"/>
      <use xlink:href="#DejaVuSans-65" x="224.617188"/>
      <use xlink:href="#DejaVuSans-63" x="286.140625"/>
     </g>
    </g>
    <g id="line2d_17">
     <path d="M 114.13363 42.199822 
L 121.07363 42.199822 
L 128.01363 42.199822 
" style="fill: none; stroke: #ff7f0e; stroke-width: 1.5; stroke-linecap: square"/>
    </g>
    <g id="text_15">
     <!-- Diploma -->
     <g transform="translate(133.56563 44.628822) scale(0.0694 -0.0694)">
      <defs>
       <path id="DejaVuSans-44" d="M 1259 4147 
L 1259 519 
L 2022 519 
Q 2988 519 3436 956 
Q 3884 1394 3884 2338 
Q 3884 3275 3436 3711 
Q 2988 4147 2022 4147 
L 1259 4147 
z
M 628 4666 
L 1925 4666 
Q 3281 4666 3915 4102 
Q 4550 3538 4550 2338 
Q 4550 1131 3912 565 
Q 3275 0 1925 0 
L 628 0 
L 628 4666 
z
" transform="scale(0.015625)"/>
       <path id="DejaVuSans-70" d="M 1159 525 
L 1159 -1331 
L 581 -1331 
L 581 3500 
L 1159 3500 
L 1159 2969 
Q 1341 3281 1617 3432 
Q 1894 3584 2278 3584 
Q 2916 3584 3314 3078 
Q 3713 2572 3713 1747 
Q 3713 922 3314 415 
Q 2916 -91 2278 -91 
Q 1894 -91 1617 61 
Q 1341 213 1159 525 
z
M 3116 1747 
Q 3116 2381 2855 2742 
Q 2594 3103 2138 3103 
Q 1681 3103 1420 2742 
Q 1159 2381 1159 1747 
Q 1159 1113 1420 752 
Q 1681 391 2138 391 
Q 2594 391 2855 752 
Q 3116 1113 3116 1747 
z
" transform="scale(0.015625)"/>
       <path id="DejaVuSans-6c" d="M 603 4863 
L 1178 4863 
L 1178 0 
L 603 0 
L 603 4863 
z
" transform="scale(0.015625)"/>
      </defs>
      <use xlink:href="#DejaVuSans-44"/>
      <use xlink:href="#DejaVuSans-69" x="77.001953"/>
      <use xlink:href="#DejaVuSans-70" x="104.785156"/>
      <use xlink:href="#DejaVuSans-6c" x="168.261719"/>
      <use xlink:href="#DejaVuSans-6f" x="196.044922"/>
      <use xlink:href="#DejaVuSans-6d" x="257.226562"/>
      <use xlink:href="#DejaVuSans-61" x="354.638672"/>
     </g>
    </g>
    <g id="line2d_18">
     <path d="M 176.310609 42.199822 
L 183.250609 42.199822 
L 190.190609 42.199822 
" style="fill: none; stroke: #2ca02c; stroke-width: 1.5; stroke-linecap: square"/>
    </g>
    <g id="text_16">
     <!-- Degree -->
     <g transform="translate(195.742609 44.628822) scale(0.0694 -0.0694)">
      <defs>
       <path id="DejaVuSans-67" d="M 2906 1791 
Q 2906 2416 2648 2759 
Q 2391 3103 1925 3103 
Q 1463 3103 1205 2759 
Q 947 2416 947 1791 
Q 947 1169 1205 825 
Q 1463 481 1925 481 
Q 2391 481 2648 825 
Q 2906 1169 2906 1791 
z
M 3481 434 
Q 3481 -459 3084 -895 
Q 2688 -1331 1869 -1331 
Q 1566 -1331 1297 -1286 
Q 1028 -1241 775 -1147 
L 775 -588 
Q 1028 -725 1275 -790 
Q 1522 -856 1778 -856 
Q 2344 -856 2625 -561 
Q 2906 -266 2906 331 
L 2906 616 
Q 2728 306 2450 153 
Q 2172 0 1784 0 
Q 1141 0 747 490 
Q 353 981 353 1791 
Q 353 2603 747 3093 
Q 1141 3584 1784 3584 
Q 2172 3584 2450 3431 
Q 2728 3278 2906 2969 
L 2906 3500 
L 3481 3500 
L 3481 434 
z
" transform="scale(0.015625)"/>
      </defs>
      <use xlink:href="#DejaVuSans-44"/>
      <use xlink:href="#DejaVuSans-65" x="77.001953"/>
      <use xlink:href="#DejaVuSans-67" x="138.525391"/>
      <use xlink:href="#DejaVuSans-72" x="202.001953"/>
      <use xlink:href="#DejaVuSans-65" x="240.865234"/>
      <use xlink:href="#DejaVuSans-65" x="302.388672"/>
     </g>
    </g>
   </g>
  </g>
  <g id="axes_2">
   <g id="patch_8">
    <path d="M 276.932537 218.638125 
L 473.873713 218.638125 
L 473.873713 52.318125 
L 276.932537 52.318125 
z
" style="fill: #ffffff"/>
   </g>
   <g id="PolyCollection_4"/>
   <g id="PolyCollection_5"/>
   <g id="PolyCollection_6"/>
   <g id="matplotlib.axis_3">
    <g id="xtick_5">
     <g id="line2d_19">
      <g>
       <use xlink:href="#mb72242d315" x="314.153477" y="218.638125" style="stroke: #000000; stroke-width: 0.8"/>
      </g>
     </g>
     <g id="text_17">
      <!-- 1990 -->
      <g transform="translate(301.428477 233.236563) scale(0.1 -0.1)">
       <use xlink:href="#DejaVuSans-31"/>
       <use xlink:href="#DejaVuSans-39" x="63.623047"/>
       <use xlink:href="#DejaVuSans-39" x="127.246094"/>
       <use xlink:href="#DejaVuSans-30" x="190.869141"/>
      </g>
     </g>
    </g>
    <g id="xtick_6">
     <g id="line2d_20">
      <g>
       <use xlink:href="#mb72242d315" x="361.268591" y="218.638125" style="stroke: #000000; stroke-width: 0.8"/>
      </g>
     </g>
     <g id="text_18">
      <!-- 2000 -->
      <g transform="translate(348.543591 233.236563) scale(0.1 -0.1)">
       <use xlink:href="#DejaVuSans-32"/>
       <use xlink:href="#DejaVuSans-30" x="63.623047"/>
       <use xlink:href="#DejaVuSans-30" x="127.246094"/>
       <use xlink:href="#DejaVuSans-30" x="190.869141"/>
      </g>
     </g>
    </g>
    <g id="xtick_7">
     <g id="line2d_21">
      <g>
       <use xlink:href="#mb72242d315" x="408.383705" y="218.638125" style="stroke: #000000; stroke-width: 0.8"/>
      </g>
     </g>
     <g id="text_19">
      <!-- 2010 -->
      <g transform="translate(395.658705 233.236563) scale(0.1 -0.1)">
       <use xlink:href="#DejaVuSans-32"/>
       <use xlink:href="#DejaVuSans-30" x="63.623047"/>
       <use xlink:href="#DejaVuSans-31" x="127.246094"/>
       <use xlink:href="#DejaVuSans-30" x="190.869141"/>
      </g>
     </g>
    </g>
    <g id="xtick_8">
     <g id="line2d_22">
      <g>
       <use xlink:href="#mb72242d315" x="455.498819" y="218.638125" style="stroke: #000000; stroke-width: 0.8"/>
      </g>
     </g>
     <g id="text_20">
      <!-- 2020 -->
      <g transform="translate(442.773819 233.236563) scale(0.1 -0.1)">
       <use xlink:href="#DejaVuSans-32"/>
       <use xlink:href="#DejaVuSans-30" x="63.623047"/>
       <use xlink:href="#DejaVuSans-32" x="127.246094"/>
       <use xlink:href="#DejaVuSans-30" x="190.869141"/>
      </g>
     </g>
    </g>
    <g id="text_21">
     <!-- Year -->
     <g transform="translate(364.815625 246.914688) scale(0.1 -0.1)">
      <use xlink:href="#DejaVuSans-59"/>
      <use xlink:href="#DejaVuSans-65" x="47.833984"/>
      <use xlink:href="#DejaVuSans-61" x="109.357422"/>
      <use xlink:href="#DejaVuSans-72" x="170.636719"/>
     </g>
    </g>
   </g>
   <g id="matplotlib.axis_4">
    <g id="ytick_6">
     <g id="line2d_23">
      <g>
       <use xlink:href="#me4b6a3a08f" x="276.932537" y="217.119245" style="stroke: #000000; stroke-width: 0.8"/>
      </g>
     </g>
    </g>
    <g id="ytick_7">
     <g id="line2d_24">
      <g>
       <use xlink:href="#me4b6a3a08f" x="276.932537" y="180.049626" style="stroke: #000000; stroke-width: 0.8"/>
      </g>
     </g>
    </g>
    <g id="ytick_8">
     <g id="line2d_25">
      <g>
       <use xlink:href="#me4b6a3a08f" x="276.932537" y="142.980007" style="stroke: #000000; stroke-width: 0.8"/>
      </g>
     </g>
    </g>
    <g id="ytick_9">
     <g id="line2d_26">
      <g>
       <use xlink:href="#me4b6a3a08f" x="276.932537" y="105.910388" style="stroke: #000000; stroke-width: 0.8"/>
      </g>
     </g>
    </g>
    <g id="ytick_10">
     <g id="line2d_27">
      <g>
       <use xlink:href="#me4b6a3a08f" x="276.932537" y="68.840769" style="stroke: #000000; stroke-width: 0.8"/>
      </g>
     </g>
    </g>
   </g>
   <g id="line2d_28">
    <path d="M 285.884408 148.837259 
L 290.59592 147.435732 
L 295.307431 150.17988 
L 300.018943 148.460526 
L 304.730454 150.38601 
L 309.441965 150.840782 
L 314.153477 153.164102 
L 318.864988 151.510672 
L 323.5765 153.453208 
L 328.288011 148.902929 
L 332.999522 147.714882 
L 337.711034 149.350891 
L 342.422545 151.784409 
L 347.134057 154.298274 
L 351.845568 152.7586 
L 356.557079 154.887635 
L 361.268591 158.417158 
L 365.980102 156.708671 
L 370.691614 161.020115 
L 375.403125 164.094403 
L 380.114636 173.820296 
L 384.826148 170.244366 
L 389.537659 173.140459 
L 394.249171 174.229563 
L 398.960682 178.745767 
L 403.672193 178.1176 
L 408.383705 182.311093 
L 413.095216 181.831394 
L 417.806728 182.855843 
L 422.518239 183.650238 
L 427.22975 184.864636 
L 431.941262 185.586358 
L 436.652773 184.587314 
L 441.364285 187.90966 
L 446.075796 188.134769 
L 450.787307 186.025821 
L 455.498819 186.718977 
L 460.21033 187.484346 
L 464.921842 186.945498 
" clip-path="url(#pc21b2e467f)" style="fill: none; stroke: #1f77b4; stroke-width: 1.5; stroke-linecap: square"/>
   </g>
   <g id="line2d_29">
    <path d="M 285.884408 136.996453 
L 290.59592 137.88775 
L 295.307431 138.893592 
L 300.018943 140.848694 
L 304.730454 134.280264 
L 309.441965 136.467961 
L 314.153477 136.535765 
L 318.864988 132.950012 
L 323.5765 130.990948 
L 328.288011 137.647665 
L 332.999522 137.799973 
L 337.711034 137.976925 
L 342.422545 139.253937 
L 347.134057 138.035642 
L 351.845568 140.082646 
L 356.557079 140.605998 
L 361.268591 140.26225 
L 365.980102 139.501485 
L 370.691614 136.087168 
L 375.403125 135.022869 
L 380.114636 122.045374 
L 384.826148 125.260129 
L 389.537659 122.165047 
L 394.249171 122.559066 
L 398.960682 120.136653 
L 403.672193 121.39067 
L 408.383705 123.576766 
L 413.095216 122.84982 
L 417.806728 122.002286 
L 422.518239 124.462575 
L 427.22975 119.659991 
L 431.941262 120.211045 
L 436.652773 119.620273 
L 441.364285 121.026348 
L 446.075796 121.739253 
L 450.787307 122.978526 
L 455.498819 121.615634 
L 460.21033 119.413206 
L 464.921842 121.534602 
" clip-path="url(#pc21b2e467f)" style="fill: none; stroke: #ff7f0e; stroke-width: 1.5; stroke-linecap: square"/>
   </g>
   <g id="line2d_30">
    <path d="M 285.884408 180.175928 
L 290.59592 180.686158 
L 295.307431 176.936167 
L 300.018943 176.70042 
L 304.730454 181.343366 
L 309.441965 178.700897 
L 314.153477 176.309773 
L 318.864988 181.548955 
L 323.5765 181.565484 
L 328.288011 179.459046 
L 332.999522 180.494785 
L 337.711034 178.681824 
L 342.422545 174.971294 
L 347.134057 173.675724 
L 351.845568 173.168394 
L 356.557079 170.516006 
L 361.268591 167.330232 
L 365.980102 169.799483 
L 370.691614 168.902356 
L 375.403125 166.892368 
L 380.114636 170.14397 
L 384.826148 170.505144 
L 389.537659 170.704134 
L 394.249171 169.221011 
L 398.960682 167.12722 
L 403.672193 166.501369 
L 408.383705 160.121781 
L 413.095216 161.328426 
L 417.806728 161.151512 
L 422.518239 157.896827 
L 427.22975 161.485012 
L 431.941262 160.212237 
L 436.652773 161.802053 
L 441.364285 157.073632 
L 446.075796 156.135617 
L 450.787307 157.005292 
L 455.498819 157.675029 
L 460.21033 159.112087 
L 464.921842 157.52954 
" clip-path="url(#pc21b2e467f)" style="fill: none; stroke: #2ca02c; stroke-width: 1.5; stroke-linecap: square"/>
   </g>
   <g id="line2d_31"/>
   <g id="line2d_32"/>
   <g id="line2d_33"/>
   <g id="patch_9">
    <path d="M 276.932537 218.638125 
L 276.932537 52.318125 
" style="fill: none; stroke: #000000; stroke-width: 0.8; stroke-linejoin: miter; stroke-linecap: square"/>
   </g>
   <g id="patch_10">
    <path d="M 473.873713 218.638125 
L 473.873713 52.318125 
" style="fill: none; stroke: #000000; stroke-width: 0.8; stroke-linejoin: miter; stroke-linecap: square"/>
   </g>
   <g id="patch_11">
    <path d="M 276.932537 218.638125 
L 473.873713 218.638125 
" style="fill: none; stroke: #000000; stroke-width: 0.8; stroke-linejoin: miter; stroke-linecap: square"/>
   </g>
   <g id="patch_12">
    <path d="M 276.932537 52.318125 
L 473.873713 52.318125 
" style="fill: none; stroke: #000000; stroke-width: 0.8; stroke-linejoin: miter; stroke-linecap: square"/>
   </g>
   <g id="text_22">
    <!-- Bride: Diploma -->
    <g transform="translate(330.76875 16.318125) scale(0.12 -0.12)">
     <use xlink:href="#DejaVuSans-42"/>
     <use xlink:href="#DejaVuSans-72" x="68.603516"/>
     <use xlink:href="#DejaVuSans-69" x="109.716797"/>
     <use xlink:href="#DejaVuSans-64" x="137.5"/>
     <use xlink:href="#DejaVuSans-65" x="200.976562"/>
     <use xlink:href="#DejaVuSans-3a" x="262.5"/>
     <use xlink:href="#DejaVuSans-20" x="296.191406"/>
     <use xlink:href="#DejaVuSans-44" x="327.978516"/>
     <use xlink:href="#DejaVuSans-69" x="404.980469"/>
     <use xlink:href="#DejaVuSans-70" x="432.763672"/>
     <use xlink:href="#DejaVuSans-6c" x="496.240234"/>
     <use xlink:href="#DejaVuSans-6f" x="524.023438"/>
     <use xlink:href="#DejaVuSans-6d" x="585.205078"/>
     <use xlink:href="#DejaVuSans-61" x="682.617188"/>
    </g>
   </g>
   <g id="legend_2">
    <g id="patch_13">
     <path d="M 292.088967 48.848125 
L 458.717283 48.848125 
Q 460.105283 48.848125 460.105283 47.460125 
L 460.105283 24.819381 
Q 460.105283 23.431381 458.717283 23.431381 
L 292.088967 23.431381 
Q 290.700967 23.431381 290.700967 24.819381 
L 290.700967 47.460125 
Q 290.700967 48.848125 292.088967 48.848125 
z
" style="fill: #ffffff; opacity: 0.8; stroke: #cccccc; stroke-linejoin: miter"/>
    </g>
    <g id="text_23">
     <!-- Groom -->
     <g transform="translate(358.596875 33.805819) scale(0.1 -0.1)">
      <use xlink:href="#DejaVuSans-47"/>
      <use xlink:href="#DejaVuSans-72" x="77.490234"/>
      <use xlink:href="#DejaVuSans-6f" x="116.353516"/>
      <use xlink:href="#DejaVuSans-6f" x="177.535156"/>
      <use xlink:href="#DejaVuSans-6d" x="238.716797"/>
     </g>
    </g>
    <g id="line2d_34">
     <path d="M 293.476967 42.199822 
L 300.416967 42.199822 
L 307.356967 42.199822 
" style="fill: none; stroke: #1f77b4; stroke-width: 1.5; stroke-linecap: square"/>
    </g>
    <g id="text_24">
     <!-- Pri/Sec -->
     <g transform="translate(312.908967 44.628822) scale(0.0694 -0.0694)">
      <use xlink:href="#DejaVuSans-50"/>
      <use xlink:href="#DejaVuSans-72" x="58.552734"/>
      <use xlink:href="#DejaVuSans-69" x="99.666016"/>
      <use xlink:href="#DejaVuSans-2f" x="127.449219"/>
      <use xlink:href="#DejaVuSans-53" x="161.140625"/>
      <use xlink:href="#DejaVuSans-65" x="224.617188"/>
      <use xlink:href="#DejaVuSans-63" x="286.140625"/>
     </g>
    </g>
    <g id="line2d_35">
     <path d="M 350.463042 42.199822 
L 357.403042 42.199822 
L 364.343042 42.199822 
" style="fill: none; stroke: #ff7f0e; stroke-width: 1.5; stroke-linecap: square"/>
    </g>
    <g id="text_25">
     <!-- Diploma -->
     <g transform="translate(369.895042 44.628822) scale(0.0694 -0.0694)">
      <use xlink:href="#DejaVuSans-44"/>
      <use xlink:href="#DejaVuSans-69" x="77.001953"/>
      <use xlink:href="#DejaVuSans-70" x="104.785156"/>
      <use xlink:href="#DejaVuSans-6c" x="168.261719"/>
      <use xlink:href="#DejaVuSans-6f" x="196.044922"/>
      <use xlink:href="#DejaVuSans-6d" x="257.226562"/>
      <use xlink:href="#DejaVuSans-61" x="354.638672"/>
     </g>
    </g>
    <g id="line2d_36">
     <path d="M 412.64002 42.199822 
L 419.58002 42.199822 
L 426.52002 42.199822 
" style="fill: none; stroke: #2ca02c; stroke-width: 1.5; stroke-linecap: square"/>
    </g>
    <g id="text_26">
     <!-- Degree -->
     <g transform="translate(432.07202 44.628822) scale(0.0694 -0.0694)">
      <use xlink:href="#DejaVuSans-44"/>
      <use xlink:href="#DejaVuSans-65" x="77.001953"/>
      <use xlink:href="#DejaVuSans-67" x="138.525391"/>
      <use xlink:href="#DejaVuSans-72" x="202.001953"/>
      <use xlink:href="#DejaVuSans-65" x="240.865234"/>
      <use xlink:href="#DejaVuSans-65" x="302.388672"/>
     </g>
    </g>
   </g>
  </g>
  <g id="axes_3">
   <g id="patch_14">
    <path d="M 513.261949 218.638125 
L 710.203125 218.638125 
L 710.203125 52.318125 
L 513.261949 52.318125 
z
" style="fill: #ffffff"/>
   </g>
   <g id="PolyCollection_7"/>
   <g id="PolyCollection_8"/>
   <g id="PolyCollection_9"/>
   <g id="matplotlib.axis_5">
    <g id="xtick_9">
     <g id="line2d_37">
      <g>
       <use xlink:href="#mb72242d315" x="550.482889" y="218.638125" style="stroke: #000000; stroke-width: 0.8"/>
      </g>
     </g>
     <g id="text_27">
      <!-- 1990 -->
      <g transform="translate(537.757889 233.236563) scale(0.1 -0.1)">
       <use xlink:href="#DejaVuSans-31"/>
       <use xlink:href="#DejaVuSans-39" x="63.623047"/>
       <use xlink:href="#DejaVuSans-39" x="127.246094"/>
       <use xlink:href="#DejaVuSans-30" x="190.869141"/>
      </g>
     </g>
    </g>
    <g id="xtick_10">
     <g id="line2d_38">
      <g>
       <use xlink:href="#mb72242d315" x="597.598003" y="218.638125" style="stroke: #000000; stroke-width: 0.8"/>
      </g>
     </g>
     <g id="text_28">
      <!-- 2000 -->
      <g transform="translate(584.873003 233.236563) scale(0.1 -0.1)">
       <use xlink:href="#DejaVuSans-32"/>
       <use xlink:href="#DejaVuSans-30" x="63.623047"/>
       <use xlink:href="#DejaVuSans-30" x="127.246094"/>
       <use xlink:href="#DejaVuSans-30" x="190.869141"/>
      </g>
     </g>
    </g>
    <g id="xtick_11">
     <g id="line2d_39">
      <g>
       <use xlink:href="#mb72242d315" x="644.713117" y="218.638125" style="stroke: #000000; stroke-width: 0.8"/>
      </g>
     </g>
     <g id="text_29">
      <!-- 2010 -->
      <g transform="translate(631.988117 233.236563) scale(0.1 -0.1)">
       <use xlink:href="#DejaVuSans-32"/>
       <use xlink:href="#DejaVuSans-30" x="63.623047"/>
       <use xlink:href="#DejaVuSans-31" x="127.246094"/>
       <use xlink:href="#DejaVuSans-30" x="190.869141"/>
      </g>
     </g>
    </g>
    <g id="xtick_12">
     <g id="line2d_40">
      <g>
       <use xlink:href="#mb72242d315" x="691.828231" y="218.638125" style="stroke: #000000; stroke-width: 0.8"/>
      </g>
     </g>
     <g id="text_30">
      <!-- 2020 -->
      <g transform="translate(679.103231 233.236563) scale(0.1 -0.1)">
       <use xlink:href="#DejaVuSans-32"/>
       <use xlink:href="#DejaVuSans-30" x="63.623047"/>
       <use xlink:href="#DejaVuSans-32" x="127.246094"/>
       <use xlink:href="#DejaVuSans-30" x="190.869141"/>
      </g>
     </g>
    </g>
    <g id="text_31">
     <!-- Year -->
     <g transform="translate(601.145037 246.914688) scale(0.1 -0.1)">
      <use xlink:href="#DejaVuSans-59"/>
      <use xlink:href="#DejaVuSans-65" x="47.833984"/>
      <use xlink:href="#DejaVuSans-61" x="109.357422"/>
      <use xlink:href="#DejaVuSans-72" x="170.636719"/>
     </g>
    </g>
   </g>
   <g id="matplotlib.axis_6">
    <g id="ytick_11">
     <g id="line2d_41">
      <g>
       <use xlink:href="#me4b6a3a08f" x="513.261949" y="217.119245" style="stroke: #000000; stroke-width: 0.8"/>
      </g>
     </g>
    </g>
    <g id="ytick_12">
     <g id="line2d_42">
      <g>
       <use xlink:href="#me4b6a3a08f" x="513.261949" y="180.049626" style="stroke: #000000; stroke-width: 0.8"/>
      </g>
     </g>
    </g>
    <g id="ytick_13">
     <g id="line2d_43">
      <g>
       <use xlink:href="#me4b6a3a08f" x="513.261949" y="142.980007" style="stroke: #000000; stroke-width: 0.8"/>
      </g>
     </g>
    </g>
    <g id="ytick_14">
     <g id="line2d_44">
      <g>
       <use xlink:href="#me4b6a3a08f" x="513.261949" y="105.910388" style="stroke: #000000; stroke-width: 0.8"/>
      </g>
     </g>
    </g>
    <g id="ytick_15">
     <g id="line2d_45">
      <g>
       <use xlink:href="#me4b6a3a08f" x="513.261949" y="68.840769" style="stroke: #000000; stroke-width: 0.8"/>
      </g>
     </g>
    </g>
   </g>
   <g id="line2d_46">
    <path d="M 522.21382 203.218138 
L 526.925332 202.861699 
L 531.636843 201.8827 
L 536.348354 202.546074 
L 541.059866 201.498714 
L 545.771377 201.67357 
L 550.482889 199.889143 
L 555.1944 199.859766 
L 559.905911 200.958314 
L 564.617423 200.605792 
L 569.328934 197.798735 
L 574.040446 201.135394 
L 578.751957 202.340496 
L 583.463468 202.569022 
L 588.17498 201.316015 
L 592.886491 202.946154 
L 597.598003 202.935314 
L 602.309514 202.406946 
L 607.021025 201.280721 
L 611.732537 203.196383 
L 616.444048 204.296069 
L 621.15556 203.835098 
L 625.867071 204.140295 
L 630.578582 203.711944 
L 635.290094 204.306785 
L 640.001605 205.409959 
L 644.713117 205.40022 
L 649.424628 205.407997 
L 654.136139 205.374569 
L 658.847651 205.244309 
L 663.559162 206.317577 
L 668.270674 207.784227 
L 672.982185 208.425837 
L 677.693696 209.665163 
L 682.405208 209.303445 
L 687.116719 209.487613 
L 691.828231 211.078125 
L 696.539742 210.867175 
L 701.251253 210.734993 
" clip-path="url(#p9478d7dfde)" style="fill: none; stroke: #1f77b4; stroke-width: 1.5; stroke-linecap: square"/>
   </g>
   <g id="line2d_47">
    <path d="M 522.21382 189.12396 
L 526.925332 190.012306 
L 531.636843 193.278533 
L 536.348354 188.397365 
L 541.059866 188.442747 
L 545.771377 186.460162 
L 550.482889 189.33197 
L 555.1944 189.657119 
L 559.905911 189.35956 
L 564.617423 189.711024 
L 569.328934 188.009676 
L 574.040446 189.295504 
L 578.751957 189.869393 
L 583.463468 189.858483 
L 588.17498 189.760966 
L 592.886491 188.806334 
L 597.598003 190.152686 
L 602.309514 186.485417 
L 607.021025 186.47702 
L 611.732537 186.10158 
L 616.444048 184.529338 
L 621.15556 181.813542 
L 625.867071 181.632189 
L 630.578582 181.650431 
L 635.290094 181.277315 
L 640.001605 180.284546 
L 644.713117 181.662164 
L 649.424628 183.057433 
L 654.136139 182.725234 
L 658.847651 183.332415 
L 663.559162 181.72957 
L 668.270674 180.913333 
L 672.982185 181.199072 
L 677.693696 181.62296 
L 682.405208 182.557888 
L 687.116719 183.442449 
L 691.828231 184.578833 
L 696.539742 184.877683 
L 701.251253 184.872748 
" clip-path="url(#p9478d7dfde)" style="fill: none; stroke: #ff7f0e; stroke-width: 1.5; stroke-linecap: square"/>
   </g>
   <g id="line2d_48">
    <path d="M 522.21382 73.667542 
L 526.925332 73.135634 
L 531.636843 70.848408 
L 536.348354 75.066201 
L 541.059866 76.068179 
L 545.771377 77.875908 
L 550.482889 76.788527 
L 555.1944 76.492754 
L 559.905911 75.691766 
L 564.617423 75.692824 
L 569.328934 80.201229 
L 574.040446 75.578742 
L 578.751957 73.799751 
L 583.463468 73.582134 
L 588.17498 74.932659 
L 592.886491 74.257152 
L 597.598003 72.92164 
L 602.309514 77.117277 
L 607.021025 78.251899 
L 611.732537 76.711677 
L 616.444048 77.184233 
L 621.15556 80.361001 
L 625.867071 80.237156 
L 630.578582 80.647265 
L 635.290094 80.42554 
L 640.001605 80.315135 
L 644.713117 78.947256 
L 649.424628 77.54421 
L 654.136139 77.909836 
L 658.847651 77.432916 
L 663.559162 77.962493 
L 668.270674 77.31208 
L 672.982185 76.384731 
L 677.693696 74.721517 
L 682.405208 74.148307 
L 687.116719 73.079579 
L 691.828231 70.352682 
L 696.539742 70.264782 
L 701.251253 70.401899 
" clip-path="url(#p9478d7dfde)" style="fill: none; stroke: #2ca02c; stroke-width: 1.5; stroke-linecap: square"/>
   </g>
   <g id="line2d_49"/>
   <g id="line2d_50"/>
   <g id="line2d_51"/>
   <g id="patch_15">
    <path d="M 513.261949 218.638125 
L 513.261949 52.318125 
" style="fill: none; stroke: #000000; stroke-width: 0.8; stroke-linejoin: miter; stroke-linecap: square"/>
   </g>
   <g id="patch_16">
    <path d="M 710.203125 218.638125 
L 710.203125 52.318125 
" style="fill: none; stroke: #000000; stroke-width: 0.8; stroke-linejoin: miter; stroke-linecap: square"/>
   </g>
   <g id="patch_17">
    <path d="M 513.261949 218.638125 
L 710.203125 218.638125 
" style="fill: none; stroke: #000000; stroke-width: 0.8; stroke-linejoin: miter; stroke-linecap: square"/>
   </g>
   <g id="patch_18">
    <path d="M 513.261949 52.318125 
L 710.203125 52.318125 
" style="fill: none; stroke: #000000; stroke-width: 0.8; stroke-linejoin: miter; stroke-linecap: square"/>
   </g>
   <g id="text_32">
    <!-- Bride: Degree -->
    <g transform="translate(570.217224 16.318125) scale(0.12 -0.12)">
     <use xlink:href="#DejaVuSans-42"/>
     <use xlink:href="#DejaVuSans-72" x="68.603516"/>
     <use xlink:href="#DejaVuSans-69" x="109.716797"/>
     <use xlink:href="#DejaVuSans-64" x="137.5"/>
     <use xlink:href="#DejaVuSans-65" x="200.976562"/>
     <use xlink:href="#DejaVuSans-3a" x="262.5"/>
     <use xlink:href="#DejaVuSans-20" x="296.191406"/>
     <use xlink:href="#DejaVuSans-44" x="327.978516"/>
     <use xlink:href="#DejaVuSans-65" x="404.980469"/>
     <use xlink:href="#DejaVuSans-67" x="466.503906"/>
     <use xlink:href="#DejaVuSans-72" x="529.980469"/>
     <use xlink:href="#DejaVuSans-65" x="568.84375"/>
     <use xlink:href="#DejaVuSans-65" x="630.367188"/>
    </g>
   </g>
   <g id="legend_3">
    <g id="patch_19">
     <path d="M 528.418379 48.848125 
L 695.046695 48.848125 
Q 696.434695 48.848125 696.434695 47.460125 
L 696.434695 24.819381 
Q 696.434695 23.431381 695.046695 23.431381 
L 528.418379 23.431381 
Q 527.030379 23.431381 527.030379 24.819381 
L 527.030379 47.460125 
Q 527.030379 48.848125 528.418379 48.848125 
z
" style="fill: #ffffff; opacity: 0.8; stroke: #cccccc; stroke-linejoin: miter"/>
    </g>
    <g id="text_33">
     <!-- Groom -->
     <g transform="translate(594.926287 33.805819) scale(0.1 -0.1)">
      <use xlink:href="#DejaVuSans-47"/>
      <use xlink:href="#DejaVuSans-72" x="77.490234"/>
      <use xlink:href="#DejaVuSans-6f" x="116.353516"/>
      <use xlink:href="#DejaVuSans-6f" x="177.535156"/>
      <use xlink:href="#DejaVuSans-6d" x="238.716797"/>
     </g>
    </g>
    <g id="line2d_52">
     <path d="M 529.806379 42.199822 
L 536.746379 42.199822 
L 543.686379 42.199822 
" style="fill: none; stroke: #1f77b4; stroke-width: 1.5; stroke-linecap: square"/>
    </g>
    <g id="text_34">
     <!-- Pri/Sec -->
     <g transform="translate(549.238379 44.628822) scale(0.0694 -0.0694)">
      <use xlink:href="#DejaVuSans-50"/>
      <use xlink:href="#DejaVuSans-72" x="58.552734"/>
      <use xlink:href="#DejaVuSans-69" x="99.666016"/>
      <use xlink:href="#DejaVuSans-2f" x="127.449219"/>
      <use xlink:href="#DejaVuSans-53" x="161.140625"/>
      <use xlink:href="#DejaVuSans-65" x="224.617188"/>
      <use xlink:href="#DejaVuSans-63" x="286.140625"/>
     </g>
    </g>
    <g id="line2d_53">
     <path d="M 586.792454 42.199822 
L 593.732454 42.199822 
L 600.672454 42.199822 
" style="fill: none; stroke: #ff7f0e; stroke-width: 1.5; stroke-linecap: square"/>
    </g>
    <g id="text_35">
     <!-- Diploma -->
     <g transform="translate(606.224454 44.628822) scale(0.0694 -0.0694)">
      <use xlink:href="#DejaVuSans-44"/>
      <use xlink:href="#DejaVuSans-69" x="77.001953"/>
      <use xlink:href="#DejaVuSans-70" x="104.785156"/>
      <use xlink:href="#DejaVuSans-6c" x="168.261719"/>
      <use xlink:href="#DejaVuSans-6f" x="196.044922"/>
      <use xlink:href="#DejaVuSans-6d" x="257.226562"/>
      <use xlink:href="#DejaVuSans-61" x="354.638672"/>
     </g>
    </g>
    <g id="line2d_54">
     <path d="M 648.969432 42.199822 
L 655.909432 42.199822 
L 662.849432 42.199822 
" style="fill: none; stroke: #2ca02c; stroke-width: 1.5; stroke-linecap: square"/>
    </g>
    <g id="text_36">
     <!-- Degree -->
     <g transform="translate(668.401432 44.628822) scale(0.0694 -0.0694)">
      <use xlink:href="#DejaVuSans-44"/>
      <use xlink:href="#DejaVuSans-65" x="77.001953"/>
      <use xlink:href="#DejaVuSans-67" x="138.525391"/>
      <use xlink:href="#DejaVuSans-72" x="202.001953"/>
      <use xlink:href="#DejaVuSans-65" x="240.865234"/>
      <use xlink:href="#DejaVuSans-65" x="302.388672"/>
     </g>
    </g>
   </g>
  </g>
 </g>
 <defs>
  <clipPath id="p624c4c61aa">
   <rect x="40.603125" y="52.318125" width="196.941176" height="166.32"/>
  </clipPath>
  <clipPath id="pc21b2e467f">
   <rect x="276.932537" y="52.318125" width="196.941176" height="166.32"/>
  </clipPath>
  <clipPath id="p9478d7dfde">
   <rect x="513.261949" y="52.318125" width="196.941176" height="166.32"/>
  </clipPath>
 </defs>
</svg>
